<svg width="48" height="48" viewBox="0 0 48 48" fill="none" xmlns="http://www.w3.org/2000/svg">
<rect width="48" height="48" fill="#FCF6E5"/>
<path d="M14.6299 7.86816C21.862 4.54327 26.0137 11.7259 26.8467 13.3242L21.376 14.9248C21.3579 14.9344 20.1329 15.5849 18.7686 16.4844C18.6644 16.0974 18.5434 15.7332 18.4121 15.3711C18.1219 14.578 17.7968 13.8173 17.4443 13.0566C17.4042 12.9709 17.3683 12.8908 17.3242 12.8008C17.2094 12.5611 17.006 12.3872 16.748 12.3232C16.4908 12.2589 16.1988 12.31 15.9492 12.459C15.6997 12.608 15.5158 12.8402 15.4512 13.0967C15.386 13.3535 15.4451 13.6141 15.6025 13.8281C15.6489 13.8894 15.7014 13.9627 15.752 14.0332C16.2099 14.6757 16.6513 15.337 17.0498 16.0078C17.2482 16.3435 17.4356 16.6792 17.5928 17.0166C17.6264 17.0887 17.6585 17.1623 17.6885 17.2344C16.8651 17.8395 16.0926 18.4978 15.6055 19.123C14.0938 21.0632 12.8411 23.5902 12.4766 26.4131C12.1122 29.236 13.3916 33.6436 13.3916 33.6436C7.67014 29.7023 1.92106 13.7112 14.6299 7.86816Z" fill="#4B3C25"/>
<g filter="url(#filter0_n_346_2328)">
<path d="M19.5942 19.8257C25.1276 14.2 33.3552 13.2817 37.9712 17.7749C42.5872 22.2684 41.8434 30.4721 36.3101 36.0981C30.7767 41.7241 22.5491 42.6423 17.9331 38.1489C13.3171 33.6554 14.0608 25.4517 19.5942 19.8257ZM33.9536 21.0229C33.5402 21.0008 33.1869 21.3185 33.1646 21.7319C33.1422 22.147 33.1636 22.3507 33.1636 22.9165C33.1635 23.052 33.1018 23.255 32.9663 23.5317C32.9022 23.6628 32.8347 23.7848 32.7642 23.9155C32.7102 24.0156 32.6416 24.1472 32.5894 24.2729C32.5849 24.2787 32.5772 24.2897 32.564 24.3042C32.5232 24.3487 32.4587 24.4094 32.3677 24.4839C32.1856 24.6329 31.9457 24.7991 31.6958 24.9595C31.4492 25.1177 31.2061 25.261 31.0239 25.3657C30.9333 25.4178 30.8579 25.4601 30.8062 25.4888C30.7813 25.5025 30.7618 25.5137 30.7485 25.521H30.7476L30.7466 25.522C30.7453 25.5227 30.7438 25.5233 30.7427 25.5239H30.7417L30.7397 25.5259H30.7388L30.7378 25.5269H30.7368L30.7358 25.5278H30.7349L30.7339 25.5288H30.7329L30.7319 25.5298H30.73L30.728 25.5317H30.7271L30.7251 25.5327L30.7241 25.5337H30.7222L30.7202 25.5356H30.7183L30.7173 25.5366L30.7134 25.5386L30.7124 25.5396L30.7104 25.5405H30.7085L30.7075 25.5415L30.6821 25.5542L30.6792 25.5552L30.6753 25.5571L30.6733 25.5591L30.6704 25.5601L30.6685 25.561L30.6655 25.562L30.6636 25.563L30.6606 25.5649L30.6587 25.5659L30.6558 25.5669L30.6538 25.5679L30.6509 25.5698L30.6489 25.5708L30.646 25.5718L30.6431 25.5737L30.6401 25.5747L30.6382 25.5767L30.6323 25.5786C30.6314 25.5791 30.6303 25.5801 30.6294 25.5806L30.6265 25.5815C30.6256 25.582 30.6244 25.583 30.6235 25.5835L30.6206 25.5845C30.6197 25.5849 30.6186 25.5859 30.6177 25.5864L30.6147 25.5874C30.6138 25.5879 30.6127 25.5889 30.6118 25.5894L30.6089 25.5903C30.6079 25.5908 30.6069 25.5918 30.606 25.5923L30.603 25.5933C30.6021 25.5937 30.601 25.5947 30.6001 25.5952C30.5991 25.5957 30.5973 25.5966 30.5962 25.5972L30.5933 25.5981C30.5923 25.5986 30.5913 25.5996 30.5903 25.6001C30.5893 25.6006 30.5875 25.6006 30.5864 25.6011L30.5806 25.605C30.5795 25.6055 30.5778 25.6055 30.5767 25.606C30.5757 25.6065 30.5747 25.6074 30.5737 25.6079C30.5726 25.6084 30.5709 25.6093 30.5698 25.6099C30.5689 25.6103 30.5679 25.6113 30.5669 25.6118C30.5658 25.6123 30.5641 25.6123 30.563 25.6128C30.562 25.6133 30.561 25.6142 30.5601 25.6147C30.5589 25.6153 30.5573 25.6161 30.5562 25.6167C30.5552 25.6172 30.5542 25.6181 30.5532 25.6187C30.5521 25.6192 30.5505 25.62 30.5493 25.6206C30.5482 25.6211 30.5465 25.6211 30.5454 25.6216C30.5444 25.6221 30.5435 25.623 30.5425 25.6235L30.5269 25.6313C30.5259 25.6318 30.5249 25.6328 30.5239 25.6333L30.4888 25.6509C30.4875 25.6515 30.4852 25.6522 30.4839 25.6528L30.4683 25.6606C30.4669 25.6613 30.4648 25.6619 30.4634 25.6626C30.4621 25.6632 30.4607 25.6639 30.4595 25.6646C30.4581 25.6652 30.4569 25.6668 30.4556 25.6675C30.4542 25.6682 30.4521 25.6688 30.4507 25.6694C30.4494 25.6701 30.448 25.6708 30.4468 25.6714C30.4454 25.6721 30.4433 25.6727 30.4419 25.6733C30.4406 25.674 30.4392 25.6747 30.438 25.6753C30.4366 25.676 30.4346 25.6775 30.4331 25.6782C30.4319 25.6788 30.4304 25.6796 30.4292 25.6802C30.4278 25.6809 30.4258 25.6814 30.4243 25.6821C30.4231 25.6828 30.4217 25.6835 30.4204 25.6841C30.419 25.6848 30.417 25.6863 30.4155 25.687C30.4143 25.6876 30.4129 25.6883 30.4116 25.689C30.4102 25.6897 30.4082 25.6902 30.4067 25.6909C30.4053 25.6917 30.4034 25.6931 30.4019 25.6938C30.4006 25.6945 30.3992 25.6952 30.3979 25.6958C30.3965 25.6965 30.3945 25.6971 30.3931 25.6978C30.3916 25.6985 30.3897 25.6999 30.3882 25.7007L30.3784 25.7046C30.377 25.7053 30.3759 25.7068 30.3745 25.7075C30.3731 25.7082 30.3711 25.7088 30.3696 25.7095C30.3681 25.7102 30.3663 25.7116 30.3647 25.7124C30.3632 25.7132 30.3614 25.7136 30.3599 25.7144C30.3583 25.7151 30.3566 25.7165 30.355 25.7173C30.3535 25.718 30.3516 25.7185 30.3501 25.7192C30.3485 25.72 30.3468 25.7214 30.3452 25.7222C30.3437 25.7229 30.3419 25.7234 30.3403 25.7241C30.3387 25.7249 30.337 25.7262 30.3354 25.7271C30.3339 25.7278 30.3321 25.7283 30.3306 25.729C30.329 25.7298 30.3273 25.7311 30.3257 25.7319C30.3242 25.7327 30.3223 25.7332 30.3208 25.7339C30.3192 25.7347 30.3166 25.736 30.3149 25.7368C30.3135 25.7375 30.3116 25.738 30.3101 25.7388C30.3085 25.7396 30.3068 25.7409 30.3052 25.7417C30.3037 25.7425 30.3018 25.7429 30.3003 25.7437C30.2988 25.7444 30.297 25.7458 30.2954 25.7466C30.2937 25.7474 30.2913 25.7487 30.2896 25.7495C30.288 25.7503 30.2862 25.7507 30.2847 25.7515C30.2831 25.7523 30.2814 25.7536 30.2798 25.7544C30.2781 25.7552 30.2757 25.7565 30.2739 25.7573C30.2724 25.7581 30.2706 25.7585 30.269 25.7593C30.2673 25.7601 30.2649 25.7613 30.2632 25.7622L30.2534 25.7681C30.2517 25.7689 30.2493 25.7692 30.2476 25.77C30.2459 25.7708 30.2443 25.7721 30.2427 25.7729L30.231 25.7788C30.2294 25.7796 30.2276 25.78 30.2261 25.7808C30.2243 25.7816 30.222 25.7828 30.2202 25.7837C30.2186 25.7845 30.217 25.7858 30.2153 25.7866L30.2036 25.7925C30.2021 25.7932 30.2003 25.7937 30.1987 25.7944L30.1753 25.8062C30.1736 25.807 30.1721 25.8082 30.1704 25.8091L30.1528 25.8179C30.1511 25.8188 30.1488 25.819 30.147 25.8198L30.1001 25.8433C30.0982 25.8442 30.0962 25.8462 30.0942 25.8472C30.0924 25.8481 30.0903 25.8492 30.0884 25.8501C30.0864 25.8511 30.0835 25.852 30.0815 25.853L30.064 25.8618C30.062 25.8628 30.0592 25.8638 30.0571 25.8647L30.0454 25.8706C30.0434 25.8716 30.0406 25.8735 30.0386 25.8745L30.0269 25.8804C30.0248 25.8814 30.0221 25.8823 30.02 25.8833C30.0181 25.8842 30.0161 25.8853 30.0142 25.8862C30.0121 25.8872 30.0094 25.8881 30.0073 25.8892C30.0053 25.8902 30.0035 25.892 30.0015 25.8931C29.9994 25.8941 29.9967 25.895 29.9946 25.896C29.9927 25.8969 29.9907 25.898 29.9888 25.8989C29.9867 25.9 29.984 25.9008 29.9819 25.9019C29.9799 25.9029 29.9781 25.9047 29.9761 25.9058C29.974 25.9068 29.9714 25.9077 29.9692 25.9087C29.9673 25.9096 29.9653 25.9107 29.9634 25.9116C29.9613 25.9127 29.9587 25.9145 29.9565 25.9155C29.9545 25.9166 29.9518 25.9174 29.9497 25.9185C29.9478 25.9194 29.9458 25.9204 29.9438 25.9214C29.9418 25.9224 29.9391 25.9233 29.937 25.9243C29.9349 25.9254 29.9323 25.9271 29.9302 25.9282C29.9283 25.9292 29.9262 25.9302 29.9243 25.9312C29.9222 25.9322 29.9196 25.934 29.9175 25.9351L29.9038 25.9409C29.9017 25.942 29.8991 25.9437 29.897 25.9448C29.8951 25.9458 29.893 25.9468 29.8911 25.9478C29.8891 25.9488 29.8863 25.9497 29.8843 25.9507C29.8821 25.9518 29.8796 25.9535 29.8774 25.9546C29.8753 25.9557 29.8728 25.9565 29.8706 25.9575C29.8684 25.9586 29.866 25.9603 29.8638 25.9614C29.8616 25.9625 29.8591 25.9633 29.8569 25.9644C29.8547 25.9655 29.8523 25.9671 29.8501 25.9683C29.8479 25.9693 29.8454 25.9701 29.8433 25.9712C29.841 25.9723 29.8386 25.974 29.8364 25.9751C29.8343 25.9762 29.8318 25.977 29.8296 25.978C29.8274 25.9791 29.825 25.9808 29.8228 25.9819C29.8206 25.983 29.8181 25.9838 29.8159 25.9849C29.8137 25.986 29.8113 25.9876 29.8091 25.9888C29.8069 25.9898 29.8044 25.9906 29.8022 25.9917C29.8 25.9928 29.7976 25.9945 29.7954 25.9956C29.7933 25.9967 29.7907 25.9975 29.7886 25.9985C29.7863 25.9997 29.7831 26.0013 29.7808 26.0024C29.7786 26.0035 29.7761 26.0043 29.7739 26.0054L29.7603 26.0132C29.7581 26.0143 29.7556 26.015 29.7534 26.0161C29.7511 26.0173 29.7479 26.0189 29.7456 26.02C29.7434 26.0211 29.7409 26.0219 29.7388 26.0229L29.7251 26.0308C29.7228 26.0319 29.7196 26.0325 29.7173 26.0337C29.715 26.0348 29.7127 26.0364 29.7104 26.0376C29.7081 26.0388 29.705 26.0403 29.7026 26.0415C29.7005 26.0426 29.698 26.0434 29.6958 26.0444C29.6935 26.0456 29.6912 26.0472 29.689 26.0483C29.6866 26.0495 29.6835 26.0511 29.6812 26.0522C29.679 26.0533 29.6765 26.0541 29.6743 26.0552C29.6719 26.0564 29.6689 26.0579 29.6665 26.0591C29.6642 26.0602 29.662 26.0618 29.6597 26.063C29.6573 26.0642 29.6543 26.0657 29.6519 26.0669C29.6497 26.068 29.6472 26.0688 29.645 26.0698C29.6426 26.071 29.6396 26.0725 29.6372 26.0737C29.6349 26.0749 29.6327 26.0765 29.6304 26.0776C29.628 26.0788 29.625 26.0803 29.6226 26.0815C29.6204 26.0826 29.6179 26.0834 29.6157 26.0845L29.6001 26.0923C29.5978 26.0934 29.5956 26.095 29.5933 26.0962C29.5908 26.0974 29.5879 26.0979 29.5854 26.0991C29.583 26.1003 29.5801 26.1018 29.5776 26.103C29.5753 26.1042 29.5731 26.1058 29.5708 26.1069L29.5552 26.1147C29.5529 26.1159 29.5506 26.1175 29.5483 26.1187C29.546 26.1198 29.5429 26.1204 29.5405 26.1216L29.5171 26.1333C29.5148 26.1344 29.5125 26.136 29.5103 26.1372L29.4634 26.1606C29.461 26.1618 29.458 26.1624 29.4556 26.1636L29.4399 26.1714C29.4376 26.1725 29.4354 26.1741 29.4331 26.1753C29.4307 26.1765 29.4277 26.178 29.4253 26.1792C29.4227 26.1805 29.4191 26.1818 29.4165 26.1831L29.3618 26.2104C29.3592 26.2117 29.3566 26.214 29.354 26.2153C29.3514 26.2166 29.3488 26.218 29.3462 26.2192C29.3436 26.2205 29.34 26.2218 29.3374 26.2231L29.3062 26.2388C29.3035 26.2401 29.3 26.2414 29.2974 26.2427L29.2817 26.2505C29.2791 26.2518 29.2756 26.2531 29.2729 26.2544C29.2704 26.2557 29.2677 26.258 29.2651 26.2593L29.2495 26.2671C29.2468 26.2684 29.2434 26.2697 29.2407 26.271C29.2382 26.2723 29.2355 26.2736 29.2329 26.2749C29.2302 26.2762 29.2268 26.2775 29.2241 26.2788C29.2215 26.2801 29.2189 26.2824 29.2163 26.2837C29.2137 26.285 29.2111 26.2863 29.2085 26.2876C29.2058 26.2889 29.2024 26.2902 29.1997 26.2915C29.1971 26.2928 29.1945 26.2941 29.1919 26.2954C29.1892 26.2968 29.1858 26.298 29.1831 26.2993C29.1805 26.3006 29.1779 26.3029 29.1753 26.3042C29.1726 26.3055 29.1692 26.3068 29.1665 26.3081C29.1639 26.3094 29.1613 26.3107 29.1587 26.312C29.156 26.3134 29.1526 26.3146 29.1499 26.3159C29.1473 26.3172 29.1447 26.3185 29.1421 26.3198C29.1394 26.3212 29.136 26.3233 29.1333 26.3247C29.1307 26.326 29.1281 26.3273 29.1255 26.3286C29.1227 26.33 29.1195 26.3312 29.1167 26.3325C29.1141 26.3338 29.1114 26.3352 29.1089 26.3364C29.1061 26.3378 29.1029 26.3399 29.1001 26.3413C29.0975 26.3426 29.0948 26.3439 29.0923 26.3452C29.0896 26.3466 29.0862 26.3478 29.0835 26.3491C29.0807 26.3505 29.0775 26.3526 29.0747 26.354C29.0721 26.3553 29.0695 26.3566 29.0669 26.3579L29.0493 26.3657C29.0466 26.3671 29.0442 26.3692 29.0415 26.3706L29.0239 26.3784C29.0212 26.3798 29.0188 26.3819 29.0161 26.3833L28.9985 26.3911C28.9957 26.3925 28.9926 26.3946 28.9897 26.396C28.9872 26.3973 28.9845 26.3986 28.9819 26.3999C28.9792 26.4013 28.9759 26.4025 28.9731 26.4038C28.9703 26.4052 28.9672 26.4073 28.9644 26.4087C28.9616 26.4101 28.9583 26.4112 28.9556 26.4126C28.9529 26.4139 28.9504 26.4161 28.9478 26.4175L28.9302 26.4253C28.9273 26.4267 28.9242 26.4288 28.9214 26.4302C28.9186 26.4316 28.9154 26.4327 28.9126 26.4341C28.9098 26.4355 28.9066 26.4376 28.9038 26.439C28.9012 26.4402 28.8986 26.4416 28.896 26.4429C28.8933 26.4442 28.8899 26.4454 28.8872 26.4468C28.8844 26.4482 28.8812 26.4502 28.8784 26.4517C28.8756 26.453 28.8724 26.4542 28.8696 26.4556C28.8668 26.457 28.8637 26.459 28.8608 26.4604C28.858 26.4619 28.8549 26.463 28.8521 26.4644C28.8492 26.4658 28.8461 26.4678 28.8433 26.4692L28.8257 26.4771C28.8228 26.4785 28.8198 26.4805 28.8169 26.4819C28.8141 26.4833 28.8109 26.4845 28.8081 26.4858C28.8052 26.4873 28.8022 26.4893 28.7993 26.4907C28.7965 26.4921 28.7933 26.4932 28.7905 26.4946C28.7877 26.4961 28.7846 26.4981 28.7817 26.4995C28.7789 26.5009 28.7758 26.502 28.7729 26.5034C28.7701 26.5048 28.767 26.5069 28.7642 26.5083C28.7613 26.5097 28.7582 26.5108 28.7554 26.5122C28.7525 26.5136 28.7495 26.5156 28.7466 26.5171C28.7438 26.5185 28.7406 26.5196 28.7378 26.521C28.7349 26.5224 28.7319 26.5244 28.729 26.5259C28.7262 26.5273 28.723 26.5284 28.7202 26.5298C28.7173 26.5312 28.7143 26.5332 28.7114 26.5347C28.7086 26.5361 28.7054 26.5372 28.7026 26.5386C28.6998 26.54 28.6967 26.542 28.6938 26.5435C28.6911 26.5448 28.6878 26.546 28.6851 26.5474C28.6821 26.5488 28.6782 26.5508 28.6753 26.5522C28.6725 26.5536 28.6693 26.5548 28.6665 26.5562L28.6489 26.5659C28.6461 26.5673 28.643 26.5684 28.6401 26.5698C28.6373 26.5713 28.6342 26.5733 28.6313 26.5747C28.6284 26.5762 28.6245 26.5772 28.6216 26.5786C28.6187 26.58 28.6157 26.5821 28.6128 26.5835C28.61 26.5849 28.6068 26.586 28.604 26.5874L28.5864 26.5972C28.5835 26.5986 28.5796 26.5996 28.5767 26.6011C28.5738 26.6025 28.5707 26.6045 28.5679 26.606C28.565 26.6074 28.5619 26.6085 28.5591 26.6099C28.5562 26.6113 28.5532 26.6133 28.5503 26.6147C28.5473 26.6162 28.5435 26.6181 28.5405 26.6196C28.5377 26.621 28.5345 26.6222 28.5317 26.6235C28.5288 26.625 28.5259 26.6269 28.5229 26.6284C28.5201 26.6298 28.517 26.6309 28.5142 26.6323C28.5112 26.6338 28.5074 26.6357 28.5044 26.6372C28.5015 26.6386 28.4985 26.6406 28.4956 26.6421C28.4928 26.6435 28.4896 26.6446 28.4868 26.646C28.4838 26.6475 28.4801 26.6494 28.4771 26.6509C28.4742 26.6523 28.4711 26.6543 28.4683 26.6558C28.4654 26.6572 28.4623 26.6583 28.4595 26.6597C28.4565 26.6612 28.4527 26.6631 28.4497 26.6646C28.4469 26.666 28.4437 26.6671 28.4409 26.6685C28.438 26.6699 28.435 26.6719 28.4321 26.6733C28.4291 26.6748 28.4254 26.6767 28.4224 26.6782C28.4195 26.6796 28.4164 26.6807 28.4136 26.6821C28.4107 26.6836 28.4077 26.6856 28.4048 26.687C28.4018 26.6885 28.398 26.6904 28.395 26.6919C28.3922 26.6933 28.3891 26.6944 28.3862 26.6958C28.3834 26.6972 28.3803 26.6992 28.3774 26.7007C28.3744 26.7022 28.3707 26.7041 28.3677 26.7056C28.3649 26.707 28.3617 26.7081 28.3589 26.7095C28.3559 26.711 28.3522 26.7128 28.3491 26.7144C28.3462 26.7158 28.3433 26.7178 28.3403 26.7192C28.3373 26.7207 28.3336 26.7226 28.3306 26.7241C28.3277 26.7255 28.3246 26.7266 28.3218 26.728C28.3188 26.7295 28.3159 26.7314 28.313 26.7329C28.31 26.7344 28.3063 26.7363 28.3032 26.7378C28.3004 26.7392 28.2973 26.7403 28.2944 26.7417C28.2914 26.7432 28.2877 26.7451 28.2847 26.7466C28.2817 26.7481 28.2788 26.75 28.2759 26.7515C28.2728 26.753 28.2692 26.7539 28.2661 26.7554C28.2632 26.7568 28.2603 26.7588 28.2573 26.7603C28.2543 26.7618 28.2506 26.7636 28.2476 26.7651C28.2446 26.7666 28.2417 26.7686 28.2388 26.77C28.2358 26.7715 28.232 26.7724 28.229 26.7739C28.2261 26.7754 28.2232 26.7773 28.2202 26.7788C28.2172 26.7803 28.2135 26.7822 28.2104 26.7837C28.2076 26.7851 28.2045 26.7862 28.2017 26.7876C28.1986 26.7891 28.195 26.791 28.1919 26.7925C28.1889 26.7939 28.1861 26.7959 28.1831 26.7974C28.1801 26.7989 28.1764 26.8007 28.1733 26.8022C28.1705 26.8036 28.1674 26.8048 28.1646 26.8062C28.1615 26.8077 28.1579 26.8095 28.1548 26.811C28.1518 26.8125 28.1489 26.8144 28.146 26.8159C28.1429 26.8174 28.1393 26.8193 28.1362 26.8208C28.1334 26.8222 28.1303 26.8233 28.1274 26.8247C28.1244 26.8262 28.1208 26.8281 28.1177 26.8296C28.1147 26.8311 28.1118 26.833 28.1089 26.8345C28.1058 26.836 28.1022 26.8378 28.0991 26.8394C28.0961 26.8409 28.0924 26.8418 28.0894 26.8433C28.0864 26.8447 28.0835 26.8467 28.0806 26.8481C28.0775 26.8497 28.0739 26.8515 28.0708 26.853C28.0679 26.8545 28.065 26.8564 28.062 26.8579C28.059 26.8594 28.0553 26.8603 28.0522 26.8618C28.0492 26.8633 28.0456 26.8652 28.0425 26.8667C28.0395 26.8682 28.0366 26.8701 28.0337 26.8716C28.0306 26.8731 28.027 26.8749 28.0239 26.8765C28.021 26.8779 28.0181 26.8799 28.0151 26.8813C28.0121 26.8829 28.0084 26.8838 28.0054 26.8853C28.0023 26.8868 27.9987 26.8886 27.9956 26.8901C27.9927 26.8916 27.9898 26.8935 27.9868 26.895C27.9837 26.8966 27.9801 26.8984 27.9771 26.8999C27.9742 26.9013 27.9711 26.9024 27.9683 26.9038L27.9487 26.9136C27.9458 26.915 27.9429 26.917 27.9399 26.9185C27.9369 26.92 27.9333 26.9218 27.9302 26.9233C27.9272 26.9248 27.9234 26.9258 27.9204 26.9272C27.9175 26.9287 27.9146 26.9306 27.9116 26.9321C27.9085 26.9337 27.905 26.9355 27.9019 26.937C27.8989 26.9385 27.896 26.9404 27.8931 26.9419C27.89 26.9434 27.8864 26.9452 27.8833 26.9468C27.8802 26.9483 27.8766 26.9492 27.8735 26.9507C27.8706 26.9522 27.8677 26.9541 27.8647 26.9556L27.8452 26.9653C27.8423 26.9668 27.8394 26.9687 27.8364 26.9702C27.8334 26.9717 27.8297 26.9726 27.8267 26.9741C27.8236 26.9757 27.82 26.9775 27.8169 26.979C27.8139 26.9805 27.8111 26.9824 27.8081 26.9839L27.7886 26.9937C27.7856 26.9951 27.7827 26.9971 27.7798 26.9985C27.7768 27 27.7731 27.001 27.77 27.0024C27.7669 27.004 27.7634 27.0058 27.7603 27.0073C27.7573 27.0088 27.7544 27.0107 27.7515 27.0122L27.7319 27.022C27.7289 27.0235 27.7252 27.0244 27.7222 27.0259C27.7192 27.0273 27.7163 27.0293 27.7134 27.0308L27.6938 27.0405C27.6909 27.042 27.688 27.0439 27.6851 27.0454C27.6819 27.047 27.6784 27.0487 27.6753 27.0503C27.6722 27.0518 27.6686 27.0527 27.6655 27.0542C27.6626 27.0557 27.6597 27.0576 27.6567 27.0591L27.6274 27.0737C27.6246 27.0751 27.6215 27.0762 27.6187 27.0776L27.5991 27.0874C27.5962 27.0889 27.5933 27.0908 27.5903 27.0923L27.5708 27.1021C27.568 27.1035 27.5648 27.1046 27.562 27.106L27.5327 27.1206C27.5298 27.1221 27.5269 27.124 27.5239 27.1255C27.5208 27.127 27.5173 27.1288 27.5142 27.1304C27.3137 27.2301 26.5256 27.6216 25.7778 27.9937C25.4037 28.1798 25.0391 28.3613 24.7632 28.4985C24.6253 28.5671 24.5092 28.6249 24.4253 28.6665L24.2866 28.7358C24.094 28.8288 23.9072 28.9729 23.7476 29.1128C23.5785 29.2609 23.3981 29.4407 23.2163 29.6382C22.8523 30.0335 22.4556 30.5279 22.0874 31.0474C21.7198 31.5661 21.369 32.1264 21.106 32.6538C20.8564 33.1542 20.6351 33.7225 20.6265 34.2271C20.6196 34.6411 20.9497 34.9827 21.3638 34.9897C21.7778 34.9966 22.1195 34.6665 22.1265 34.2524C22.1291 34.1029 22.2163 33.7888 22.4487 33.3228C22.668 32.8833 22.9738 32.3905 23.311 31.9146C23.6476 31.4397 24.005 30.9968 24.3198 30.6548C24.4775 30.4836 24.6186 30.3435 24.7358 30.2407C24.7942 30.1896 24.8432 30.151 24.8813 30.1235C24.9178 30.0973 24.9362 30.0874 24.938 30.0864C25.0307 30.0416 27.7871 28.6697 28.1821 28.4731L28.2017 28.4634C28.2046 28.4619 28.2075 28.46 28.2104 28.4585C28.2135 28.457 28.2171 28.4561 28.2202 28.4546C28.2233 28.453 28.2269 28.4513 28.23 28.4497C28.2329 28.4482 28.2358 28.4463 28.2388 28.4448L28.2583 28.4351C28.2612 28.4336 28.2641 28.4316 28.2671 28.4302C28.2701 28.4287 28.2738 28.4278 28.2769 28.4263L28.2964 28.4165C28.2993 28.415 28.3022 28.4131 28.3052 28.4116L28.3247 28.4019C28.3275 28.4005 28.3307 28.3994 28.3335 28.3979L28.353 28.3882C28.356 28.3867 28.3589 28.3848 28.3618 28.3833L28.3813 28.3735C28.3844 28.3721 28.3881 28.3711 28.3911 28.3696C28.3941 28.3681 28.397 28.3662 28.3999 28.3647L28.4194 28.355C28.4224 28.3535 28.4253 28.3516 28.4282 28.3501C28.4313 28.3486 28.4349 28.3477 28.438 28.3462C28.4411 28.3446 28.4446 28.3429 28.4478 28.3413C28.4507 28.3398 28.4536 28.3379 28.4565 28.3364L28.4761 28.3267C28.4789 28.3253 28.482 28.3242 28.4849 28.3228L28.5044 28.313C28.5073 28.3115 28.5102 28.3096 28.5132 28.3081L28.5327 28.2983C28.5355 28.2969 28.5387 28.2958 28.5415 28.2944L28.561 28.2847C28.564 28.2832 28.5669 28.2813 28.5698 28.2798C28.5729 28.2782 28.5765 28.2764 28.5796 28.2749C28.5826 28.2734 28.5863 28.2725 28.5894 28.271C28.5923 28.2695 28.5952 28.2676 28.5981 28.2661C28.6012 28.2646 28.6048 28.2628 28.6079 28.2612C28.6109 28.2598 28.6137 28.2578 28.6167 28.2563C28.6197 28.2549 28.6235 28.2539 28.6265 28.2524C28.6296 28.2509 28.6331 28.2491 28.6362 28.2476C28.6392 28.2461 28.6421 28.2441 28.645 28.2427L28.6646 28.2329C28.6674 28.2315 28.6705 28.2304 28.6733 28.229C28.6764 28.2275 28.68 28.2257 28.6831 28.2241C28.6861 28.2226 28.6889 28.2207 28.6919 28.2192L28.7114 28.2095C28.7143 28.2081 28.7174 28.207 28.7202 28.2056C28.7233 28.204 28.7269 28.2022 28.73 28.2007C28.7329 28.1992 28.7358 28.1973 28.7388 28.1958C28.7419 28.1943 28.7455 28.1924 28.7485 28.1909C28.7514 28.1895 28.7545 28.1884 28.7573 28.187L28.7769 28.1772C28.7798 28.1758 28.7827 28.1738 28.7856 28.1724C28.7887 28.1709 28.7924 28.17 28.7954 28.1685C28.7984 28.167 28.8012 28.165 28.8042 28.1636C28.8073 28.162 28.8109 28.1602 28.814 28.1587C28.8169 28.1572 28.8198 28.1553 28.8228 28.1538C28.8258 28.1523 28.8295 28.1514 28.8325 28.1499C28.8355 28.1484 28.8384 28.1465 28.8413 28.145C28.8444 28.1435 28.848 28.1417 28.8511 28.1401C28.854 28.1387 28.8569 28.1367 28.8599 28.1353C28.8629 28.1338 28.8666 28.1328 28.8696 28.1313C28.8725 28.1299 28.8755 28.1279 28.8784 28.1265C28.8815 28.1249 28.8851 28.1231 28.8882 28.1216C28.891 28.1202 28.8942 28.1191 28.897 28.1177C28.9 28.1162 28.9037 28.1143 28.9067 28.1128C28.9097 28.1113 28.9126 28.1094 28.9155 28.1079C28.9186 28.1064 28.9223 28.1045 28.9253 28.103C28.9281 28.1016 28.9313 28.1005 28.9341 28.0991C28.9371 28.0976 28.9408 28.0957 28.9438 28.0942C28.9468 28.0928 28.9497 28.0908 28.9526 28.0894C28.9557 28.0879 28.9594 28.087 28.9624 28.0854C28.9653 28.084 28.9682 28.082 28.9712 28.0806C28.9742 28.0791 28.9779 28.0772 28.981 28.0757C28.9839 28.0742 28.9868 28.0723 28.9897 28.0708C28.9928 28.0693 28.9965 28.0684 28.9995 28.0669L29.0171 28.0571C29.0201 28.0556 29.0238 28.0547 29.0269 28.0532C29.0298 28.0517 29.0327 28.0498 29.0356 28.0483C29.0387 28.0468 29.0424 28.045 29.0454 28.0435C29.0482 28.0421 29.0514 28.041 29.0542 28.0396C29.0571 28.0381 29.0601 28.0361 29.063 28.0347C29.066 28.0332 29.0697 28.0313 29.0728 28.0298C29.0756 28.0284 29.0787 28.0273 29.0815 28.0259C29.0844 28.0244 29.0875 28.0224 29.0903 28.021C29.0933 28.0195 29.0971 28.0176 29.1001 28.0161C29.1029 28.0147 29.1061 28.0136 29.1089 28.0122C29.1119 28.0107 29.1157 28.0088 29.1187 28.0073C29.1215 28.0059 29.1246 28.0039 29.1274 28.0024C29.1303 28.001 29.1334 27.9999 29.1362 27.9985C29.1392 27.997 29.143 27.9951 29.146 27.9937C29.1488 27.9923 29.152 27.9911 29.1548 27.9897L29.1724 27.98C29.1754 27.9785 29.1791 27.9776 29.1821 27.9761L29.1997 27.9663C29.2027 27.9648 29.2065 27.9639 29.2095 27.9624C29.2123 27.961 29.2154 27.9589 29.2183 27.9575C29.2211 27.9561 29.2242 27.955 29.2271 27.9536C29.2299 27.9522 29.2329 27.9502 29.2358 27.9487C29.2388 27.9472 29.2426 27.9453 29.2456 27.9438C29.2484 27.9425 29.2516 27.9413 29.2544 27.9399C29.2573 27.9385 29.2603 27.9365 29.2632 27.9351C29.266 27.9337 29.2692 27.9326 29.272 27.9312C29.2748 27.9297 29.2779 27.9277 29.2808 27.9263C29.2837 27.9248 29.2876 27.9238 29.2905 27.9224L29.3081 27.9126C29.3109 27.9112 29.3141 27.9101 29.3169 27.9087C29.3198 27.9072 29.3228 27.9053 29.3257 27.9038C29.3285 27.9024 29.3317 27.9013 29.3345 27.8999C29.3373 27.8985 29.3404 27.8964 29.3433 27.895C29.3462 27.8936 29.3501 27.8926 29.353 27.8911C29.3559 27.8897 29.359 27.8877 29.3618 27.8862C29.3646 27.8848 29.3678 27.8837 29.3706 27.8823C29.3735 27.8809 29.3765 27.8789 29.3794 27.8774C29.3822 27.876 29.3854 27.8749 29.3882 27.8735C29.3911 27.8721 29.3941 27.8701 29.397 27.8687C29.3998 27.8673 29.403 27.8661 29.4058 27.8647C29.4086 27.8633 29.4117 27.8613 29.4146 27.8599C29.4173 27.8585 29.4206 27.8573 29.4233 27.856C29.4262 27.8545 29.4293 27.8525 29.4321 27.8511C29.4349 27.8497 29.4382 27.8485 29.4409 27.8472C29.4437 27.8458 29.4469 27.8437 29.4497 27.8423C29.4525 27.8409 29.4558 27.8397 29.4585 27.8384C29.4613 27.837 29.4645 27.8349 29.4673 27.8335C29.47 27.8321 29.4733 27.831 29.4761 27.8296C29.4789 27.8282 29.482 27.8261 29.4849 27.8247C29.4876 27.8233 29.4909 27.8222 29.4937 27.8208C29.4965 27.8194 29.4996 27.8173 29.5024 27.8159C29.5052 27.8145 29.5084 27.8134 29.5112 27.812C29.5141 27.8106 29.5172 27.8086 29.52 27.8071C29.5228 27.8057 29.526 27.8046 29.5288 27.8032C29.5317 27.8018 29.5347 27.7998 29.5376 27.7983L29.5552 27.7905C29.558 27.7891 29.5611 27.787 29.564 27.7856C29.5665 27.7844 29.5692 27.783 29.5718 27.7817C29.5746 27.7803 29.5778 27.7783 29.5806 27.7769L29.5981 27.769C29.601 27.7676 29.6041 27.7656 29.6069 27.7642C29.6097 27.7628 29.613 27.7616 29.6157 27.7603C29.6184 27.7589 29.6208 27.7567 29.6235 27.7554L29.6411 27.7476C29.6439 27.7461 29.6471 27.7441 29.6499 27.7427C29.6526 27.7413 29.656 27.7401 29.6587 27.7388C29.6613 27.7375 29.6639 27.7361 29.6665 27.7349C29.6693 27.7335 29.6725 27.7314 29.6753 27.73C29.6781 27.7286 29.6813 27.7274 29.6841 27.7261C29.6866 27.7248 29.6893 27.7234 29.6919 27.7222C29.6947 27.7208 29.6979 27.7187 29.7007 27.7173C29.7035 27.7159 29.7067 27.7148 29.7095 27.7134C29.712 27.7121 29.7147 27.7107 29.7173 27.7095C29.7201 27.7081 29.7233 27.706 29.7261 27.7046C29.7288 27.7032 29.7321 27.7021 29.7349 27.7007C29.7374 27.6994 29.7401 27.6981 29.7427 27.6968C29.7454 27.6954 29.7488 27.6942 29.7515 27.6929C29.7542 27.6915 29.7575 27.6894 29.7603 27.688C29.7628 27.6867 29.7655 27.6854 29.7681 27.6841C29.7708 27.6827 29.7741 27.6815 29.7769 27.6802C29.7795 27.6788 29.782 27.6766 29.7847 27.6753C29.7874 27.6739 29.7907 27.6727 29.7935 27.6714C29.796 27.6701 29.7987 27.6688 29.8013 27.6675C29.804 27.6661 29.8074 27.6649 29.8101 27.6636C29.8128 27.6622 29.8161 27.66 29.8188 27.6587C29.8214 27.6574 29.8241 27.656 29.8267 27.6548C29.8294 27.6534 29.8328 27.6522 29.8354 27.6509L29.8511 27.6431C29.8538 27.6417 29.8572 27.6395 29.8599 27.6382C29.8624 27.6369 29.8651 27.6356 29.8677 27.6343C29.8704 27.6329 29.8738 27.6317 29.8765 27.6304C29.879 27.6291 29.8817 27.6277 29.8843 27.6265C29.887 27.6251 29.8904 27.6239 29.8931 27.6226C29.8957 27.6212 29.8983 27.619 29.9009 27.6177C29.9034 27.6164 29.9061 27.615 29.9087 27.6138C29.9114 27.6124 29.9148 27.6112 29.9175 27.6099L29.9331 27.6021C29.9358 27.6007 29.9392 27.5995 29.9419 27.5981C29.9445 27.5969 29.9471 27.5955 29.9497 27.5942C29.9523 27.5929 29.9549 27.5907 29.9575 27.5894C29.9601 27.5881 29.9628 27.5867 29.9653 27.5854C29.968 27.5841 29.9715 27.5829 29.9741 27.5815L29.9976 27.5698C30.0002 27.5685 30.0037 27.5672 30.0063 27.5659L30.0688 27.5347C30.0715 27.5334 30.0751 27.532 30.0776 27.5308L30.1245 27.5073C30.1268 27.5062 30.1291 27.5046 30.1313 27.5034L30.186 27.4761C30.1883 27.4749 30.1906 27.4733 30.1929 27.4722C30.1953 27.471 30.1983 27.4704 30.2007 27.4692L30.2163 27.4614C30.2186 27.4603 30.2208 27.4587 30.2231 27.4575L30.2388 27.4497C30.2412 27.4485 30.2442 27.448 30.2466 27.4468C30.2489 27.4456 30.2511 27.444 30.2534 27.4429L30.269 27.4351C30.2713 27.4339 30.2736 27.4323 30.2759 27.4312C30.2783 27.43 30.2813 27.4294 30.2837 27.4282C30.286 27.4271 30.2882 27.4255 30.2905 27.4243C30.293 27.4231 30.2959 27.4216 30.2983 27.4204C30.3006 27.4193 30.3029 27.4176 30.3052 27.4165C30.3075 27.4154 30.3106 27.4147 30.313 27.4136C30.3152 27.4124 30.3176 27.4108 30.3198 27.4097C30.3222 27.4085 30.3252 27.407 30.3276 27.4058C30.3299 27.4046 30.3322 27.403 30.3345 27.4019C30.3369 27.4007 30.3399 27.4001 30.3423 27.3989C30.3446 27.3978 30.3468 27.3962 30.3491 27.395C30.3515 27.3938 30.3546 27.3923 30.3569 27.3911C30.3591 27.39 30.3616 27.3893 30.3638 27.3882C30.3661 27.387 30.3692 27.3855 30.3716 27.3843C30.3738 27.3831 30.3762 27.3815 30.3784 27.3804C30.3806 27.3793 30.3831 27.3785 30.3853 27.3774C30.3876 27.3763 30.3907 27.3747 30.3931 27.3735C30.3953 27.3724 30.3977 27.3707 30.3999 27.3696C30.4021 27.3686 30.4046 27.3678 30.4067 27.3667C30.4089 27.3656 30.4114 27.3639 30.4136 27.3628C30.4159 27.3616 30.4191 27.36 30.4214 27.3589C30.4236 27.3578 30.4261 27.357 30.4282 27.356C30.4305 27.3548 30.4328 27.3532 30.4351 27.3521C30.4372 27.351 30.4397 27.3502 30.4419 27.3491C30.4442 27.348 30.4474 27.3464 30.4497 27.3452C30.4519 27.3442 30.4544 27.3434 30.4565 27.3423L30.4702 27.3345C30.4724 27.3334 30.4749 27.3326 30.4771 27.3315C30.4793 27.3304 30.4816 27.3288 30.4839 27.3276C30.4861 27.3266 30.4886 27.3258 30.4907 27.3247C30.493 27.3236 30.4953 27.3219 30.4976 27.3208C30.4997 27.3197 30.5022 27.3189 30.5044 27.3179C30.5066 27.3167 30.509 27.3151 30.5112 27.314C30.5134 27.3129 30.5159 27.3121 30.5181 27.311C30.5203 27.3099 30.5227 27.3082 30.5249 27.3071L30.5386 27.3013C30.5408 27.3002 30.5432 27.2985 30.5454 27.2974C30.5476 27.2963 30.5501 27.2955 30.5522 27.2944C30.5544 27.2933 30.5569 27.2916 30.5591 27.2905C30.561 27.2896 30.563 27.2885 30.5649 27.2876C30.567 27.2866 30.5697 27.2857 30.5718 27.2847C30.5739 27.2836 30.5765 27.2818 30.5786 27.2808C30.5808 27.2797 30.5833 27.2789 30.5854 27.2778C30.5876 27.2767 30.5901 27.275 30.5923 27.2739C30.5942 27.273 30.5962 27.2719 30.5981 27.271C30.6003 27.27 30.6029 27.2691 30.605 27.2681C30.6071 27.267 30.6097 27.2652 30.6118 27.2642C30.6137 27.2632 30.6158 27.2622 30.6177 27.2612C30.6198 27.2602 30.6224 27.2593 30.6245 27.2583C30.6266 27.2572 30.6292 27.2554 30.6313 27.2544C30.6333 27.2534 30.6353 27.2524 30.6372 27.2515C30.6393 27.2504 30.6419 27.2496 30.644 27.2485C30.646 27.2476 30.648 27.2466 30.6499 27.2456C30.652 27.2445 30.6547 27.2427 30.6567 27.2417C30.6586 27.2407 30.6607 27.2397 30.6626 27.2388C30.6647 27.2378 30.6674 27.2369 30.6694 27.2358C30.6713 27.2349 30.6734 27.2339 30.6753 27.2329C30.6773 27.2319 30.6801 27.231 30.6821 27.23C30.6841 27.229 30.686 27.2271 30.688 27.2261C30.6901 27.2251 30.6928 27.2242 30.6948 27.2231C30.6967 27.2222 30.6988 27.2212 30.7007 27.2202C30.7027 27.2192 30.7055 27.2183 30.7075 27.2173C30.7094 27.2163 30.7115 27.2153 30.7134 27.2144C30.7154 27.2133 30.7172 27.2115 30.7192 27.2104C30.7212 27.2095 30.7232 27.2085 30.7251 27.2075C30.7271 27.2065 30.7299 27.2056 30.7319 27.2046L30.7495 27.1958C30.7515 27.1948 30.7544 27.1938 30.7563 27.1929L30.8442 27.1489C30.8459 27.1481 30.8475 27.1468 30.8491 27.146L30.8608 27.1401C30.8626 27.1393 30.865 27.139 30.8667 27.1382C30.8683 27.1373 30.8699 27.1361 30.8716 27.1353L30.8833 27.1294C30.8849 27.1286 30.8865 27.1273 30.8882 27.1265C30.8899 27.1256 30.8923 27.1254 30.894 27.1245C30.8958 27.1236 30.8981 27.1225 30.8999 27.1216C30.9015 27.1207 30.9031 27.1195 30.9048 27.1187C30.9066 27.1178 30.9089 27.1166 30.9106 27.1157C30.9123 27.1149 30.9139 27.1136 30.9155 27.1128C30.9173 27.112 30.9197 27.1117 30.9214 27.1108C30.923 27.11 30.9246 27.1087 30.9263 27.1079C30.928 27.107 30.9304 27.1058 30.9321 27.105C30.9337 27.1042 30.9355 27.1038 30.937 27.103C30.9386 27.1022 30.9403 27.1009 30.9419 27.1001C30.9436 27.0992 30.9461 27.098 30.9478 27.0972C30.9493 27.0964 30.9511 27.096 30.9526 27.0952C30.9542 27.0944 30.9559 27.0931 30.9575 27.0923C30.9592 27.0914 30.9617 27.0902 30.9634 27.0894C30.9649 27.0886 30.9667 27.0882 30.9683 27.0874C30.9699 27.0866 30.9715 27.0853 30.9731 27.0845C30.9747 27.0837 30.9765 27.0833 30.978 27.0825C30.9797 27.0817 30.9822 27.0804 30.9839 27.0796C30.9854 27.0788 30.9872 27.0774 30.9888 27.0767C30.9903 27.0759 30.9922 27.0755 30.9937 27.0747C30.9953 27.0739 30.9969 27.0726 30.9985 27.0718C31.0001 27.071 31.0019 27.0706 31.0034 27.0698C31.005 27.069 31.0067 27.0677 31.0083 27.0669C31.0098 27.0662 31.0117 27.0657 31.0132 27.0649C31.0148 27.0641 31.0165 27.0628 31.0181 27.062C31.0196 27.0613 31.0214 27.0608 31.0229 27.0601C31.0245 27.0593 31.0263 27.0579 31.0278 27.0571C31.0294 27.0564 31.0312 27.0559 31.0327 27.0552C31.0343 27.0544 31.0361 27.053 31.0376 27.0522L31.0474 27.0483C31.0487 27.0476 31.0499 27.0461 31.0513 27.0454C31.0527 27.0447 31.0547 27.0442 31.0562 27.0435C31.0577 27.0427 31.0595 27.0413 31.061 27.0405C31.0625 27.0398 31.0645 27.0393 31.0659 27.0386C31.0672 27.0379 31.0686 27.0372 31.0698 27.0366C31.0713 27.0359 31.0732 27.0344 31.0747 27.0337C31.0762 27.033 31.0782 27.0324 31.0796 27.0317C31.0808 27.0311 31.0822 27.0304 31.0835 27.0298C31.0849 27.0291 31.087 27.0285 31.0884 27.0278C31.0898 27.0271 31.0918 27.0256 31.0933 27.0249C31.0945 27.0243 31.0959 27.0236 31.0972 27.0229C31.0986 27.0223 31.1006 27.0217 31.1021 27.021C31.1033 27.0204 31.1047 27.0197 31.106 27.019C31.1074 27.0183 31.1094 27.0168 31.1108 27.0161L31.1187 27.0122C31.1201 27.0115 31.1222 27.0109 31.1235 27.0103C31.1248 27.0096 31.1262 27.0089 31.1274 27.0083C31.1288 27.0076 31.13 27.006 31.1313 27.0054C31.1327 27.0047 31.1349 27.0041 31.1362 27.0034L31.1479 26.9976C31.1493 26.9969 31.1515 26.9963 31.1528 26.9956L31.1958 26.9741C31.1968 26.9736 31.1977 26.9727 31.1987 26.9722L31.2065 26.9683C31.2077 26.9678 31.2093 26.9678 31.2104 26.9673C31.2114 26.9668 31.2124 26.9658 31.2134 26.9653L31.2212 26.9614C31.2222 26.9609 31.2231 26.96 31.2241 26.9595C31.2253 26.9589 31.2269 26.9581 31.228 26.9575L31.231 26.9565L31.2388 26.9526C31.2397 26.9521 31.2408 26.9512 31.2417 26.9507L31.2446 26.9497C31.2457 26.9492 31.2475 26.9483 31.2485 26.9478C31.2495 26.9472 31.2505 26.9463 31.2515 26.9458C31.2526 26.9453 31.2543 26.9453 31.2554 26.9448L31.2612 26.9409L31.2642 26.9399C31.2652 26.9394 31.2671 26.9385 31.2681 26.938L31.271 26.937L31.2769 26.9331L31.2798 26.9321C31.2807 26.9316 31.2818 26.9306 31.2827 26.9302L31.2856 26.9292C31.2866 26.9287 31.2877 26.9277 31.2886 26.9272L31.2915 26.9263C31.2924 26.9258 31.2935 26.9248 31.2944 26.9243L31.3003 26.9224C31.3012 26.9219 31.3023 26.9209 31.3032 26.9204L31.3062 26.9194L31.3081 26.9175L31.314 26.9155L31.3169 26.9136L31.3188 26.9126L31.3218 26.9116L31.3237 26.9097L31.3296 26.9077L31.3315 26.9067L31.3335 26.9048L31.3364 26.9038L31.3384 26.9028L31.3413 26.9019L31.3452 26.8999L31.3481 26.8979L31.3755 26.8843H31.3765L31.3804 26.8823L31.3813 26.8813L31.3833 26.8804H31.3853L31.3862 26.8794L31.3882 26.8784L31.3892 26.8774H31.3911L31.3931 26.8755L31.395 26.8745H31.396L31.397 26.8735H31.3979L31.3999 26.8726L31.4009 26.8716H31.4019L31.4028 26.8706H31.4038L31.4048 26.8696H31.4058L31.4067 26.8687H31.4077L31.4087 26.8677H31.4097L31.4106 26.8667H31.4126V26.8657H31.4136L31.4146 26.8647H31.4155L31.4165 26.8638H31.4185L31.4399 26.8521L31.4409 26.8511H31.4429C31.4441 26.8504 31.4458 26.8492 31.4478 26.8481C31.4521 26.8458 31.4585 26.8417 31.4663 26.8374C31.4821 26.8288 31.5053 26.816 31.5337 26.8003C31.5911 26.7685 31.6731 26.7227 31.771 26.6665C31.9666 26.5542 32.2318 26.3976 32.5054 26.2222C32.7763 26.0484 33.0712 25.846 33.3179 25.644C33.4408 25.5433 33.5641 25.4321 33.6704 25.3159C33.7677 25.2095 33.8961 25.0513 33.9712 24.853C33.9826 24.8229 34.013 24.76 34.0845 24.6274C34.1468 24.5119 34.2333 24.3557 34.314 24.1909C34.4682 23.8758 34.6635 23.4129 34.6636 22.9165C34.6636 22.2191 34.6425 22.184 34.6626 21.812C34.6846 21.3987 34.367 21.0453 33.9536 21.0229Z" fill="#4B3C25"/>
</g>
<defs>
<filter id="filter0_n_346_2328" x="14.9043" y="14.9243" width="26.0956" height="26.0754" filterUnits="userSpaceOnUse" color-interpolation-filters="sRGB">
<feFlood flood-opacity="0" result="BackgroundImageFix"/>
<feBlend mode="normal" in="SourceGraphic" in2="BackgroundImageFix" result="shape"/>
<feTurbulence type="fractalNoise" baseFrequency="2 2" stitchTiles="stitch" numOctaves="3" result="noise" seed="7750" />
<feColorMatrix in="noise" type="luminanceToAlpha" result="alphaNoise" />
<feComponentTransfer in="alphaNoise" result="coloredNoise1">
<feFuncA type="discrete" tableValues="1 1 1 1 1 1 1 1 1 1 1 1 1 1 1 1 1 1 1 1 1 1 1 1 1 1 1 1 1 1 1 1 1 1 1 1 1 1 1 1 1 1 1 1 1 1 1 1 1 1 1 0 0 0 0 0 0 0 0 0 0 0 0 0 0 0 0 0 0 0 0 0 0 0 0 0 0 0 0 0 0 0 0 0 0 0 0 0 0 0 0 0 0 0 0 0 0 0 0 0 "/>
</feComponentTransfer>
<feComposite operator="in" in2="shape" in="coloredNoise1" result="noise1Clipped" />
<feFlood flood-color="rgba(0, 0, 0, 0.25)" result="color1Flood" />
<feComposite operator="in" in2="noise1Clipped" in="color1Flood" result="color1" />
<feMerge result="effect1_noise_346_2328">
<feMergeNode in="shape" />
<feMergeNode in="color1" />
</feMerge>
</filter>
</defs>
</svg>
