<svg width="144" height="144" viewBox="0 0 144 144" fill="none" xmlns="http://www.w3.org/2000/svg">
<rect width="144" height="144" fill="#FCF6E5"/>
<path d="M42.7891 20.7324C65.3376 10.2685 78.2793 32.8764 80.875 37.9043L63.8193 42.9385C63.8193 42.9385 59.241 45.3891 54.5068 48.6484C53.6314 44.7792 51.3852 41.5959 49.7676 38.1113C49.6313 37.8575 49.4993 37.6132 49.3594 37.3604C49.2304 37.1283 49.0163 36.9598 48.7598 36.8945C48.5031 36.8291 48.2244 36.8728 47.9902 37.0127C47.7568 37.1524 47.5872 37.3761 47.5225 37.6328C47.4576 37.8903 47.5029 38.1615 47.6455 38.3857C47.7875 38.6094 47.9346 38.8458 48.0811 39.084C49.9537 42.3574 52.3812 45.9781 53.4111 49.416C50.4494 51.528 47.5602 53.9073 45.8281 56.1514C41.1154 62.2572 37.2097 70.2089 36.0732 79.0928C34.9368 87.9767 38.9277 101.849 38.9277 101.849C21.09 89.4457 3.16597 39.1206 42.7891 20.7324Z" fill="#4B3C25"/>
<g filter="url(#filter0_n_346_2326)">
<path d="M58.2639 58.3647C75.5151 40.6595 101.166 37.7697 115.557 51.9106C129.948 66.0519 127.629 91.8693 110.378 109.575C93.127 127.28 67.4763 130.169 53.0852 116.028C38.6941 101.887 41.0127 76.0701 58.2639 58.3647ZM102.946 63.7397C102.532 63.7182 102.179 64.0356 102.156 64.4487C102.089 65.7093 102.156 66.1676 102.156 68.0913C102.155 68.9069 101.82 69.8248 101.378 70.7368C101.161 71.1855 100.931 71.6064 100.72 72.0015C100.518 72.3792 100.317 72.7627 100.196 73.0854C100.165 73.1654 100.073 73.3197 99.8674 73.5464C99.6706 73.7635 99.4061 74.0082 99.0881 74.271C98.4521 74.7965 97.6472 75.3576 96.8459 75.8765C96.0477 76.3933 95.2662 76.8601 94.6838 77.1978C94.3934 77.3661 94.1528 77.5026 93.9856 77.5962C93.9023 77.6428 93.8363 77.6793 93.7922 77.7036C93.773 77.7142 93.7572 77.723 93.7463 77.729H93.7454L93.7444 77.73H93.7434L93.7424 77.731L93.7405 77.7319H93.7395L93.7375 77.7329C93.7344 77.7347 93.7315 77.7368 93.7297 77.7378C93.7285 77.7382 93.7263 77.7385 93.7258 77.7388L93.7249 77.7397L93.7209 77.7417L93.718 77.7437L93.7122 77.7456L93.7102 77.7476C93.7091 77.7478 93.7071 77.7481 93.7063 77.7485L93.7004 77.7524L93.6975 77.7534C93.6964 77.754 93.6946 77.7549 93.6936 77.7554L93.6907 77.7573L93.6672 77.769C93.6659 77.7696 93.6636 77.7704 93.6624 77.771C93.6612 77.7716 93.6596 77.7724 93.6584 77.7729C93.6571 77.7737 93.6549 77.7752 93.6536 77.7759C93.6522 77.7765 93.65 77.7772 93.6487 77.7778C93.6476 77.7784 93.6459 77.7792 93.6448 77.7798C93.6434 77.7806 93.6412 77.782 93.6399 77.7827C93.6385 77.7833 93.6363 77.784 93.635 77.7847C93.6334 77.7855 93.6306 77.7868 93.6292 77.7876C93.6277 77.7884 93.6257 77.7898 93.6243 77.7905C93.6229 77.7911 93.6207 77.7918 93.6194 77.7925C93.6177 77.7933 93.6151 77.7946 93.6135 77.7954C93.6121 77.7962 93.6101 77.7976 93.6086 77.7983L93.5676 77.8188C93.5656 77.8198 93.5627 77.8208 93.5608 77.8218C93.559 77.8227 93.5567 77.8238 93.5549 77.8247C93.5529 77.8258 93.5501 77.8276 93.5481 77.8286C93.5463 77.8295 93.544 77.8307 93.5422 77.8315C93.5402 77.8326 93.5374 77.8344 93.5354 77.8354C93.5334 77.8364 93.5306 77.8374 93.5286 77.8384C93.5265 77.8395 93.5238 77.8412 93.5217 77.8423C93.5197 77.8432 93.5169 77.8442 93.5149 77.8452C93.5126 77.8464 93.5093 77.848 93.5071 77.8491C93.505 77.8501 93.5023 77.851 93.5002 77.8521C93.4982 77.8532 93.4955 77.8549 93.4934 77.856L93.4778 77.8638C93.4757 77.8649 93.4731 77.8666 93.4709 77.8677L93.4397 77.8833C93.4371 77.8845 93.4334 77.886 93.4309 77.8872C93.4285 77.8884 93.4255 77.8899 93.4231 77.8911C93.4205 77.8924 93.4169 77.8937 93.4143 77.895C93.4118 77.8964 93.409 77.8986 93.4065 77.8999C93.4038 77.9012 93.4003 77.9025 93.3977 77.9038C93.395 77.9052 93.3916 77.9074 93.3889 77.9087C93.3865 77.9099 93.3835 77.9114 93.3811 77.9126C93.3785 77.9138 93.3749 77.9152 93.3723 77.9165C93.3697 77.9179 93.3662 77.9201 93.3635 77.9214C93.3606 77.9228 93.3566 77.9249 93.3538 77.9263C93.3511 77.9276 93.3476 77.9288 93.345 77.9302C93.3422 77.9316 93.339 77.9337 93.3362 77.9351C93.3332 77.9365 93.3293 77.9385 93.3264 77.9399C93.3236 77.9414 93.3204 77.9434 93.3176 77.9448C93.3147 77.9462 93.3108 77.9473 93.3079 77.9487L93.2493 77.978C93.2462 77.9797 93.2426 77.9823 93.2395 77.9839C93.2363 77.9855 93.232 77.9872 93.2288 77.9888C93.2257 77.9903 93.2221 77.9921 93.219 77.9937C93.2157 77.9954 93.2115 77.9979 93.2083 77.9995C93.205 78.0011 93.2007 78.0028 93.1975 78.0044C93.1945 78.0059 93.1908 78.0077 93.1877 78.0093C93.1844 78.011 93.1803 78.0135 93.177 78.0151C93.1737 78.0167 93.1695 78.0184 93.1663 78.02C93.1629 78.0217 93.1589 78.0242 93.1555 78.0259C93.152 78.0276 93.1473 78.03 93.1438 78.0317C93.1405 78.0333 93.1364 78.035 93.1331 78.0366C93.1296 78.0384 93.1258 78.0407 93.1223 78.0425C93.1187 78.0443 93.1141 78.0466 93.1106 78.0483C93.1073 78.05 93.1032 78.0516 93.0999 78.0532L93.0764 78.0649C93.073 78.0667 93.0691 78.0691 93.0657 78.0708L93.0422 78.0825C93.0384 78.0844 93.0333 78.0865 93.0295 78.0884C93.0259 78.0902 93.0215 78.0924 93.0178 78.0942C93.0141 78.0962 93.0099 78.0992 93.0061 78.1011C93.0024 78.1029 92.9981 78.1051 92.9944 78.1069C92.9905 78.1088 92.9856 78.1108 92.9817 78.1128C92.978 78.1146 92.9737 78.1168 92.97 78.1187C92.966 78.1207 92.9612 78.1235 92.9573 78.1255C92.9533 78.1274 92.9485 78.1294 92.9446 78.1313C92.9406 78.1334 92.9359 78.1362 92.9319 78.1382C92.928 78.1401 92.9231 78.1421 92.9192 78.144C92.9152 78.1461 92.9105 78.1489 92.9065 78.1509C92.9025 78.1528 92.8977 78.1548 92.8938 78.1567C92.8897 78.1588 92.8852 78.1615 92.8811 78.1636C92.8771 78.1655 92.8724 78.1674 92.8684 78.1694C92.8642 78.1715 92.8589 78.1742 92.8547 78.1763C92.8507 78.1784 92.8461 78.181 92.842 78.1831C92.8378 78.1852 92.8326 78.1878 92.8284 78.1899C92.8243 78.192 92.8198 78.1947 92.8157 78.1968C92.8114 78.1989 92.8063 78.2015 92.802 78.2036C92.7978 78.2057 92.7926 78.2073 92.7883 78.2095L92.761 78.2231C92.7566 78.2254 92.7517 78.2288 92.7473 78.231L92.72 78.2446C92.7155 78.2469 92.7098 78.2492 92.7053 78.2515L92.678 78.2651C92.6734 78.2675 92.6679 78.2707 92.6633 78.2729C92.6587 78.2752 92.6533 78.2775 92.6487 78.2798C92.6442 78.2821 92.6395 78.2853 92.635 78.2876C92.6304 78.2898 92.6249 78.2921 92.6204 78.2944C92.6157 78.2968 92.6104 78.2999 92.6057 78.3022C92.6011 78.3045 92.5957 78.3068 92.5911 78.3091C92.5864 78.3115 92.5811 78.3145 92.5764 78.3169C92.5716 78.3192 92.5655 78.3213 92.5608 78.3237L92.5315 78.3394C92.5266 78.3417 92.5207 78.3438 92.5159 78.3462C92.5111 78.3486 92.506 78.3516 92.5012 78.354C92.4963 78.3565 92.4905 78.3594 92.4856 78.3618C92.4809 78.3642 92.4757 78.3672 92.4709 78.3696L92.3616 78.4243C92.3564 78.4269 92.3501 78.4296 92.345 78.4321C92.3399 78.4347 92.3344 78.4384 92.3293 78.4409C92.3242 78.4435 92.3179 78.4462 92.3127 78.4487C92.3077 78.4512 92.3021 78.454 92.2971 78.4565C92.2919 78.4592 92.2857 78.4627 92.2805 78.4653C92.2755 78.4678 92.2699 78.4706 92.2649 78.4731C92.2597 78.4757 92.2535 78.4784 92.2483 78.481C92.243 78.4836 92.237 78.4871 92.2317 78.4897C92.2264 78.4923 92.2203 78.4949 92.2151 78.4976C92.2098 78.5003 92.2038 78.5037 92.1985 78.5063C92.1932 78.5089 92.1871 78.5115 92.1819 78.5142C92.1766 78.5168 92.1706 78.5203 92.1653 78.5229C92.1598 78.5257 92.1531 78.529 92.1477 78.5317C92.1424 78.5343 92.1364 78.5369 92.1311 78.5396C92.1258 78.5422 92.1198 78.5457 92.1145 78.5483L92.0793 78.5659C92.074 78.5686 92.0681 78.572 92.0627 78.5747L91.9221 78.645C91.9163 78.6479 91.9093 78.6509 91.9036 78.6538C91.8979 78.6566 91.8916 78.6598 91.886 78.6626C91.8803 78.6655 91.8742 78.6695 91.8684 78.6724L91.8313 78.6899C91.8255 78.6929 91.8195 78.6968 91.8137 78.6997C91.8078 78.7026 91.801 78.7055 91.7952 78.7085C91.7892 78.7115 91.7826 78.7153 91.7766 78.7183C91.7707 78.7212 91.764 78.7241 91.7581 78.7271C91.7521 78.7301 91.7455 78.7338 91.7395 78.7368C91.7336 78.7398 91.7269 78.7426 91.7209 78.7456L91.6838 78.7651C91.6779 78.7681 91.6712 78.771 91.6653 78.7739C91.6592 78.777 91.6519 78.7806 91.6458 78.7837C91.6397 78.7867 91.6332 78.7904 91.6272 78.7935C91.621 78.7965 91.6138 78.7992 91.6077 78.8022C91.6016 78.8053 91.5952 78.809 91.5891 78.812L91.55 78.8315C91.544 78.8346 91.5375 78.8383 91.5315 78.8413L91.4143 78.8999C91.4079 78.9031 91.4002 78.9065 91.3938 78.9097C91.3874 78.9129 91.3807 78.9172 91.3743 78.9204C91.368 78.9236 91.361 78.927 91.3547 78.9302C91.3483 78.9334 91.3407 78.9367 91.3342 78.9399C91.3279 78.9431 91.321 78.9465 91.3147 78.9497C91.3082 78.953 91.3007 78.9572 91.2942 78.9604C91.2877 78.9637 91.2802 78.9669 91.2737 78.9702C91.2673 78.9735 91.2606 78.9777 91.2542 78.981L91.2131 79.0005L91.1721 79.022C91.1656 79.0252 91.1582 79.0284 91.1516 79.0317C91.145 79.0351 91.1378 79.0391 91.1311 79.0425C91.1245 79.0457 91.1172 79.0489 91.1106 79.0522C91.1038 79.0556 91.0958 79.0596 91.0891 79.063C91.0825 79.0663 91.0752 79.0704 91.0686 79.0737C91.062 79.077 91.0547 79.0802 91.0481 79.0835C91.0413 79.0869 91.0334 79.0908 91.0266 79.0942C91.0199 79.0976 91.0128 79.1016 91.0061 79.105C90.9993 79.1084 90.9914 79.1123 90.9846 79.1157C90.9779 79.1191 90.9708 79.1231 90.9641 79.1265C90.9572 79.1299 90.9495 79.1338 90.9426 79.1372C90.9358 79.1406 90.928 79.1435 90.9211 79.147L90.8782 79.1685C90.8715 79.1718 90.8644 79.1758 90.8577 79.1792C90.8509 79.1826 90.843 79.1865 90.8362 79.1899C90.8292 79.1935 90.8207 79.1982 90.8137 79.2017L90.7278 79.2446C90.7207 79.2482 90.7124 79.2518 90.7053 79.2554C90.6983 79.259 90.6909 79.2635 90.6838 79.2671C90.6767 79.2706 90.6685 79.2743 90.6614 79.2778C90.6544 79.2813 90.6469 79.2851 90.6399 79.2886C90.6327 79.2922 90.6246 79.2967 90.6174 79.3003C90.6103 79.3038 90.6021 79.3075 90.595 79.311C90.588 79.3145 90.5804 79.3183 90.5735 79.3218C90.5663 79.3254 90.5582 79.3299 90.551 79.3335C90.5438 79.3371 90.5358 79.3406 90.5286 79.3442C90.5213 79.3479 90.5134 79.3523 90.5061 79.356C90.4989 79.3595 90.4908 79.3631 90.4836 79.3667L90.4387 79.3901C90.4315 79.3937 90.4235 79.3973 90.4163 79.4009C90.4089 79.4046 90.4011 79.4089 90.3938 79.4126C90.3866 79.4162 90.3785 79.4197 90.3713 79.4233C90.3639 79.4271 90.3553 79.4313 90.3479 79.4351C90.3406 79.4388 90.3328 79.4431 90.3254 79.4468C90.318 79.4505 90.3094 79.4548 90.302 79.4585C90.2948 79.4621 90.2868 79.4656 90.2795 79.4692C90.2721 79.473 90.2636 79.4772 90.2561 79.481C90.2488 79.4847 90.241 79.489 90.2336 79.4927C90.2261 79.4964 90.2177 79.5006 90.2102 79.5044C90.2029 79.5081 90.1951 79.5124 90.1877 79.5161L89.9534 79.6333C89.9456 79.6372 89.9367 79.6421 89.929 79.646L89.8821 79.6694C89.8743 79.6733 89.8654 79.6773 89.8577 79.6812C89.85 79.6851 89.842 79.69 89.8342 79.6938L89.7854 79.7173C89.7777 79.7212 89.7697 79.7261 89.762 79.73C89.7541 79.7339 89.7454 79.7378 89.7375 79.7417C89.7297 79.7457 89.721 79.7505 89.7131 79.7544C89.7055 79.7582 89.6973 79.7623 89.6897 79.7661C89.6819 79.77 89.673 79.7739 89.6653 79.7778C89.6574 79.7818 89.6487 79.7866 89.6409 79.7905C89.633 79.7944 89.6243 79.7983 89.6165 79.8022L89.5676 79.8276C89.5598 79.8316 89.5511 79.8354 89.5432 79.8394C89.5353 79.8433 89.5267 79.8481 89.5188 79.8521C89.5108 79.8561 89.5014 79.8607 89.4934 79.8647C89.4855 79.8687 89.4769 79.8725 89.469 79.8765C89.461 79.8805 89.4526 79.8851 89.4446 79.8892C89.4365 79.8932 89.4272 79.8978 89.4192 79.9019C89.4113 79.9058 89.4026 79.9096 89.3948 79.9136C89.3868 79.9176 89.3783 79.9223 89.3704 79.9263C89.3622 79.9303 89.3531 79.9349 89.345 79.939C89.337 79.943 89.3286 79.9476 89.3206 79.9517C89.3124 79.9557 89.3033 79.9603 89.2952 79.9644C89.2871 79.9684 89.2779 79.972 89.2698 79.9761C89.2618 79.9801 89.2534 79.9848 89.2454 79.9888L89.1692 80.0269C89.1612 80.0309 89.1528 80.0355 89.1448 80.0396L88.9924 80.1157C88.9841 80.1199 88.9744 80.1252 88.9661 80.1294L88.8899 80.1675C88.8815 80.1717 88.8719 80.176 88.8635 80.1802C88.8552 80.1844 88.8465 80.1896 88.8381 80.1938C88.8299 80.198 88.821 80.2024 88.8127 80.2065C88.8043 80.2107 88.7948 80.215 88.7864 80.2192C88.778 80.2235 88.7694 80.2287 88.761 80.2329L88.7083 80.2583C88.6999 80.2625 88.6913 80.2678 88.6829 80.272L88.6301 80.2974C88.6218 80.3016 88.6131 80.3068 88.6047 80.311C88.5963 80.3153 88.5868 80.3195 88.5784 80.3237C88.5698 80.328 88.5605 80.3331 88.552 80.3374C88.5435 80.3416 88.5341 80.3458 88.5256 80.3501C88.5171 80.3544 88.5078 80.3595 88.4993 80.3638C88.4908 80.368 88.4814 80.3722 88.4729 80.3765C88.4644 80.3808 88.4551 80.3858 88.4465 80.3901C88.438 80.3944 88.4287 80.3986 88.4202 80.4028L88.3674 80.4302C88.3589 80.4344 88.3496 80.4386 88.3411 80.4429L88.2883 80.4702C88.2796 80.4745 88.2697 80.4786 88.261 80.4829L88.2083 80.5103C88.1995 80.5146 88.1896 80.5186 88.1809 80.5229L88.1282 80.5503C88.1194 80.5547 88.1096 80.5596 88.1008 80.564C88.0922 80.5683 88.0831 80.5733 88.0745 80.5776C88.0657 80.582 88.0558 80.586 88.0471 80.5903C88.0383 80.5947 88.0286 80.5996 88.0198 80.604C88.0111 80.6084 88.0021 80.6133 87.9934 80.6177L87.9387 80.645C87.9301 80.6494 87.921 80.6543 87.9124 80.6587L87.8303 80.6997C87.8217 80.7041 87.8126 80.709 87.804 80.7134L87.6125 80.8091C87.6036 80.8136 87.5932 80.8183 87.5842 80.8228L87.5295 80.8501C87.5206 80.8546 87.5112 80.8602 87.5022 80.8647C87.4933 80.8692 87.4838 80.8739 87.4749 80.8784C87.4658 80.8829 87.4555 80.8876 87.4465 80.8921L87.3918 80.9194C87.3828 80.924 87.3726 80.9295 87.3635 80.9341L87.3088 80.9614C87.2998 80.966 87.2896 80.9705 87.2805 80.9751C87.2715 80.9797 87.2622 80.9852 87.2532 80.9897C87.2441 80.9943 87.2339 80.9989 87.2249 81.0034C87.216 81.0079 87.2064 81.0126 87.1975 81.0171C87.1884 81.0217 87.1783 81.0272 87.1692 81.0317C87.1603 81.0362 87.1508 81.0409 87.1418 81.0454C87.1328 81.0499 87.1226 81.0545 87.1135 81.0591C87.1044 81.0637 87.0943 81.0691 87.0852 81.0737C87.0763 81.0782 87.0668 81.0829 87.0579 81.0874C87.0487 81.092 87.0387 81.0975 87.0295 81.1021L86.9729 81.1294C86.9639 81.134 86.9546 81.1395 86.9456 81.144C86.9364 81.1486 86.9263 81.1531 86.9172 81.1577C86.908 81.1623 86.8981 81.1678 86.8889 81.1724C86.8798 81.1769 86.8698 81.1814 86.8606 81.186C86.8514 81.1907 86.8415 81.1961 86.8323 81.2007C86.8232 81.2052 86.8131 81.2098 86.804 81.2144C86.7948 81.219 86.7848 81.2244 86.7756 81.229C86.7667 81.2335 86.7572 81.2382 86.7483 81.2427L86.6917 81.272C86.6824 81.2766 86.6716 81.281 86.6624 81.2856C86.6532 81.2903 86.6432 81.2957 86.634 81.3003C86.6249 81.3048 86.6148 81.3094 86.6057 81.314L86.5491 81.3433C86.5399 81.3478 86.5299 81.3523 86.5208 81.3569C86.5115 81.3616 86.5017 81.3669 86.4924 81.3716C86.4833 81.3762 86.4733 81.3807 86.4641 81.3853C86.4548 81.3899 86.4441 81.3952 86.4348 81.3999C86.4256 81.4045 86.4157 81.4099 86.4065 81.4146C86.3973 81.4191 86.3873 81.4236 86.3782 81.4282C86.369 81.4329 86.3591 81.4382 86.3499 81.4429C86.3405 81.4476 86.3299 81.4528 86.3206 81.4575C86.3113 81.4622 86.3015 81.4675 86.2922 81.4722C86.2831 81.4768 86.2731 81.4812 86.2639 81.4858C86.2545 81.4905 86.244 81.4958 86.2346 81.5005L86.178 81.5298C86.1686 81.5345 86.158 81.5388 86.1487 81.5435C86.1394 81.5481 86.1296 81.5534 86.1204 81.5581C86.111 81.5628 86.1005 81.568 86.0911 81.5728C86.0818 81.5774 86.072 81.5827 86.0627 81.5874C86.0533 81.5921 86.0428 81.5973 86.0334 81.6021C86.0243 81.6066 86.0143 81.6111 86.0051 81.6157C85.9957 81.6205 85.9852 81.6256 85.9758 81.6304C85.9665 81.6351 85.9568 81.6404 85.9475 81.645L85.8889 81.6743C85.8796 81.679 85.8699 81.6843 85.8606 81.689C85.8512 81.6937 85.8407 81.6989 85.8313 81.7036C85.8221 81.7082 85.8121 81.7127 85.803 81.7173L85.7444 81.7466C85.7351 81.7513 85.7254 81.7566 85.7161 81.7612L85.6282 81.8052C85.6189 81.8099 85.6091 81.8152 85.5999 81.8198L85.4827 81.8784C85.4734 81.8831 85.4636 81.8884 85.4543 81.8931L85.2493 81.9956C85.24 82.0003 85.2302 82.0056 85.2209 82.0103L84.8987 82.1714C84.8891 82.1762 84.878 82.1822 84.8684 82.187L84.634 82.3042C84.6244 82.3091 84.6134 82.315 84.6038 82.3198L84.4573 82.3931C84.4476 82.3979 84.4366 82.4029 84.427 82.4077C84.4174 82.4126 84.4073 82.4185 84.3977 82.4233L84.3098 82.4673C84.3002 82.4721 84.2892 82.4771 84.2795 82.4819C84.27 82.4867 84.2598 82.4918 84.2502 82.4966C84.2406 82.5015 84.2306 82.5074 84.2209 82.5122L84.1624 82.5415C84.1527 82.5463 84.1417 82.5513 84.1321 82.5562C84.1225 82.5609 84.1123 82.566 84.1028 82.5708C84.0931 82.5757 84.0831 82.5816 84.0735 82.5864C84.0639 82.5912 84.0537 82.5963 84.0442 82.6011C84.0345 82.6059 84.0236 82.6109 84.0139 82.6157L83.926 82.6597C83.9163 82.6645 83.9054 82.6704 83.8958 82.6753L83.8079 82.7192C83.7982 82.7241 83.7872 82.729 83.7776 82.7339C83.768 82.7388 83.7579 82.7447 83.7483 82.7495C83.7387 82.7543 83.7285 82.7594 83.719 82.7642C83.7093 82.769 83.6984 82.774 83.6887 82.7788C83.6792 82.7836 83.669 82.7887 83.6594 82.7935C82.4041 83.4238 73.8481 87.7239 73.5793 87.855C73.1726 88.0533 72.7186 88.3952 72.2561 88.8042C71.7839 89.2219 71.264 89.7451 70.7229 90.3384C69.64 91.5256 68.4439 93.0263 67.3293 94.6138C66.2154 96.2004 65.1712 97.8902 64.3977 99.4556C63.6374 100.994 63.0896 102.509 63.0696 103.714C63.0631 104.128 63.3934 104.469 63.8069 104.476C64.2209 104.483 64.5625 104.153 64.5696 103.739C64.5838 102.886 64.9993 101.624 65.7424 100.12C66.4725 98.6421 67.4731 97.0198 68.5569 95.4761C69.6402 93.9331 70.7972 92.4829 71.8313 91.3491C72.3483 90.7823 72.8287 90.3003 73.2493 89.9282C73.679 89.5481 74.0122 89.3126 74.2356 89.2036C74.506 89.0719 83.0864 84.7599 84.3323 84.1343C84.3419 84.1294 84.3529 84.1245 84.3625 84.1196C84.3721 84.1148 84.3823 84.1098 84.3918 84.105C84.4015 84.1001 84.4115 84.0942 84.4211 84.0894C84.4308 84.0845 84.4417 84.0795 84.4514 84.0747L84.5393 84.0308C84.549 84.0259 84.5599 84.02 84.5696 84.0151L84.6575 83.9712C84.6671 83.9663 84.6781 83.9614 84.6877 83.9565C84.6973 83.9517 84.7075 83.9458 84.717 83.9409L84.7756 83.9116C84.7853 83.9068 84.7962 83.9018 84.8059 83.897C84.8154 83.8922 84.8257 83.8871 84.8352 83.8823C84.8448 83.8775 84.8549 83.8716 84.8645 83.8667L84.9231 83.8374C84.9327 83.8326 84.9437 83.8276 84.9534 83.8228L85.012 83.7935C85.0216 83.7886 85.0317 83.7827 85.0413 83.7778C85.0508 83.773 85.061 83.768 85.0706 83.7632C85.0802 83.7584 85.0912 83.7534 85.1008 83.7485L85.218 83.6899C85.2276 83.6851 85.2386 83.6792 85.2483 83.6743L85.4534 83.5718C85.463 83.567 85.474 83.561 85.4836 83.5562L85.7766 83.4097C85.7862 83.4049 85.7963 83.3989 85.8059 83.394L85.9817 83.3062C85.991 83.3015 86.0007 83.2962 86.01 83.2915L86.1858 83.2036C86.1951 83.1989 86.2048 83.1936 86.2141 83.189L86.2727 83.1597C86.2821 83.1549 86.2926 83.1507 86.302 83.146C86.3113 83.1413 86.321 83.136 86.3303 83.1313L86.4182 83.0874C86.4275 83.0827 86.4372 83.0774 86.4465 83.0728L86.5051 83.0435C86.5144 83.0388 86.5242 83.0335 86.5334 83.0288C86.5429 83.0241 86.5533 83.0189 86.5627 83.0142C86.5719 83.0096 86.5819 83.0051 86.5911 83.0005C86.6005 82.9958 86.6109 82.9906 86.6204 82.9858C86.6296 82.9812 86.6394 82.9759 86.6487 82.9712L86.7073 82.9419C86.7165 82.9373 86.7264 82.9319 86.7356 82.9272C86.7448 82.9226 86.7547 82.9182 86.7639 82.9136C86.7733 82.9089 86.7838 82.9036 86.7932 82.8989C86.8025 82.8943 86.8123 82.889 86.8215 82.8843C86.8309 82.8796 86.8414 82.8743 86.8508 82.8696C86.86 82.865 86.87 82.8605 86.8792 82.856C86.8885 82.8513 86.8991 82.846 86.9084 82.8413L86.9651 82.812C86.9744 82.8073 86.985 82.803 86.9944 82.7983L87.0793 82.7544C87.0887 82.7497 87.0993 82.7454 87.1086 82.7407L87.1653 82.7114C87.1744 82.7068 87.1844 82.7023 87.1936 82.6978C87.2028 82.6931 87.2127 82.6877 87.2219 82.6831C87.2312 82.6784 87.2419 82.6741 87.2512 82.6694L87.3079 82.6401C87.317 82.6356 87.327 82.631 87.3362 82.6265C87.3454 82.6218 87.3553 82.6165 87.3645 82.6118C87.3737 82.6072 87.3837 82.6027 87.3928 82.5981C87.402 82.5935 87.4119 82.5881 87.4211 82.5835C87.4303 82.5789 87.4403 82.5744 87.4495 82.5698L87.5061 82.5405C87.515 82.5361 87.5245 82.5313 87.5334 82.5269C87.5426 82.5222 87.5526 82.5168 87.5618 82.5122L87.6184 82.4849C87.6276 82.4803 87.6376 82.4748 87.6467 82.4702C87.6556 82.4657 87.6652 82.461 87.6741 82.4565C87.6832 82.452 87.6932 82.4465 87.7024 82.4419C87.7115 82.4373 87.7216 82.4328 87.7307 82.4282C87.7398 82.4236 87.7499 82.4182 87.759 82.4136C87.7679 82.4091 87.7775 82.4044 87.7864 82.3999C87.7955 82.3953 87.8056 82.3908 87.8147 82.3862C87.8237 82.3817 87.833 82.3761 87.842 82.3716C87.8511 82.367 87.8613 82.3625 87.8704 82.3579C87.8793 82.3534 87.8888 82.3487 87.8977 82.3442C87.9068 82.3397 87.9169 82.3342 87.926 82.3296C87.9349 82.3251 87.9445 82.3204 87.9534 82.3159C87.9624 82.3114 87.9726 82.3068 87.9817 82.3022C87.9906 82.2978 88.0001 82.293 88.009 82.2886C88.0181 82.284 88.0283 82.2785 88.0374 82.2739L88.092 82.2466C88.1011 82.2421 88.1113 82.2374 88.1204 82.2329C88.1293 82.2284 88.1387 82.2228 88.1477 82.2183L88.2024 82.1909C88.2114 82.1864 88.2217 82.1817 88.2307 82.1772L88.3127 82.1362C88.3217 82.1317 88.3312 82.1261 88.3401 82.1216L88.5042 82.0396C88.5128 82.0352 88.5219 82.0302 88.5305 82.0259L88.5852 81.9985C88.594 81.9941 88.6038 81.9902 88.6125 81.9858C88.6212 81.9815 88.6303 81.9765 88.6389 81.9722L88.6936 81.9448C88.7023 81.9405 88.7113 81.9355 88.72 81.9312C88.7287 81.9267 88.7385 81.9219 88.7473 81.9175C88.756 81.9131 88.765 81.9082 88.7737 81.9038C88.7824 81.8994 88.7923 81.8955 88.801 81.8911C88.8097 81.8868 88.8188 81.8818 88.8274 81.8774C88.8361 81.8731 88.846 81.8682 88.8547 81.8638C88.8633 81.8595 88.8725 81.8544 88.8811 81.8501C88.8896 81.8458 88.899 81.8417 88.9075 81.8374C88.9162 81.833 88.9261 81.8281 88.9348 81.8237C88.9434 81.8194 88.9526 81.8144 88.9612 81.8101C88.9697 81.8058 88.979 81.8016 88.9875 81.7974L89.0403 81.77C89.0487 81.7658 89.0582 81.7615 89.0667 81.7573C89.0753 81.753 89.0853 81.748 89.094 81.7437C89.1025 81.7394 89.1119 81.7343 89.1204 81.73C89.1288 81.7258 89.1383 81.7215 89.1467 81.7173C89.1551 81.7131 89.1638 81.7079 89.1721 81.7036C89.1806 81.6994 89.19 81.6951 89.1985 81.6909C89.207 81.6866 89.2163 81.6815 89.2249 81.6772C89.2333 81.673 89.2427 81.6688 89.2512 81.6646C89.2597 81.6603 89.2691 81.6552 89.2776 81.6509C89.286 81.6466 89.2955 81.6424 89.304 81.6382C89.3122 81.634 89.3211 81.6296 89.3293 81.6255C89.3378 81.6212 89.3472 81.6161 89.3557 81.6118C89.3642 81.6076 89.3736 81.6033 89.3821 81.5991C89.3903 81.595 89.3992 81.5906 89.4075 81.5864C89.4159 81.5822 89.4254 81.577 89.4338 81.5728C89.4421 81.5686 89.451 81.5642 89.4592 81.5601C89.4676 81.5558 89.4772 81.5516 89.4856 81.5474C89.494 81.5432 89.5026 81.5379 89.511 81.5337C89.5194 81.5295 89.5289 81.5252 89.5374 81.521L89.5881 81.4956C89.5964 81.4914 89.6052 81.4861 89.6135 81.4819C89.6219 81.4777 89.6315 81.4734 89.6399 81.4692L89.8684 81.355C89.8764 81.351 89.8848 81.3463 89.8928 81.3423L89.9436 81.3169C89.9516 81.3129 89.96 81.3082 89.968 81.3042C89.9761 81.3001 89.9853 81.2956 89.9934 81.2915C90.0013 81.2876 90.01 81.2837 90.0178 81.2798C90.0259 81.2757 90.0351 81.2712 90.0432 81.2671C90.0512 81.2631 90.0596 81.2584 90.0676 81.2544C90.0757 81.2503 90.0849 81.2458 90.093 81.2417C90.1009 81.2377 90.1096 81.2339 90.1174 81.23C90.1254 81.226 90.1339 81.2213 90.1418 81.2173C90.1499 81.2133 90.1592 81.2086 90.1672 81.2046C90.1751 81.2006 90.1838 81.1968 90.1917 81.1929L90.2405 81.1675C90.2483 81.1635 90.257 81.1597 90.2649 81.1558C90.2728 81.1518 90.2814 81.1471 90.2893 81.1431C90.2972 81.1391 90.3059 81.1353 90.3137 81.1313C90.3216 81.1274 90.3302 81.1226 90.3381 81.1187C90.346 81.1147 90.3547 81.1109 90.3625 81.1069C90.3704 81.103 90.3791 81.0982 90.387 81.0942C90.3946 81.0904 90.4028 81.0863 90.4104 81.0825C90.4182 81.0786 90.427 81.0738 90.4348 81.0698C90.4426 81.0659 90.4514 81.062 90.4592 81.0581C90.4668 81.0543 90.4751 81.0502 90.4827 81.0464C90.4905 81.0425 90.4993 81.0376 90.5071 81.0337C90.5147 81.0299 90.5229 81.0258 90.5305 81.022C90.5383 81.0181 90.5472 81.0141 90.5549 81.0103C90.5627 81.0064 90.5707 81.0015 90.5784 80.9976C90.5861 80.9937 90.595 80.9897 90.6028 80.9858L90.72 80.9272C90.7275 80.9234 90.7359 80.9184 90.7434 80.9146L90.8372 80.8677C90.8446 80.8639 90.8531 80.8606 90.8606 80.8569C90.8679 80.8532 90.8757 80.8489 90.8831 80.8452L90.9299 80.8218C90.9373 80.8181 90.9451 80.8138 90.9524 80.8101C90.9598 80.8063 90.9684 80.8021 90.9758 80.7983C90.983 80.7947 90.9911 80.7912 90.9983 80.7876C91.0057 80.7839 91.0143 80.7796 91.0217 80.7759L91.0667 80.7524C91.0739 80.7488 91.0819 80.7453 91.0891 80.7417C91.0964 80.7381 91.1043 80.7336 91.1116 80.73C91.1187 80.7264 91.1269 80.7228 91.134 80.7192L91.179 80.6968C91.1861 80.6932 91.1942 80.6887 91.2014 80.6851C91.2085 80.6815 91.2167 80.6779 91.2239 80.6743C91.2311 80.6707 91.2391 80.6662 91.2463 80.6626C91.2535 80.659 91.2616 80.6554 91.2688 80.6519C91.2759 80.6483 91.2832 80.6437 91.2903 80.6401L91.3352 80.6187C91.3423 80.6151 91.3497 80.6105 91.3567 80.6069C91.3636 80.6034 91.3712 80.5997 91.3782 80.5962C91.3853 80.5926 91.3935 80.589 91.4006 80.5854C91.4076 80.582 91.4152 80.5782 91.4221 80.5747C91.4291 80.5712 91.4366 80.5665 91.4436 80.563C91.4506 80.5595 91.459 80.5558 91.4661 80.5522L91.5735 80.4985C91.5802 80.4952 91.5873 80.4912 91.594 80.4878L91.6584 80.4556C91.665 80.4523 91.6724 80.4491 91.679 80.4458C91.6858 80.4424 91.6936 80.4385 91.7004 80.4351L91.7415 80.4136C91.7482 80.4102 91.7562 80.4071 91.7629 80.4038L91.804 80.3823C91.8105 80.379 91.8179 80.3758 91.8245 80.3726C91.8311 80.3692 91.8384 80.3652 91.845 80.3618C91.8515 80.3585 91.859 80.3553 91.8655 80.3521C91.8721 80.3487 91.8794 80.3446 91.886 80.3413C91.8925 80.338 91.9 80.3348 91.9065 80.3315C91.9131 80.3282 91.9204 80.3241 91.927 80.3208C91.9335 80.3175 91.941 80.3143 91.9475 80.311C91.954 80.3078 91.9606 80.3036 91.967 80.3003C91.9735 80.297 91.981 80.2938 91.9875 80.2905C91.9939 80.2874 92.0008 80.2839 92.0071 80.2808C92.0135 80.2775 92.0211 80.2742 92.0276 80.271C92.034 80.2678 92.0407 80.2635 92.0471 80.2603C92.0535 80.257 92.0612 80.2537 92.0676 80.2505L92.2239 80.1724C92.2299 80.1693 92.2364 80.1657 92.2424 80.1626C92.2486 80.1595 92.2558 80.1559 92.262 80.1528C92.268 80.1498 92.2745 80.1461 92.2805 80.1431C92.2867 80.14 92.2939 80.1364 92.3 80.1333C92.306 80.1303 92.3127 80.1275 92.3186 80.1245C92.3247 80.1214 92.332 80.1178 92.3381 80.1147C92.3442 80.1117 92.3507 80.108 92.3567 80.105C92.3626 80.102 92.3693 80.0991 92.3752 80.0962L92.4124 80.0767C92.4182 80.0737 92.425 80.0708 92.4309 80.0679C92.4368 80.0649 92.4435 80.0611 92.4495 80.0581C92.4553 80.0552 92.4621 80.0522 92.468 80.0493C92.4739 80.0463 92.4807 80.0425 92.4866 80.0396C92.4924 80.0366 92.4993 80.0337 92.5051 80.0308C92.5108 80.0279 92.5171 80.0248 92.5227 80.022C92.5286 80.019 92.5354 80.0152 92.5413 80.0122C92.5469 80.0094 92.5532 80.0063 92.5588 80.0034C92.5646 80.0005 92.5716 79.9975 92.5774 79.9946L92.6125 79.9771C92.6182 79.9742 92.6245 79.9702 92.6301 79.9673C92.6358 79.9644 92.6429 79.9613 92.6487 79.9585L92.6838 79.9409C92.6892 79.9382 92.6951 79.9349 92.7004 79.9321L92.7356 79.9146C92.7411 79.9118 92.7477 79.9094 92.7532 79.9067C92.7586 79.904 92.7644 79.9007 92.7698 79.8979C92.7753 79.8952 92.7818 79.8919 92.7874 79.8892C92.7928 79.8864 92.7986 79.8831 92.804 79.8804C92.8094 79.8776 92.8161 79.8743 92.8215 79.8716C92.8268 79.8689 92.8329 79.8664 92.8381 79.8638C92.8435 79.8611 92.8494 79.8577 92.8547 79.855C92.86 79.8523 92.8661 79.8498 92.8713 79.8472L92.9045 79.8296L92.9377 79.814C92.9429 79.8114 92.9483 79.8078 92.9534 79.8052L92.9866 79.7896C92.9917 79.787 92.9971 79.7834 93.0022 79.7808C93.0073 79.7782 93.0136 79.7755 93.0188 79.7729L93.0657 79.7495C93.0707 79.747 93.0763 79.7433 93.0813 79.7407L93.1282 79.7173C93.1331 79.7148 93.1389 79.7128 93.1438 79.7104C93.1487 79.708 93.1545 79.7051 93.1594 79.7026C93.1642 79.7003 93.1694 79.6972 93.1741 79.6948C93.1789 79.6924 93.1848 79.6895 93.1897 79.687C93.1944 79.6846 93.1996 79.6816 93.2043 79.6792C93.209 79.6769 93.2144 79.6746 93.219 79.6724C93.2238 79.67 93.2298 79.667 93.2346 79.6646C93.2393 79.6622 93.2446 79.6591 93.2493 79.6567C93.2539 79.6544 93.2593 79.6522 93.2639 79.6499C93.2686 79.6475 93.2739 79.6445 93.2786 79.6421C93.2832 79.6398 93.2886 79.6375 93.2932 79.6353C93.2979 79.6329 93.3032 79.6298 93.3079 79.6274C93.3124 79.6252 93.318 79.6228 93.3225 79.6206C93.327 79.6184 93.3317 79.6151 93.3362 79.6128C93.3407 79.6105 93.3463 79.6082 93.3508 79.606C93.3552 79.6038 93.3602 79.6013 93.3645 79.5991C93.369 79.5969 93.3746 79.5945 93.3792 79.5923C93.3836 79.5901 93.3884 79.5868 93.3928 79.5845L93.4202 79.5708C93.4246 79.5686 93.4304 79.5662 93.4348 79.564C93.439 79.5618 93.4442 79.5593 93.4485 79.5571C93.4526 79.5551 93.4571 79.5524 93.4612 79.5503L93.5022 79.5298C93.5062 79.5278 93.5109 79.5259 93.5149 79.5239C93.5191 79.5218 93.5243 79.5192 93.5286 79.5171L93.554 79.5034C93.5579 79.5014 93.5627 79.4995 93.5667 79.4976C93.5707 79.4955 93.5762 79.4928 93.5803 79.4907C93.5842 79.4888 93.5891 79.4868 93.593 79.4849C93.597 79.4829 93.6018 79.4801 93.6057 79.478C93.6094 79.4762 93.6137 79.474 93.6174 79.4722C93.6214 79.4702 93.6262 79.4674 93.6301 79.4653C93.634 79.4634 93.6389 79.4614 93.6428 79.4595C93.6465 79.4576 93.6508 79.4555 93.6545 79.4536C93.6584 79.4517 93.6633 79.4488 93.6672 79.4468L93.6907 79.4351C93.6945 79.4332 93.6995 79.4311 93.7034 79.4292L93.7502 79.4058C93.7537 79.404 93.7576 79.4017 93.761 79.3999L93.7844 79.3882C93.7877 79.3865 93.7918 79.3849 93.7952 79.3833C93.7986 79.3816 93.8025 79.3792 93.8059 79.3774C93.8094 79.3757 93.8141 79.3734 93.8176 79.3716C93.8209 79.3699 93.825 79.3683 93.8284 79.3667L93.8499 79.355L93.8713 79.3452C93.8745 79.3436 93.878 79.341 93.8811 79.3394L93.9026 79.3296C93.9057 79.328 93.9093 79.3254 93.9124 79.3237C93.9154 79.3222 93.9191 79.3204 93.9221 79.3188C93.9253 79.3173 93.9297 79.3155 93.9329 79.314L93.9719 79.2944C93.9747 79.293 93.9779 79.291 93.9807 79.2896L94.0002 79.2798C94.0029 79.2784 94.0064 79.2772 94.009 79.2759C94.0118 79.2745 94.0151 79.2724 94.0178 79.271C94.0207 79.2696 94.0247 79.2676 94.0276 79.2661C94.0302 79.2648 94.0337 79.2635 94.0364 79.2622C94.0391 79.2608 94.0424 79.2587 94.0452 79.2573C94.0478 79.256 94.0513 79.2547 94.054 79.2534C94.0566 79.2521 94.0601 79.2499 94.0627 79.2485C94.0652 79.2473 94.0682 79.2458 94.0706 79.2446C94.0732 79.2433 94.0767 79.2411 94.0793 79.2397C94.0819 79.2385 94.0855 79.2371 94.0881 79.2358C94.0905 79.2346 94.0935 79.2331 94.0959 79.2319C94.0985 79.2307 94.1021 79.2293 94.1047 79.228C94.1071 79.2268 94.1101 79.2253 94.1125 79.2241C94.115 79.2229 94.1179 79.2206 94.1204 79.2192L94.1438 79.2075C94.146 79.2064 94.1493 79.2056 94.1516 79.2046C94.1538 79.2035 94.1563 79.2018 94.1584 79.2007C94.1607 79.1995 94.1639 79.1979 94.1663 79.1968C94.1684 79.1957 94.171 79.194 94.1731 79.1929C94.1753 79.1918 94.1786 79.1901 94.1809 79.189C94.1829 79.188 94.1857 79.187 94.1877 79.186C94.1899 79.185 94.1925 79.1833 94.1946 79.1821C94.1966 79.1811 94.1994 79.1801 94.2014 79.1792C94.2035 79.1782 94.2062 79.1764 94.2083 79.1753C94.2103 79.1743 94.2131 79.1733 94.2151 79.1724C94.2171 79.1714 94.2199 79.1695 94.2219 79.1685C94.2237 79.1676 94.226 79.1664 94.2278 79.1655C94.2297 79.1646 94.2326 79.1635 94.2346 79.1626C94.2364 79.1617 94.2387 79.1605 94.2405 79.1597C94.2423 79.1588 94.2446 79.1568 94.2463 79.1558C94.2482 79.1548 94.2512 79.1537 94.2532 79.1528L94.2708 79.144C94.2723 79.1433 94.2742 79.1419 94.2756 79.1411C94.2772 79.1403 94.2798 79.1398 94.2815 79.1392C94.2831 79.1383 94.2857 79.1371 94.2874 79.1362L94.2971 79.1304C94.2986 79.1296 94.3013 79.1291 94.303 79.1284C94.3044 79.1277 94.3064 79.1263 94.3079 79.1255C94.3092 79.1248 94.3113 79.1241 94.3127 79.1235C94.3142 79.1228 94.3162 79.1214 94.3176 79.1206C94.3189 79.1199 94.3211 79.1192 94.3225 79.1187C94.3238 79.118 94.3253 79.1165 94.3264 79.1157C94.3277 79.1151 94.3299 79.1144 94.3313 79.1138C94.3324 79.1132 94.3341 79.1124 94.3352 79.1118C94.3364 79.1112 94.3387 79.1104 94.3401 79.1099C94.3413 79.1093 94.3428 79.1077 94.344 79.1069L94.3635 79.0972L94.3665 79.0962C94.3674 79.0957 94.3693 79.0948 94.3704 79.0942L94.3733 79.0923C94.3742 79.0918 94.3761 79.0916 94.3772 79.0913L94.3831 79.0874L94.3889 79.0854L94.3909 79.0835L94.3938 79.0825L94.3958 79.0815L94.3987 79.0796L94.4104 79.0737H94.4114L94.4133 79.0728L94.4143 79.0718H94.4153L94.4163 79.0708H94.4172L94.4182 79.0698H94.4192L94.4202 79.0688H94.4211L94.4319 79.063L94.4436 79.0571L94.4446 79.0562C94.4454 79.0557 94.4471 79.0549 94.4485 79.0542C94.4516 79.0525 94.4572 79.0496 94.4631 79.0464C94.4753 79.0397 94.494 79.0297 94.5168 79.0171C94.5634 78.9914 94.6319 78.953 94.718 78.9048C94.891 78.808 95.1388 78.6684 95.4368 78.4956C96.0326 78.1501 96.836 77.6696 97.6614 77.1353C98.4838 76.6027 99.3437 76.0062 100.044 75.4272C100.394 75.138 100.717 74.8424 100.979 74.5532C101.232 74.2739 101.472 73.9541 101.6 73.6128C101.68 73.3998 101.83 73.1055 102.042 72.7085C102.245 72.3286 102.494 71.8744 102.728 71.3921C103.189 70.4414 103.655 69.2649 103.656 68.0913C103.656 66.0373 103.59 65.7464 103.655 64.5288C103.677 64.1153 103.359 63.7618 102.946 63.7397Z" fill="#4B3C25"/>
</g>
<defs>
<filter id="filter0_n_346_2326" x="43.6425" y="42.9392" width="81.3572" height="82.0603" filterUnits="userSpaceOnUse" color-interpolation-filters="sRGB">
<feFlood flood-opacity="0" result="BackgroundImageFix"/>
<feBlend mode="normal" in="SourceGraphic" in2="BackgroundImageFix" result="shape"/>
<feTurbulence type="fractalNoise" baseFrequency="2 2" stitchTiles="stitch" numOctaves="3" result="noise" seed="7750" />
<feColorMatrix in="noise" type="luminanceToAlpha" result="alphaNoise" />
<feComponentTransfer in="alphaNoise" result="coloredNoise1">
<feFuncA type="discrete" tableValues="1 1 1 1 1 1 1 1 1 1 1 1 1 1 1 1 1 1 1 1 1 1 1 1 1 1 1 1 1 1 1 1 1 1 1 1 1 1 1 1 1 1 1 1 1 1 1 1 1 1 1 0 0 0 0 0 0 0 0 0 0 0 0 0 0 0 0 0 0 0 0 0 0 0 0 0 0 0 0 0 0 0 0 0 0 0 0 0 0 0 0 0 0 0 0 0 0 0 0 0 "/>
</feComponentTransfer>
<feComposite operator="in" in2="shape" in="coloredNoise1" result="noise1Clipped" />
<feFlood flood-color="rgba(0, 0, 0, 0.25)" result="color1Flood" />
<feComposite operator="in" in2="noise1Clipped" in="color1Flood" result="color1" />
<feMerge result="effect1_noise_346_2326">
<feMergeNode in="shape" />
<feMergeNode in="color1" />
</feMerge>
</filter>
</defs>
</svg>
