<svg width="96" height="96" viewBox="0 0 96 96" fill="none" xmlns="http://www.w3.org/2000/svg">
<rect width="96" height="96" fill="#FCF6E5"/>
<path d="M29.4854 14.7874C44.1631 7.94189 52.5877 22.7324 54.2773 26.0217L43.1748 29.3147C43.1748 29.3147 40.3198 30.8523 37.3086 32.9172C36.7652 30.3242 35.3322 28.3065 34.3203 25.9895C34.2334 25.8209 34.1503 25.6599 34.0596 25.4895C33.9344 25.2545 33.7241 25.0828 33.4678 25.0168C33.2117 24.9507 32.9307 24.9961 32.6934 25.1379C32.4563 25.2798 32.2831 25.5064 32.2188 25.7639C32.1542 26.0216 32.2038 26.2894 32.3496 26.512C32.4425 26.6533 32.5405 26.8079 32.6377 26.9612C33.905 29.068 35.5175 31.5278 36.2148 33.6858C34.3522 35.0338 32.5553 36.5381 31.4639 37.9592C28.3962 41.9537 25.853 47.1552 25.1133 52.967C24.376 58.7598 26.9547 67.7944 26.9717 67.8538C15.3604 59.7395 3.6931 26.8169 29.4854 14.7874Z" fill="#4B3C25"/>
<g filter="url(#filter0_n_346_2327)">
<path d="M39.5582 39.4062C50.7878 27.8235 67.4854 25.9335 76.8531 35.1846C86.2209 44.4358 84.7116 61.3252 73.4821 72.9082C62.2524 84.4912 45.5549 86.3812 36.1871 77.1299C26.8197 67.8785 28.3287 50.9891 39.5582 39.4062ZM68.6578 42.665C68.2446 42.6435 67.8919 42.9608 67.8698 43.374C67.8256 44.2056 67.8688 44.5351 67.8688 45.7715C67.8684 46.2439 67.6718 46.8001 67.3873 47.3896C67.2485 47.6773 67.1022 47.9471 66.9635 48.208C66.8339 48.4518 66.6938 48.7184 66.608 48.9482C66.6058 48.9532 66.5963 48.9733 66.5729 49.0078C66.5447 49.0493 66.5026 49.1031 66.4449 49.167C66.3282 49.2964 66.1666 49.4482 65.9655 49.6152C65.5627 49.9497 65.0477 50.3095 64.5299 50.6465C64.015 50.9815 63.5102 51.2853 63.1334 51.5049C62.9458 51.6142 62.79 51.703 62.6823 51.7637C62.6288 51.7938 62.5864 51.8174 62.5582 51.833C62.5483 51.8385 62.5392 51.8432 62.5328 51.8467L62.5319 51.8477H62.5309L62.5299 51.8486H62.5289L62.528 51.8496L62.526 51.8506H62.525L62.5231 51.8516L62.5221 51.8525C62.5208 51.8532 62.5191 51.854 62.5182 51.8545H62.5172L62.5074 51.8594L62.5055 51.8613L62.5026 51.8623L62.4987 51.8643L62.4957 51.8652L62.4938 51.8672L62.4879 51.8691L62.485 51.8711L62.483 51.8721L62.4801 51.874L62.4772 51.875L62.4742 51.877C62.4733 51.8772 62.4713 51.8775 62.4703 51.8779L62.4645 51.8818L62.4615 51.8828C62.4605 51.8833 62.4586 51.8843 62.4576 51.8848L62.4547 51.8867C62.4537 51.8872 62.4518 51.8882 62.4508 51.8887L62.4479 51.8896L62.4127 51.9072C62.4116 51.908 62.41 51.9095 62.4088 51.9102C62.4075 51.9107 62.4052 51.9115 62.4039 51.9121C62.4029 51.9126 62.4011 51.9135 62.4 51.9141C62.3987 51.9146 62.3965 51.9154 62.3951 51.916C62.394 51.9168 62.3925 51.9183 62.3912 51.9189L62.3815 51.9229C62.3801 51.9236 62.378 51.9251 62.3766 51.9258C62.3755 51.9263 62.3738 51.9272 62.3727 51.9277C62.3713 51.9285 62.3692 51.9299 62.3678 51.9307C62.3665 51.9312 62.3643 51.932 62.3629 51.9326C62.3615 51.9334 62.3594 51.9348 62.358 51.9355C62.3567 51.9361 62.3545 51.9369 62.3531 51.9375C62.3516 51.9383 62.3488 51.9397 62.3473 51.9404C62.3459 51.9412 62.3438 51.9426 62.3424 51.9434C62.3411 51.944 62.3389 51.9446 62.3375 51.9453C62.3359 51.9461 62.3333 51.9474 62.3317 51.9482C62.3303 51.949 62.3283 51.9504 62.3268 51.9512C62.3252 51.952 62.3225 51.9533 62.3209 51.9541C62.3196 51.9547 62.3174 51.9554 62.316 51.9561C62.3144 51.9569 62.3118 51.9581 62.3102 51.959C62.3088 51.9598 62.3068 51.9611 62.3053 51.9619L62.2584 51.9854C62.2565 51.9864 62.2535 51.9883 62.2516 51.9893C62.2499 51.9901 62.2475 51.9913 62.2457 51.9922C62.2438 51.9931 62.2408 51.9942 62.2389 51.9951C62.2372 51.996 62.2348 51.9972 62.233 51.998C62.2311 51.9991 62.2281 52.001 62.2262 52.002C62.2245 52.0028 62.2221 52.004 62.2203 52.0049C62.2184 52.0058 62.2155 52.0068 62.2135 52.0078C62.2115 52.0089 62.2086 52.0107 62.2067 52.0117C62.205 52.0126 62.2026 52.0138 62.2008 52.0146C62.1988 52.0157 62.196 52.0175 62.194 52.0186C62.192 52.0195 62.1892 52.0205 62.1871 52.0215C62.1851 52.0226 62.1824 52.0243 62.1803 52.0254C62.1783 52.0263 62.1755 52.0273 62.1735 52.0283C62.1714 52.0294 62.1687 52.0311 62.1666 52.0322C62.1646 52.0332 62.1618 52.0342 62.1598 52.0352C62.1576 52.0363 62.1542 52.038 62.152 52.0391C62.15 52.0401 62.1472 52.0419 62.1451 52.043C62.1431 52.0439 62.1403 52.0449 62.1383 52.0459C62.1361 52.047 62.1327 52.0487 62.1305 52.0498C62.1284 52.0509 62.1258 52.0526 62.1237 52.0537C62.1214 52.0548 62.1181 52.0565 62.1158 52.0576C62.1138 52.0586 62.111 52.0596 62.109 52.0605L62.0934 52.0684C62.0913 52.0695 62.0887 52.0712 62.0865 52.0723L62.0319 52.0996C62.0293 52.1009 62.0256 52.1032 62.0231 52.1045L62.0074 52.1123C62.0049 52.1135 62.0012 52.1149 61.9987 52.1162C61.9963 52.1174 61.9932 52.1189 61.9908 52.1201C61.9883 52.1215 61.9846 52.1237 61.9821 52.125C61.9797 52.1262 61.9766 52.1277 61.9742 52.1289C61.9716 52.1302 61.968 52.1315 61.9655 52.1328C61.9628 52.1342 61.9593 52.1363 61.9567 52.1377C61.9543 52.1389 61.9512 52.1404 61.9489 52.1416C61.9462 52.143 61.9427 52.1451 61.9401 52.1465C61.9374 52.1478 61.9339 52.1491 61.9313 52.1504C61.9286 52.1518 61.9252 52.1539 61.9225 52.1553C61.9198 52.1565 61.9164 52.1579 61.9137 52.1592C61.911 52.1606 61.9076 52.1627 61.9049 52.1641C61.9023 52.1653 61.8988 52.1666 61.8961 52.168C61.8934 52.1694 61.89 52.1715 61.8873 52.1729C61.8845 52.1743 61.8804 52.1763 61.8776 52.1777C61.8749 52.179 61.8714 52.1803 61.8688 52.1816L61.8512 52.1914C61.8483 52.1929 61.8443 52.1948 61.8414 52.1963C61.8388 52.1976 61.8353 52.1989 61.8326 52.2002L61.8131 52.21C61.8104 52.2114 61.8071 52.2134 61.8043 52.2148L61.775 52.2295C61.7723 52.2309 61.769 52.233 61.7662 52.2344L61.7369 52.249C61.7338 52.2506 61.7293 52.2524 61.7262 52.2539L61.6969 52.2686C61.6938 52.2702 61.6902 52.2728 61.6871 52.2744C61.6839 52.276 61.6796 52.2777 61.6764 52.2793C61.6734 52.2808 61.6697 52.2826 61.6666 52.2842C61.6634 52.2858 61.6591 52.2875 61.6559 52.2891C61.6528 52.2907 61.6493 52.2933 61.6461 52.2949C61.6429 52.2965 61.6386 52.2982 61.6354 52.2998C61.6324 52.3013 61.6287 52.3032 61.6256 52.3047C61.6223 52.3064 61.6181 52.3089 61.6149 52.3105C61.6116 52.3121 61.6074 52.3138 61.6041 52.3154C61.6009 52.3171 61.5967 52.3196 61.5934 52.3213C61.5904 52.3228 61.5867 52.3246 61.5836 52.3262C61.5803 52.3279 61.5762 52.3303 61.5729 52.332C61.5696 52.3336 61.5654 52.3353 61.5621 52.3369C61.5588 52.3386 61.5548 52.3411 61.5514 52.3428C61.5481 52.3444 61.544 52.346 61.5406 52.3477C61.5373 52.3494 61.5333 52.3518 61.5299 52.3535C61.5267 52.3551 61.5224 52.3568 61.5192 52.3584C61.5157 52.3601 61.5109 52.3625 61.5074 52.3643C61.5041 52.366 61.5001 52.3684 61.4967 52.3701C61.4934 52.3717 61.4893 52.3733 61.486 52.375C61.4825 52.3768 61.4777 52.3791 61.4742 52.3809L61.4528 52.3926C61.4492 52.3943 61.4446 52.3957 61.441 52.3975C61.4377 52.3992 61.4337 52.4016 61.4303 52.4033L61.4069 52.415C61.4035 52.4168 61.3995 52.4192 61.3961 52.4209L61.2672 52.4854C61.2635 52.4873 61.2592 52.4903 61.2555 52.4922C61.2517 52.4941 61.2466 52.4961 61.2428 52.498L61.2194 52.5098C61.2155 52.5117 61.2105 52.5146 61.2067 52.5166C61.203 52.5184 61.1986 52.5206 61.1949 52.5225C61.1911 52.5244 61.1861 52.5264 61.1823 52.5283C61.1784 52.5303 61.1735 52.5332 61.1696 52.5352C61.1659 52.537 61.1615 52.5392 61.1578 52.541C61.1539 52.5429 61.149 52.5449 61.1451 52.5469C61.1412 52.5489 61.1364 52.5517 61.1324 52.5537C61.1288 52.5556 61.1244 52.5577 61.1207 52.5596C61.1168 52.5616 61.112 52.5644 61.108 52.5664C61.1041 52.5683 61.0993 52.5703 61.0953 52.5723C61.0914 52.5743 61.0866 52.5771 61.0826 52.5791C61.0787 52.581 61.0739 52.583 61.0699 52.585C61.066 52.587 61.0613 52.5898 61.0573 52.5918C61.0533 52.5937 61.0485 52.5957 61.0446 52.5977L61.0192 52.6113C61.0152 52.6133 61.0104 52.6152 61.0065 52.6172C61.0023 52.6193 60.9969 52.622 60.9928 52.624C60.9888 52.6261 60.9841 52.6288 60.9801 52.6309C60.9762 52.6328 60.9714 52.6347 60.9674 52.6367C60.9632 52.6388 60.9579 52.6415 60.9537 52.6436L60.9283 52.6572C60.9242 52.6592 60.9188 52.661 60.9147 52.6631C60.9105 52.6652 60.9052 52.6678 60.901 52.6699C60.897 52.672 60.8924 52.6747 60.8883 52.6768C60.8841 52.6789 60.8789 52.6815 60.8746 52.6836C60.8706 52.6857 60.866 52.6884 60.8619 52.6904L60.8209 52.7109C60.8169 52.713 60.8123 52.7157 60.8082 52.7178L60.7125 52.7656C60.7081 52.7678 60.7023 52.7702 60.6979 52.7725C60.6936 52.7746 60.6885 52.7771 60.6842 52.7793C60.6798 52.7816 60.6749 52.7849 60.6705 52.7871C60.6662 52.7893 60.6612 52.7918 60.6569 52.7939C60.6524 52.7962 60.6467 52.7985 60.6422 52.8008C60.6379 52.803 60.6329 52.8054 60.6285 52.8076C60.6242 52.8099 60.6193 52.8132 60.6149 52.8154C60.6104 52.8177 60.6047 52.82 60.6002 52.8223C60.5959 52.8244 60.5909 52.8269 60.5865 52.8291C60.582 52.8314 60.5764 52.8346 60.5719 52.8369C60.5676 52.8391 60.5626 52.8416 60.5582 52.8438C60.5537 52.846 60.5481 52.8483 60.5436 52.8506C60.539 52.8529 60.5335 52.8561 60.5289 52.8584C60.5246 52.8606 60.5196 52.863 60.5153 52.8652C60.5107 52.8675 60.5051 52.8698 60.5006 52.8721C60.496 52.8744 60.4906 52.8776 60.486 52.8799C60.4814 52.8821 60.4759 52.8844 60.4713 52.8867C60.4669 52.889 60.4621 52.8923 60.4576 52.8945C60.4531 52.8968 60.4475 52.8991 60.443 52.9014C60.4384 52.9037 60.4329 52.9068 60.4283 52.9092C60.4238 52.9114 60.4183 52.9137 60.4137 52.916L60.3844 52.9316C60.3798 52.9339 60.3743 52.9362 60.3698 52.9385C60.3651 52.9408 60.3597 52.9439 60.3551 52.9463C60.3506 52.9485 60.345 52.9508 60.3405 52.9531C60.3357 52.9555 60.3296 52.9585 60.3248 52.9609C60.3202 52.9633 60.3148 52.9664 60.3102 52.9688C60.3056 52.971 60.3001 52.9733 60.2955 52.9756C60.2909 52.9779 60.2855 52.981 60.2809 52.9834C60.2761 52.9858 60.27 52.9888 60.2653 52.9912C60.2606 52.9936 60.2553 52.9967 60.2506 52.999C60.246 53.0013 60.2406 53.0036 60.236 53.0059C60.2311 53.0083 60.2252 53.0112 60.2203 53.0137C60.2156 53.0161 60.2104 53.0191 60.2057 53.0215C60.2008 53.0239 60.1949 53.0269 60.1901 53.0293C60.1854 53.0317 60.1801 53.0347 60.1754 53.0371C60.1706 53.0396 60.1646 53.0425 60.1598 53.0449C60.155 53.0473 60.149 53.0494 60.1442 53.0518C60.1395 53.0542 60.1342 53.0572 60.1295 53.0596L60.0983 53.0752C60.0936 53.0776 60.0883 53.0806 60.0836 53.083L60.0211 53.1143C60.0164 53.1167 60.0112 53.1197 60.0065 53.1221L59.944 53.1533C59.9389 53.1558 59.9324 53.1586 59.9274 53.1611C59.9224 53.1637 59.9167 53.1674 59.9117 53.1699L59.8492 53.2012C59.8441 53.2037 59.8377 53.2064 59.8326 53.209C59.8276 53.2116 59.8221 53.2152 59.817 53.2178C59.8121 53.2203 59.8064 53.2231 59.8014 53.2256C59.7963 53.2281 59.7899 53.2308 59.7848 53.2334C59.7797 53.236 59.7742 53.2396 59.7692 53.2422C59.764 53.2447 59.7577 53.2474 59.7526 53.25C59.7476 53.2525 59.7419 53.2553 59.7369 53.2578C59.7318 53.2604 59.7255 53.263 59.7203 53.2656C59.7153 53.2682 59.7098 53.2718 59.7047 53.2744C59.6995 53.277 59.6933 53.2796 59.6881 53.2822C59.683 53.2848 59.6776 53.2884 59.6725 53.291C59.6673 53.2936 59.6611 53.2962 59.6559 53.2988C59.6509 53.3013 59.6452 53.3041 59.6403 53.3066C59.6351 53.3093 59.6289 53.3128 59.6237 53.3154C59.6184 53.318 59.6123 53.3206 59.6071 53.3232C59.6018 53.3259 59.5957 53.3294 59.5905 53.332C59.5855 53.3345 59.5798 53.3373 59.5748 53.3398C59.5696 53.3425 59.5635 53.346 59.5582 53.3486C59.553 53.3512 59.5469 53.3538 59.5416 53.3564C59.5364 53.3591 59.5303 53.3626 59.525 53.3652C59.5198 53.3678 59.5136 53.3704 59.5084 53.373C59.5032 53.3757 59.4971 53.3792 59.4918 53.3818C59.4867 53.3844 59.4804 53.3871 59.4752 53.3896C59.47 53.3923 59.4638 53.3958 59.4586 53.3984C59.4534 53.401 59.4472 53.4036 59.442 53.4062C59.4368 53.4089 59.4307 53.4124 59.4254 53.415C59.4202 53.4176 59.414 53.4202 59.4088 53.4229L59.3756 53.4404C59.3704 53.443 59.3643 53.4456 59.359 53.4482L59.3258 53.4658C59.3204 53.4685 59.3136 53.4709 59.3082 53.4736L59.2584 53.5C59.253 53.5027 59.2463 53.5051 59.2408 53.5078C59.2355 53.5105 59.2296 53.5139 59.2242 53.5166C59.2188 53.5194 59.2121 53.5226 59.2067 53.5254C59.2014 53.5281 59.1954 53.5315 59.1901 53.5342C59.1848 53.5368 59.1787 53.5394 59.1735 53.542C59.168 53.5448 59.1614 53.548 59.1559 53.5508C59.1505 53.5535 59.1446 53.5569 59.1393 53.5596C59.1338 53.5623 59.1272 53.5656 59.1217 53.5684C59.1164 53.5711 59.1105 53.5744 59.1051 53.5771L59.0699 53.5947C59.0647 53.5973 59.0586 53.5999 59.0533 53.6025C59.0478 53.6053 59.0413 53.6085 59.0358 53.6113C59.0304 53.614 59.0245 53.6174 59.0192 53.6201L58.9664 53.6465C58.9611 53.6492 58.9552 53.6526 58.9498 53.6553L58.8619 53.6992C58.8566 53.7019 58.8507 53.7053 58.8453 53.708L58.7574 53.752C58.7519 53.7548 58.7455 53.7589 58.7399 53.7617C58.7343 53.7645 58.7279 53.7677 58.7223 53.7705C58.7166 53.7734 58.7094 53.7764 58.7037 53.7793L58.6334 53.8145C58.6278 53.8174 58.6215 53.8213 58.6158 53.8242C58.6101 53.8271 58.603 53.8301 58.5973 53.833L58.5446 53.8594C58.5388 53.8623 58.5317 53.8662 58.526 53.8691L58.4908 53.8867C58.4851 53.8896 58.4781 53.8926 58.4723 53.8955C58.4666 53.8984 58.4604 53.9024 58.4547 53.9053C58.4491 53.9081 58.4428 53.9112 58.4371 53.9141C58.4313 53.917 58.4244 53.9199 58.4186 53.9229C58.4129 53.9258 58.4068 53.9297 58.401 53.9326C58.3952 53.9355 58.3882 53.9385 58.3824 53.9414C58.3768 53.9442 58.3705 53.9474 58.3649 53.9502C58.3591 53.9532 58.3521 53.957 58.3463 53.96C58.3407 53.9628 58.3344 53.9659 58.3287 53.9688C58.3229 53.9717 58.316 53.9746 58.3102 53.9775C58.3045 53.9805 58.2984 53.9844 58.2926 53.9873L58.2555 54.0049C58.2498 54.0078 58.2437 54.0117 58.2379 54.0146C58.2321 54.0176 58.2252 54.0205 58.2194 54.0234C58.2136 54.0264 58.2075 54.0303 58.2018 54.0332L58.1647 54.0508C58.1589 54.0537 58.1528 54.0576 58.1471 54.0605C58.1413 54.0634 58.1343 54.0664 58.1285 54.0693C58.1227 54.0723 58.1159 54.0761 58.11 54.0791C58.1042 54.082 58.0973 54.085 58.0914 54.0879C58.0857 54.0908 58.0796 54.0947 58.0739 54.0977C58.068 54.1006 58.0611 54.1035 58.0553 54.1064C58.0494 54.1094 58.0426 54.1132 58.0367 54.1162C58.0309 54.1191 58.0241 54.1221 58.0182 54.125C58.0123 54.128 58.0055 54.1318 57.9996 54.1348C57.994 54.1376 57.9877 54.1407 57.9821 54.1436C57.9762 54.1465 57.9694 54.1504 57.9635 54.1533C57.9577 54.1562 57.9508 54.1592 57.9449 54.1621C57.939 54.1651 57.9323 54.1689 57.9264 54.1719C57.9205 54.1748 57.9137 54.1777 57.9078 54.1807C57.9019 54.1837 57.8952 54.1874 57.8893 54.1904C57.8834 54.1934 57.8766 54.1963 57.8707 54.1992L57.8336 54.2188C57.8278 54.2217 57.8209 54.2246 57.8151 54.2275C57.8091 54.2306 57.8024 54.2343 57.7965 54.2373C57.7906 54.2402 57.7838 54.2431 57.778 54.2461L57.7408 54.2656C57.735 54.2686 57.7282 54.2715 57.7223 54.2744C57.7163 54.2774 57.7097 54.2812 57.7037 54.2842C57.6978 54.2871 57.6911 54.29 57.6852 54.293L57.6481 54.3125C57.6422 54.3154 57.6354 54.3183 57.6295 54.3213C57.6235 54.3243 57.616 54.328 57.61 54.3311C57.6041 54.3341 57.5973 54.3378 57.5914 54.3408C57.5855 54.3438 57.5788 54.3466 57.5729 54.3496L57.5358 54.3691C57.5299 54.3721 57.5231 54.375 57.5172 54.3779C57.5111 54.381 57.5037 54.3846 57.4977 54.3877C57.4917 54.3907 57.4851 54.3944 57.4791 54.3975C57.4732 54.4004 57.4665 54.4033 57.4606 54.4062C57.4547 54.4093 57.4479 54.413 57.442 54.416C57.4359 54.4191 57.4285 54.4227 57.4225 54.4258C57.4165 54.4288 57.4099 54.4325 57.4039 54.4355C57.398 54.4385 57.3913 54.4414 57.3854 54.4443C57.3793 54.4474 57.3719 54.451 57.3658 54.4541L57.3287 54.4736C57.3228 54.4766 57.3161 54.4795 57.3102 54.4824C57.3041 54.4855 57.2967 54.4891 57.2906 54.4922C57.2847 54.4952 57.2781 54.4989 57.2721 54.502C57.266 54.505 57.2587 54.5086 57.2526 54.5117C57.2467 54.5147 57.2399 54.5175 57.234 54.5205C57.228 54.5235 57.2214 54.5272 57.2155 54.5303C57.2093 54.5334 57.202 54.537 57.1959 54.54L57.1588 54.5596C57.1527 54.5626 57.1454 54.5653 57.1393 54.5684C57.1333 54.5714 57.1267 54.5751 57.1207 54.5781C57.1146 54.5812 57.1073 54.5848 57.1012 54.5879C57.0952 54.5909 57.0887 54.5946 57.0826 54.5977C57.0765 54.6007 57.0692 54.6043 57.0631 54.6074C57.0572 54.6104 57.0504 54.6132 57.0446 54.6162C57.0384 54.6193 57.0311 54.6229 57.025 54.626C57.019 54.629 57.0125 54.6327 57.0065 54.6357C57.0003 54.6388 56.9931 54.6424 56.9869 54.6455C56.981 54.6485 56.9744 54.6522 56.9684 54.6553C56.9623 54.6584 56.955 54.662 56.9489 54.665C56.943 54.668 56.9362 54.6709 56.9303 54.6738C56.9242 54.6769 56.9169 54.6805 56.9108 54.6836C56.9048 54.6866 56.8982 54.6903 56.8922 54.6934C56.8861 54.6965 56.8788 54.7 56.8727 54.7031C56.8667 54.7062 56.8601 54.7099 56.8541 54.7129C56.848 54.716 56.8407 54.7196 56.8346 54.7227C56.8286 54.7257 56.8221 54.7294 56.816 54.7324C56.8099 54.7355 56.8026 54.7381 56.7965 54.7412C56.7905 54.7443 56.784 54.7479 56.778 54.751L56.7389 54.7705C56.7329 54.7736 56.7263 54.7772 56.7203 54.7803C56.7142 54.7834 56.707 54.7869 56.7008 54.79C56.6948 54.7931 56.6883 54.7968 56.6823 54.7998L56.6432 54.8193C56.6373 54.8223 56.6305 54.8252 56.6246 54.8281C56.6185 54.8312 56.6113 54.8348 56.6051 54.8379C56.5991 54.8409 56.5926 54.8446 56.5865 54.8477L56.5475 54.8672C56.5415 54.8702 56.5349 54.8739 56.5289 54.877L56.4899 54.8965C56.4839 54.8995 56.4773 54.9032 56.4713 54.9062C56.4651 54.9094 56.458 54.9129 56.4518 54.916C56.4458 54.9191 56.4392 54.9227 56.4332 54.9258C56.4271 54.9288 56.4198 54.9315 56.4137 54.9346C56.4075 54.9377 56.4003 54.9412 56.3942 54.9443C56.3882 54.9474 56.3816 54.9511 56.3756 54.9541L56.3365 54.9736C56.3306 54.9767 56.324 54.9804 56.318 54.9834L56.2594 55.0127C56.2534 55.0157 56.2469 55.0194 56.2408 55.0225L56.2018 55.042C56.1958 55.045 56.1892 55.0487 56.1832 55.0518C56.177 55.0549 56.1699 55.0584 56.1637 55.0615C56.1576 55.0646 56.1503 55.0672 56.1442 55.0703C56.1382 55.0734 56.1316 55.077 56.1256 55.0801L56.0865 55.0996C56.0806 55.1027 56.074 55.1063 56.068 55.1094L56.0094 55.1387C56.0034 55.1417 55.9969 55.1454 55.9908 55.1484C55.9846 55.1516 55.9775 55.1551 55.9713 55.1582C55.5642 55.3637 53.9655 56.1713 52.4479 56.9375C51.6889 57.3207 50.9493 57.6941 50.3893 57.9766C50.1095 58.1177 49.8732 58.2365 49.7028 58.3223C49.618 58.365 49.5487 58.3997 49.4987 58.4248C49.4739 58.4372 49.4531 58.4476 49.4381 58.4551C49.4309 58.4586 49.4241 58.4616 49.4196 58.4639C49.4178 58.4648 49.4159 58.4662 49.4147 58.4668L49.4127 58.4678C49.1157 58.6133 48.7985 58.8562 48.4918 59.1289C48.1756 59.4101 47.8305 59.7589 47.4742 60.1514C46.761 60.9373 45.9756 61.9285 45.2448 62.9746C44.5146 64.0199 43.8269 65.1368 43.316 66.1758C42.8182 67.1884 42.4394 68.2228 42.4254 69.0713C42.4191 69.4848 42.7493 69.8258 43.1627 69.833C43.5764 69.8396 43.9181 69.5093 43.9254 69.0957C43.9337 68.5977 44.1821 67.8156 44.6627 66.8379C45.1306 65.8863 45.7739 64.8356 46.4742 63.833C47.174 62.8314 47.9209 61.8916 48.5856 61.1592C48.9178 60.7931 49.2242 60.4854 49.4889 60.25C49.7628 60.0064 49.9586 59.871 50.0719 59.8154C50.2533 59.7265 55.8387 56.905 56.6471 56.4971C56.6533 56.494 56.6604 56.4904 56.6666 56.4873C56.6726 56.4843 56.6792 56.4806 56.6852 56.4775L56.7242 56.458C56.7303 56.4549 56.7377 56.4522 56.7438 56.4492C56.7498 56.4462 56.7563 56.4425 56.7623 56.4395L56.8014 56.4199C56.8074 56.4169 56.8139 56.4132 56.8199 56.4102L56.859 56.3906C56.865 56.3876 56.8716 56.3839 56.8776 56.3809L56.9166 56.3613C56.9226 56.3583 56.9292 56.3546 56.9352 56.3516L56.9938 56.3223C56.9998 56.3192 57.0063 56.3155 57.0123 56.3125C57.0185 56.3094 57.0257 56.3068 57.0319 56.3037C57.038 56.3006 57.0452 56.2971 57.0514 56.2939C57.0574 56.2909 57.0639 56.2872 57.0699 56.2842L57.109 56.2646C57.115 56.2616 57.1216 56.2579 57.1276 56.2549C57.1337 56.2518 57.1409 56.2482 57.1471 56.2451C57.1531 56.2421 57.1597 56.2384 57.1656 56.2354L57.2047 56.2158C57.2107 56.2128 57.2173 56.2091 57.2233 56.2061C57.2294 56.2029 57.2366 56.1994 57.2428 56.1963C57.2489 56.1932 57.2562 56.1905 57.2623 56.1875C57.2683 56.1845 57.2749 56.1808 57.2809 56.1777C57.287 56.1746 57.2942 56.1711 57.3004 56.168C57.3064 56.1649 57.313 56.1612 57.319 56.1582L57.358 56.1387C57.364 56.1356 57.3706 56.132 57.3766 56.1289C57.3827 56.1258 57.39 56.1222 57.3961 56.1191C57.4021 56.1161 57.4087 56.1124 57.4147 56.1094C57.4208 56.1063 57.428 56.1027 57.4342 56.0996C57.4403 56.0965 57.4476 56.0938 57.4537 56.0908C57.4597 56.0878 57.4663 56.0841 57.4723 56.0811C57.4784 56.078 57.4857 56.0744 57.4918 56.0713C57.4978 56.0682 57.5044 56.0646 57.5104 56.0615C57.5165 56.0584 57.5238 56.0549 57.5299 56.0518C57.5359 56.0487 57.5425 56.045 57.5485 56.042C57.5546 56.0389 57.5618 56.0353 57.568 56.0322C57.5739 56.0293 57.5807 56.0264 57.5865 56.0234C57.5927 56.0204 57.6 56.0168 57.6061 56.0137C57.6121 56.0106 57.6187 56.0069 57.6246 56.0039C57.6308 56.0008 57.638 55.9972 57.6442 55.9941C57.6502 55.9911 57.6567 55.9874 57.6627 55.9844C57.6688 55.9813 57.6761 55.9777 57.6823 55.9746C57.6881 55.9716 57.6949 55.9688 57.7008 55.9658C57.7069 55.9627 57.7142 55.9591 57.7203 55.9561C57.7263 55.953 57.7329 55.9493 57.7389 55.9463C57.745 55.9432 57.7523 55.9396 57.7584 55.9365C57.7644 55.9335 57.771 55.9298 57.777 55.9268C57.7831 55.9237 57.7904 55.9201 57.7965 55.917C57.8024 55.914 57.8092 55.9111 57.8151 55.9082C57.8212 55.9051 57.8285 55.9015 57.8346 55.8984L57.8717 55.8789C57.8778 55.8758 57.8851 55.8722 57.8912 55.8691C57.8971 55.8662 57.9039 55.8633 57.9098 55.8604C57.9157 55.8573 57.9224 55.8536 57.9283 55.8506C57.9344 55.8475 57.9418 55.8439 57.9479 55.8408C57.9539 55.8378 57.9604 55.8341 57.9664 55.8311C57.9725 55.828 57.9799 55.8253 57.986 55.8223L58.0416 55.793C58.0477 55.7899 58.0551 55.7872 58.0612 55.7842L58.0983 55.7646C58.1043 55.7616 58.1117 55.7579 58.1178 55.7549C58.1237 55.7519 58.1305 55.749 58.1364 55.7461L58.1735 55.7266C58.1795 55.7235 58.1869 55.7208 58.193 55.7178L58.2301 55.6982C58.236 55.6953 58.2428 55.6924 58.2487 55.6895L58.2858 55.6699C58.2918 55.6669 58.2993 55.6641 58.3053 55.6611L58.3424 55.6416C58.3483 55.6386 58.3551 55.6358 58.361 55.6328L58.3981 55.6133C58.404 55.6103 58.4107 55.6074 58.4166 55.6045C58.4226 55.6015 58.4292 55.5978 58.4352 55.5947C58.4411 55.5918 58.4479 55.5889 58.4537 55.5859L58.4908 55.5664C58.4967 55.5634 58.5035 55.5606 58.5094 55.5576C58.5154 55.5546 58.522 55.5509 58.528 55.5479C58.5338 55.5449 58.5406 55.542 58.5465 55.5391C58.5525 55.5361 58.5591 55.5323 58.5651 55.5293C58.571 55.5263 58.5777 55.5234 58.5836 55.5205C58.5896 55.5175 58.5962 55.5138 58.6022 55.5107C58.6081 55.5078 58.6148 55.5049 58.6207 55.502L58.6578 55.4824C58.6635 55.4796 58.6698 55.4765 58.6754 55.4736C58.6813 55.4706 58.6881 55.4669 58.694 55.4639C58.6999 55.4609 58.7066 55.458 58.7125 55.4551C58.7184 55.4521 58.7252 55.4483 58.7311 55.4453C58.7369 55.4424 58.7438 55.4394 58.7496 55.4365C58.7553 55.4337 58.7616 55.4306 58.7672 55.4277C58.7731 55.4248 58.7799 55.421 58.7858 55.418C58.7916 55.415 58.7985 55.4121 58.8043 55.4092C58.8102 55.4062 58.817 55.4024 58.8229 55.3994C58.8285 55.3966 58.8348 55.3935 58.8405 55.3906C58.8463 55.3877 58.8531 55.3838 58.859 55.3809C58.8648 55.3779 58.8717 55.375 58.8776 55.3721C58.8833 55.3692 58.8894 55.3652 58.8951 55.3623C58.901 55.3594 58.9078 55.3564 58.9137 55.3535C58.9193 55.3507 58.9257 55.3476 58.9313 55.3447C58.9371 55.3418 58.944 55.3379 58.9498 55.335C58.9556 55.332 58.9626 55.3291 58.9684 55.3262C58.974 55.3233 58.9803 55.3202 58.986 55.3174C58.9918 55.3144 58.9987 55.3106 59.0045 55.3076C59.0101 55.3048 59.0165 55.3017 59.0221 55.2988C59.0279 55.2959 59.0348 55.2929 59.0406 55.29C59.0464 55.2871 59.0525 55.2832 59.0582 55.2803C59.064 55.2774 59.071 55.2744 59.0768 55.2715C59.0824 55.2686 59.0887 55.2655 59.0944 55.2627C59.1001 55.2598 59.1071 55.2559 59.1129 55.2529L59.1481 55.2354C59.1538 55.2324 59.1608 55.2285 59.1666 55.2256L59.2018 55.208C59.2075 55.2051 59.2146 55.2021 59.2203 55.1992C59.226 55.1963 59.2323 55.1924 59.2379 55.1895L59.2731 55.1719C59.2788 55.169 59.2859 55.1659 59.2916 55.1631L59.3268 55.1455C59.3325 55.1426 59.3387 55.1387 59.3444 55.1357L59.3795 55.1182C59.3852 55.1153 59.3924 55.1122 59.3981 55.1094L59.4684 55.0742C59.474 55.0714 59.4804 55.0673 59.486 55.0645L59.5211 55.0469C59.5265 55.0442 59.5324 55.0408 59.5377 55.0381L59.6256 54.9941C59.631 54.9914 59.6369 54.9881 59.6422 54.9854L59.6774 54.9678C59.6828 54.965 59.6895 54.9626 59.6949 54.96C59.7003 54.9572 59.7062 54.9539 59.7115 54.9512C59.7171 54.9484 59.7236 54.9452 59.7291 54.9424C59.7345 54.9397 59.7404 54.9363 59.7457 54.9336L59.7809 54.916C59.7863 54.9133 59.7921 54.9099 59.7975 54.9072C59.803 54.9045 59.8096 54.9012 59.8151 54.8984C59.8203 54.8958 59.8264 54.8932 59.8317 54.8906C59.8371 54.8879 59.8438 54.8846 59.8492 54.8818L59.8824 54.8643C59.8879 54.8615 59.8946 54.8582 59.9 54.8555C59.9053 54.8528 59.9114 54.8503 59.9166 54.8477C59.9221 54.8449 59.9288 54.8416 59.9342 54.8389L59.9674 54.8213C59.9727 54.8187 59.9788 54.8161 59.984 54.8135C59.9894 54.8108 59.9962 54.8074 60.0016 54.8047C60.0069 54.802 60.0129 54.7986 60.0182 54.7959C60.0234 54.7933 60.0296 54.7907 60.0348 54.7881L60.068 54.7705C60.0732 54.7679 60.0794 54.7653 60.0846 54.7627C60.0899 54.76 60.0959 54.7566 60.1012 54.7539C60.1064 54.7513 60.1126 54.7487 60.1178 54.7461L60.151 54.7285C60.1562 54.7259 60.1624 54.7233 60.1676 54.7207C60.1729 54.718 60.1789 54.7146 60.1842 54.7119C60.1894 54.7093 60.1956 54.7067 60.2008 54.7041C60.2061 54.7014 60.2121 54.698 60.2174 54.6953C60.2226 54.6927 60.2288 54.6901 60.234 54.6875C60.2392 54.6849 60.2454 54.6814 60.2506 54.6787C60.2556 54.6762 60.2613 54.6734 60.2662 54.6709C60.2715 54.6682 60.2776 54.6648 60.2828 54.6621L60.316 54.6465C60.3211 54.6439 60.3266 54.6403 60.3317 54.6377C60.3369 54.6351 60.3431 54.6325 60.3483 54.6299C60.3534 54.6273 60.3588 54.6237 60.3639 54.6211C60.3691 54.6185 60.3753 54.6159 60.3805 54.6133C60.3855 54.6108 60.3912 54.608 60.3961 54.6055C60.4013 54.6029 60.4076 54.5993 60.4127 54.5967C60.4177 54.5942 60.4234 54.5914 60.4283 54.5889C60.4335 54.5863 60.4398 54.5836 60.4449 54.5811C60.4499 54.5785 60.4556 54.5757 60.4606 54.5732C60.4657 54.5706 60.472 54.5671 60.4772 54.5645L60.5084 54.5488C60.5135 54.5463 60.5199 54.5436 60.525 54.541C60.53 54.5385 60.5357 54.5348 60.5406 54.5322L60.6031 54.501C60.6082 54.4984 60.6147 54.4957 60.6198 54.4932C60.6247 54.4907 60.6305 54.4878 60.6354 54.4854C60.6403 54.4828 60.6461 54.4791 60.651 54.4766L60.6823 54.4609C60.687 54.4585 60.6922 54.4555 60.6969 54.4531L60.7594 54.4219C60.7641 54.4195 60.7694 54.4165 60.774 54.4141C60.7789 54.4116 60.7848 54.4087 60.7897 54.4062C60.7945 54.4038 60.8004 54.4018 60.8053 54.3994C60.81 54.397 60.8153 54.394 60.8199 54.3916L60.8512 54.376C60.8559 54.3736 60.8612 54.3706 60.8658 54.3682C60.8707 54.3657 60.8766 54.3628 60.8815 54.3604C60.8862 54.358 60.8914 54.3549 60.8961 54.3525C60.9009 54.3501 60.9069 54.3481 60.9117 54.3457L60.941 54.3301C60.9458 54.3277 60.9519 54.3247 60.9567 54.3223C60.9613 54.32 60.9667 54.3177 60.9713 54.3154L61.0006 54.2998C61.0053 54.2974 61.0115 54.2953 61.0162 54.293L61.0455 54.2773C61.0501 54.275 61.0556 54.2728 61.0602 54.2705C61.0648 54.2682 61.0702 54.2651 61.0748 54.2627C61.0794 54.2604 61.0849 54.2581 61.0895 54.2559C61.0941 54.2535 61.0995 54.2504 61.1041 54.248C61.1087 54.2458 61.1142 54.2435 61.1188 54.2412C61.1234 54.2389 61.1288 54.2357 61.1334 54.2334C61.1378 54.2312 61.1428 54.2287 61.1471 54.2266C61.1517 54.2242 61.1572 54.2211 61.1617 54.2188C61.1663 54.2165 61.1718 54.2142 61.1764 54.2119C61.181 54.2096 61.1865 54.2064 61.191 54.2041C61.1954 54.2019 61.2004 54.1994 61.2047 54.1973C61.2092 54.195 61.2149 54.1927 61.2194 54.1904C61.2239 54.1881 61.2295 54.1849 61.234 54.1826C61.2383 54.1804 61.2434 54.178 61.2477 54.1758C61.2522 54.1735 61.2578 54.1703 61.2623 54.168C61.2667 54.1658 61.2717 54.1633 61.276 54.1611C61.2805 54.1589 61.2861 54.1565 61.2906 54.1543C61.295 54.1521 61.3 54.1496 61.3043 54.1475C61.3087 54.1452 61.3136 54.1419 61.318 54.1396C61.3225 54.1374 61.3282 54.135 61.3326 54.1328L61.3737 54.1123C61.3781 54.1101 61.3839 54.1068 61.3883 54.1045L61.484 54.0566C61.4881 54.0546 61.4927 54.0519 61.4967 54.0498L61.5377 54.0293C61.5418 54.0272 61.5464 54.0245 61.5504 54.0225C61.5546 54.0203 61.5599 54.0178 61.5641 54.0156C61.568 54.0136 61.5728 54.0117 61.5768 54.0098L61.6041 53.9961L61.6295 53.9824C61.6337 53.9804 61.639 53.9786 61.6432 53.9766L61.6686 53.9629C61.6727 53.9608 61.6781 53.959 61.6823 53.957L61.7076 53.9434C61.7116 53.9414 61.7164 53.9394 61.7203 53.9375C61.7244 53.9355 61.729 53.9327 61.733 53.9307C61.737 53.9287 61.7418 53.9267 61.7457 53.9248L61.7711 53.9111L61.7965 53.8994C61.8003 53.8975 61.8045 53.8946 61.8082 53.8926C61.8121 53.8906 61.817 53.8886 61.8209 53.8867C61.8248 53.8847 61.8297 53.8819 61.8336 53.8799C61.8373 53.878 61.8417 53.8759 61.8453 53.874C61.8492 53.8721 61.8542 53.8701 61.858 53.8682C61.8619 53.8662 61.8668 53.8633 61.8707 53.8613C61.8744 53.8595 61.8788 53.8573 61.8824 53.8555C61.8863 53.8535 61.8913 53.8515 61.8951 53.8496C61.8989 53.8477 61.9031 53.8447 61.9069 53.8428C61.9105 53.8409 61.9149 53.8388 61.9186 53.8369C61.9224 53.835 61.9274 53.8329 61.9313 53.8311L61.9547 53.8193C61.9584 53.8174 61.9627 53.8144 61.9664 53.8125L62.0719 53.7598C62.0753 53.758 62.0793 53.7557 62.0826 53.7539C62.0862 53.7521 62.0908 53.7498 62.0944 53.748C62.0979 53.7463 62.1026 53.7449 62.1061 53.7432C62.1095 53.7414 62.1134 53.7391 62.1168 53.7373C62.1204 53.7355 62.125 53.7332 62.1285 53.7314L62.15 53.7197C62.1535 53.718 62.1582 53.7165 62.1617 53.7148L62.1832 53.7031C62.1867 53.7014 62.1915 53.6999 62.1949 53.6982L62.2164 53.6865C62.2197 53.6849 62.2239 53.6832 62.2272 53.6816C62.2305 53.6799 62.2346 53.6775 62.2379 53.6758C62.2412 53.6742 62.2454 53.6725 62.2487 53.6709C62.2519 53.6692 62.2561 53.6667 62.2594 53.665C62.2624 53.6635 62.2662 53.6617 62.2692 53.6602C62.2725 53.6585 62.2766 53.656 62.2799 53.6543L62.3014 53.6445C62.3046 53.6429 62.3081 53.6403 62.3112 53.6387C62.3144 53.637 62.3187 53.6354 62.3219 53.6338C62.3249 53.6323 62.3287 53.6304 62.3317 53.6289C62.3349 53.6273 62.3392 53.6247 62.3424 53.623C62.3454 53.6215 62.3492 53.6197 62.3522 53.6182C62.3554 53.6166 62.3597 53.6148 62.3629 53.6133C62.366 53.6117 62.3697 53.6099 62.3727 53.6084C62.3758 53.6068 62.3794 53.6042 62.3824 53.6025L62.402 53.5928C62.4051 53.5912 62.4096 53.5894 62.4127 53.5879L62.442 53.5732C62.4448 53.5718 62.4481 53.5698 62.4508 53.5684L62.4801 53.5537C62.4829 53.5523 62.4862 53.5503 62.4889 53.5488C62.4918 53.5473 62.4957 53.5454 62.4987 53.5439C62.5015 53.5425 62.5055 53.5414 62.5084 53.54C62.5112 53.5386 62.5145 53.5366 62.5172 53.5352C62.5201 53.5337 62.5241 53.5317 62.527 53.5303C62.5297 53.5289 62.5331 53.5268 62.5358 53.5254C62.5384 53.5241 62.5419 53.5228 62.5446 53.5215C62.5472 53.5201 62.5507 53.518 62.5533 53.5166C62.5562 53.5152 62.5603 53.5131 62.5631 53.5117C62.5658 53.5104 62.5693 53.5091 62.5719 53.5078C62.5747 53.5064 62.578 53.5043 62.5807 53.5029C62.5833 53.5016 62.5868 53.5003 62.5895 53.499L62.6071 53.4893L62.6246 53.4814C62.6271 53.4801 62.63 53.4779 62.6324 53.4766C62.635 53.4753 62.6387 53.4739 62.6412 53.4727C62.6439 53.4713 62.6474 53.4691 62.65 53.4678C62.6524 53.4666 62.6555 53.4651 62.6578 53.4639C62.6604 53.4626 62.664 53.4612 62.6666 53.46C62.6691 53.4587 62.672 53.4564 62.6744 53.4551C62.677 53.4538 62.6807 53.4524 62.6832 53.4512L62.6989 53.4434C62.7014 53.4421 62.7051 53.4407 62.7076 53.4395C62.71 53.4382 62.7131 53.4367 62.7155 53.4355C62.7179 53.4343 62.7209 53.432 62.7233 53.4307L62.7623 53.4111C62.7645 53.41 62.7671 53.4083 62.7692 53.4072C62.7714 53.4061 62.7747 53.4053 62.777 53.4043C62.7793 53.4031 62.7825 53.4015 62.7848 53.4004C62.7869 53.3993 62.7896 53.3976 62.7916 53.3965C62.7939 53.3953 62.7972 53.3937 62.7994 53.3926C62.8016 53.3915 62.8042 53.3898 62.8063 53.3887C62.8085 53.3876 62.8118 53.3867 62.8141 53.3857L62.8278 53.3779C62.8299 53.3769 62.8334 53.376 62.8356 53.375L62.8492 53.3672C62.8513 53.3662 62.8541 53.3652 62.8561 53.3643C62.8582 53.3632 62.8609 53.3614 62.8629 53.3604C62.8649 53.3594 62.8678 53.3584 62.8698 53.3574C62.8718 53.3564 62.8746 53.3546 62.8766 53.3535C62.8783 53.3526 62.8807 53.3514 62.8824 53.3506C62.8844 53.3496 62.8874 53.3486 62.8893 53.3477C62.8913 53.3466 62.8941 53.3448 62.8961 53.3438C62.8979 53.3429 62.9003 53.3417 62.902 53.3408C62.9039 53.3399 62.9069 53.3388 62.9088 53.3379C62.9106 53.3369 62.9129 53.335 62.9147 53.334C62.9166 53.333 62.9196 53.332 62.9215 53.3311C62.9233 53.3302 62.9257 53.329 62.9274 53.3281C62.9293 53.3272 62.9323 53.3261 62.9342 53.3252C62.936 53.3243 62.9383 53.3223 62.9401 53.3213L62.9811 53.3008C62.9825 53.3001 62.9846 53.2994 62.986 53.2988C62.9876 53.298 62.9902 53.2967 62.9918 53.2959C62.9933 53.2951 62.9953 53.2938 62.9967 53.293C62.9983 53.2921 63.0009 53.2909 63.0026 53.29C63.0041 53.2893 63.006 53.2879 63.0074 53.2871C63.009 53.2864 63.0117 53.2858 63.0133 53.2852L63.0231 53.2793C63.0246 53.2786 63.0274 53.278 63.0289 53.2773C63.0303 53.2766 63.0324 53.2752 63.0338 53.2744C63.0352 53.2738 63.0373 53.2731 63.0387 53.2725C63.0401 53.2717 63.0422 53.2703 63.0436 53.2695C63.0449 53.2689 63.0471 53.2682 63.0485 53.2676C63.0497 53.2669 63.0512 53.2654 63.0524 53.2646C63.0537 53.264 63.0559 53.2633 63.0573 53.2627C63.0586 53.262 63.0608 53.2605 63.0621 53.2598C63.0634 53.2591 63.0657 53.2584 63.067 53.2578C63.0681 53.2572 63.0699 53.2564 63.0709 53.2559C63.0722 53.2552 63.0745 53.2537 63.0758 53.2529C63.0769 53.2524 63.0786 53.2515 63.0797 53.251C63.081 53.2504 63.0833 53.2496 63.0846 53.249L63.0924 53.2451C63.0936 53.2445 63.0952 53.2429 63.0963 53.2422L63.1158 53.2324C63.1169 53.232 63.1187 53.2318 63.1198 53.2314C63.1208 53.2309 63.1226 53.23 63.1237 53.2295L63.1266 53.2275C63.1276 53.227 63.1295 53.2261 63.1305 53.2256L63.1334 53.2236C63.1344 53.2232 63.1363 53.223 63.1373 53.2227L63.1432 53.2188C63.1441 53.2184 63.1461 53.2181 63.1471 53.2178L63.15 53.2158L63.153 53.2148L63.1559 53.2129L63.1588 53.2119L63.1608 53.21L63.1637 53.209L63.1666 53.207L63.1696 53.2061L63.1715 53.2051L63.1744 53.2031L63.1783 53.2012L63.1813 53.2002L63.1949 53.1934L63.1959 53.1924L63.1979 53.1914L63.1989 53.1904H63.2008L63.2018 53.1895L63.2037 53.1885H63.2047L63.2057 53.1875H63.2067L63.2076 53.1865H63.2086L63.2096 53.1855H63.2106L63.2115 53.1846H63.2125V53.1836H63.2145L63.236 53.1719H63.2369V53.1709L63.2399 53.1699C63.242 53.1687 63.2458 53.1662 63.2496 53.1641C63.2577 53.1596 63.2699 53.1528 63.2848 53.1445C63.3155 53.1275 63.3611 53.1021 63.4176 53.0703C63.5312 53.0064 63.6942 52.9145 63.8893 52.8008C64.2794 52.5734 64.8065 52.2568 65.3483 51.9043C65.8872 51.5536 66.4563 51.1565 66.9235 50.7686C67.1567 50.5748 67.3773 50.3725 67.5592 50.1709C67.7322 49.9791 67.9131 49.7407 68.0133 49.4727C68.0583 49.3521 68.148 49.175 68.2877 48.9121C68.4184 48.6663 68.5829 48.3631 68.7379 48.042C69.0412 47.4135 69.3685 46.6 69.3688 45.7715C69.3688 44.4057 69.325 44.2427 69.3668 43.4541C69.3888 43.0406 69.0713 42.6872 68.6578 42.665Z" fill="#4B3C25"/>
</g>
<defs>
<filter id="filter0_n_346_2327" x="30.0406" y="29.3152" width="52.9591" height="53.6843" filterUnits="userSpaceOnUse" color-interpolation-filters="sRGB">
<feFlood flood-opacity="0" result="BackgroundImageFix"/>
<feBlend mode="normal" in="SourceGraphic" in2="BackgroundImageFix" result="shape"/>
<feTurbulence type="fractalNoise" baseFrequency="2 2" stitchTiles="stitch" numOctaves="3" result="noise" seed="7750" />
<feColorMatrix in="noise" type="luminanceToAlpha" result="alphaNoise" />
<feComponentTransfer in="alphaNoise" result="coloredNoise1">
<feFuncA type="discrete" tableValues="1 1 1 1 1 1 1 1 1 1 1 1 1 1 1 1 1 1 1 1 1 1 1 1 1 1 1 1 1 1 1 1 1 1 1 1 1 1 1 1 1 1 1 1 1 1 1 1 1 1 1 0 0 0 0 0 0 0 0 0 0 0 0 0 0 0 0 0 0 0 0 0 0 0 0 0 0 0 0 0 0 0 0 0 0 0 0 0 0 0 0 0 0 0 0 0 0 0 0 0 "/>
</feComponentTransfer>
<feComposite operator="in" in2="shape" in="coloredNoise1" result="noise1Clipped" />
<feFlood flood-color="rgba(0, 0, 0, 0.25)" result="color1Flood" />
<feComposite operator="in" in2="noise1Clipped" in="color1Flood" result="color1" />
<feMerge result="effect1_noise_346_2327">
<feMergeNode in="shape" />
<feMergeNode in="color1" />
</feMerge>
</filter>
</defs>
</svg>
