<svg width="39" height="39" viewBox="0 0 39 39" fill="none" xmlns="http://www.w3.org/2000/svg">
<path d="M19.1261 0C8.60674 0 0 8.7374 0 19.4986C0 29.2285 7.00014 37.3042 16.1424 38.7637V25.1419H11.2844V19.4986H16.1424V15.198C16.1424 10.3136 18.9922 7.6282 23.3721 7.6282C25.4568 7.6282 27.6372 7.99793 27.6372 7.99793V12.8045H25.2273C22.8557 12.8045 22.1098 14.3029 22.1098 15.8402V19.4986H27.4268L26.5661 25.1419H22.1098V38.7637C26.6167 38.0395 30.7207 35.6998 33.6809 32.167C36.6411 28.6342 38.2624 24.141 38.2522 19.4986C38.2522 8.7374 29.6454 0 19.1261 0Z" fill="#4B3C25"/>
</svg>
