<svg width="42" height="37" viewBox="0 0 42 37" fill="none" xmlns="http://www.w3.org/2000/svg">
<path d="M41.2396 16.5113C40.5996 11.5877 37.9198 7.50098 33.2749 4.36408C29.1845 1.60173 24.4944 0.38347 19.3354 0.740826C14.5255 1.0743 10.3911 2.69769 7.04517 5.56418C3.00937 9.02309 0.979008 13.3429 0.840088 18.772C0.867397 18.9698 0.892331 19.1982 0.920828 19.4619C0.994443 20.1336 1.08468 20.9687 1.27703 21.7895C2.34683 26.3511 5.03024 30.0355 9.25601 32.7414C13.6338 35.5449 18.6099 36.6322 24.0468 35.9729C28.9695 35.3758 33.0979 33.4428 36.3169 30.2275C40.2553 26.2928 41.9104 21.6787 41.2384 16.5113H41.2396ZM36.5234 28.1522C33.6655 31.6837 29.7568 33.8976 24.9064 34.7308C23.6633 34.9448 22.4344 35.0509 21.2221 35.0509C17.7218 35.0509 14.3616 34.1613 11.1938 32.3917C6.85044 29.9648 4.02337 26.4791 2.79209 22.0332C2.4252 20.7098 2.27678 19.4227 2.27797 17.5901V17.5882C2.4062 12.8632 4.74527 8.70395 9.04347 5.56036C13.0223 2.65182 17.6316 1.39439 22.7419 1.82436C27.9092 2.25816 32.1956 4.21502 35.4845 7.63953C38.0433 10.3035 39.5322 13.4174 39.9098 16.8935C40.3586 21.0337 39.2199 24.8213 36.5246 28.1522H36.5234Z" fill="black"/>
<path d="M35.1646 19.2913C35.0585 19.2523 34.9392 19.2228 34.8211 19.2047C34.5813 19.1685 34.3416 19.1324 34.103 19.0953C33.4505 18.9944 32.7766 18.8907 32.1098 18.8108C30.4243 18.6081 28.7674 18.2342 27.1642 17.8726C26.2254 17.6605 25.2545 17.4416 24.2906 17.2599C23.7789 17.1638 23.2469 17.0943 22.7328 17.0287L22.5801 17.0087C22.1996 16.9592 21.8107 16.9193 21.4338 16.8812L21.1045 16.8469C20.8195 16.8175 20.7014 16.7014 20.7109 16.4597C20.736 15.8051 20.7455 15.1391 20.755 14.494C20.7586 14.278 20.761 14.062 20.7646 13.846C20.767 13.7252 20.767 13.6034 20.7682 13.4826C20.7682 13.2447 20.7706 12.9983 20.7837 12.7556C20.8016 12.4283 20.8302 12.0972 20.8576 11.7766C20.8696 11.6405 20.8815 11.5054 20.8922 11.3694C20.8672 11.1305 20.8433 10.8917 20.8195 10.6539C20.7598 10.0497 20.6978 9.42456 20.6095 8.81467C20.5725 8.55587 20.4282 8.29137 20.2839 8.04303C20.2087 7.91459 20.0787 7.84418 19.9236 7.84418C19.8843 7.84418 19.8437 7.84893 19.802 7.8575C19.7292 7.87367 19.5061 7.92125 19.5049 8.22571C19.5026 8.55112 19.5049 8.87557 19.5085 9.20002C19.5121 9.54254 19.5145 9.89744 19.5121 10.2466C19.5061 10.9022 19.4918 11.5939 19.4656 12.4236C19.4584 12.6634 19.4441 12.9069 19.4298 13.1419C19.4155 13.3817 19.4012 13.6291 19.394 13.8717C19.3845 14.1933 19.3797 14.5149 19.3737 14.8365C19.363 15.455 19.3523 16.0943 19.3105 16.7223C19.2902 17.0144 19.3749 17.1914 19.6218 17.3731C20.2385 17.8289 21.0258 18.0934 22.0266 18.1828C23.0298 18.2722 24.0032 18.492 24.9455 18.7042C25.4191 18.8108 25.9081 18.9211 26.3936 19.0134C27.0378 19.1352 27.6843 19.2817 28.3105 19.4226C28.9547 19.5681 29.6191 19.7185 30.2799 19.8422C31.1328 20.002 32.0131 20.1219 32.8648 20.238C33.1284 20.2741 33.3933 20.3103 33.6569 20.3474C34.041 20.4016 34.4525 20.453 34.864 20.4663C35.2469 20.4777 35.5642 20.2808 35.637 19.9858C35.7098 19.6937 35.5237 19.4197 35.1634 19.2894L35.1646 19.2913Z" fill="black"/>
</svg>
