<svg width="79" height="80" viewBox="0 0 79 80" fill="none" xmlns="http://www.w3.org/2000/svg">
<path d="M17.7167 2.02698C34.5102 -5.7336 44.1487 11.0325 46.0819 14.7614L33.3798 18.4948C33.3798 18.4948 30.063 20.2644 26.5887 22.6324C25.9567 19.7126 24.3052 17.4019 23.1307 14.7887C23.0306 14.5986 22.9348 14.4163 22.8309 14.2252C22.7041 13.9923 22.4913 13.8232 22.2343 13.7584C21.9774 13.6936 21.6966 13.7382 21.4598 13.8795C21.2232 14.021 21.0509 14.2467 20.9862 14.5035C20.9213 14.7607 20.9691 15.0285 21.1141 15.2506C21.2202 15.4128 21.3318 15.5876 21.4423 15.7623C22.872 18.1631 24.7054 20.9119 25.493 23.3961C23.335 24.9381 21.2439 26.6634 19.9803 28.2936C16.4705 32.8218 13.5621 38.7188 12.7157 45.3073C11.8699 51.8915 14.8379 62.17 14.8417 62.1832C1.55682 52.985 -11.7928 15.6641 17.7167 2.02698Z" fill="#4B3C25"/>
<g filter="url(#filter0_n_322_2220)">
<path d="M29.2425 29.935C42.0905 16.8045 61.1944 14.6617 71.9124 25.1488C82.6303 35.6362 80.904 54.7829 68.0559 67.9135C55.2078 81.0441 36.103 83.1869 25.385 72.6996C14.6671 62.2122 16.3943 43.0656 29.2425 29.935ZM62.5305 33.7279C62.1172 33.7061 61.7637 34.0235 61.7415 34.4369C61.691 35.3775 61.7405 35.739 61.7405 37.1488C61.7405 37.7069 61.507 38.3532 61.18 39.0248C61.02 39.3533 60.8519 39.6614 60.6936 39.9565C60.5447 40.234 60.3878 40.53 60.2923 40.7836C60.2823 40.8095 60.2323 40.9024 60.0862 41.0629C59.948 41.2146 59.7593 41.39 59.5266 41.5815C59.0612 41.9644 58.4684 42.3751 57.8743 42.7582C57.2831 43.1394 56.7038 43.4843 56.2718 43.7338C56.0564 43.8581 55.878 43.9588 55.7542 44.0277C55.6926 44.0621 55.6441 44.089 55.6116 44.1068C55.5995 44.1135 55.5889 44.1193 55.5813 44.1234H55.5803L55.5794 44.1244L55.5774 44.1254H55.5764L55.5745 44.1273L55.5725 44.1283H55.5716L55.5677 44.1303L55.5667 44.1313L55.5569 44.1361L55.554 44.1371L55.552 44.1381L55.5491 44.1391L55.5471 44.141L55.5442 44.142L55.5423 44.143L55.5393 44.1449L55.5364 44.1459L55.5335 44.1479L55.5305 44.1488L55.5276 44.1508L55.5247 44.1518L55.5218 44.1537L55.5178 44.1557L55.5149 44.1566L55.511 44.1586C55.5102 44.1591 55.509 44.1601 55.5081 44.1606L55.5042 44.1625C55.5031 44.1628 55.5013 44.163 55.5003 44.1635L55.4964 44.1654C55.4955 44.166 55.4943 44.1669 55.4934 44.1674L55.4895 44.1693C55.4882 44.1699 55.4858 44.1707 55.4846 44.1713L55.4807 44.1732C55.4796 44.174 55.478 44.1756 55.4768 44.1762L55.4729 44.1781C55.4715 44.1787 55.4693 44.1794 55.468 44.1801L55.4641 44.182C55.4627 44.1826 55.4606 44.1833 55.4593 44.184C55.458 44.1848 55.4566 44.1863 55.4553 44.1869L55.4456 44.1908C55.4441 44.1916 55.4421 44.193 55.4407 44.1938L55.4368 44.1957C55.4354 44.1965 55.4333 44.198 55.4319 44.1986C55.4303 44.1993 55.4276 44.1998 55.4261 44.2006L55.4163 44.2065C55.4149 44.2071 55.4128 44.2077 55.4114 44.2084L55.4055 44.2113C55.404 44.2122 55.4022 44.2135 55.4007 44.2143C55.399 44.215 55.3965 44.2154 55.3948 44.2162C55.3933 44.217 55.3915 44.2184 55.3899 44.2191L55.3372 44.2455C55.3352 44.2466 55.3323 44.2485 55.3303 44.2494L55.3245 44.2523C55.3225 44.2533 55.3196 44.2543 55.3177 44.2553L55.3118 44.2582C55.3097 44.2593 55.307 44.2611 55.305 44.2621L55.2913 44.268C55.2892 44.2691 55.2865 44.2708 55.2845 44.2719C55.2824 44.2728 55.2796 44.2738 55.2776 44.2748C55.2755 44.2759 55.2728 44.2777 55.2708 44.2787C55.2687 44.2797 55.266 44.2806 55.2639 44.2816L55.2503 44.2895C55.2482 44.2904 55.2455 44.2914 55.2434 44.2924L55.2356 44.2963C55.2335 44.2974 55.231 44.2991 55.2288 44.3002L55.221 44.3041C55.2187 44.3051 55.2154 44.3059 55.2132 44.307C55.211 44.3082 55.2085 44.3098 55.2063 44.3109L55.1438 44.3422C55.1412 44.3434 55.1376 44.3448 55.135 44.3461C55.1325 44.3475 55.1298 44.3497 55.1272 44.351C55.1246 44.3522 55.121 44.3536 55.1184 44.3549L55.1106 44.3588C55.1079 44.3601 55.1045 44.3614 55.1018 44.3627C55.0993 44.3641 55.0966 44.3663 55.094 44.3676C55.0914 44.3689 55.0879 44.3702 55.0852 44.3715C55.0825 44.3729 55.0792 44.375 55.0764 44.3764C55.0737 44.3777 55.0703 44.3789 55.0677 44.3803C55.0649 44.3817 55.0616 44.3838 55.0589 44.3852C55.0562 44.3865 55.0527 44.3877 55.0501 44.3891C55.0473 44.3905 55.0441 44.3926 55.0413 44.394C55.0386 44.3953 55.0352 44.3965 55.0325 44.3979C55.0297 44.3993 55.0265 44.4013 55.0237 44.4027C55.0208 44.4041 55.0168 44.4052 55.0139 44.4066L54.9964 44.4164L54.9866 44.4213C54.9839 44.4226 54.9805 44.4238 54.9778 44.4252L54.9485 44.4398C54.9457 44.4413 54.9426 44.4433 54.9397 44.4447L54.8909 44.4691C54.8877 44.4707 54.8833 44.4724 54.8802 44.474L54.8606 44.4838C54.8573 44.4855 54.8531 44.488 54.8499 44.4897L54.8401 44.4945C54.8368 44.4961 54.8327 44.4978 54.8294 44.4994L54.8196 44.5043C54.8163 44.506 54.8122 44.5085 54.8089 44.5102L54.7874 44.5199C54.7842 44.5216 54.7808 44.5242 54.7776 44.5258C54.7743 44.5274 54.7701 44.529 54.7669 44.5307C54.7635 44.5324 54.7595 44.5349 54.7561 44.5365C54.7528 44.5381 54.7487 44.5398 54.7454 44.5414L54.7337 44.5473C54.7303 44.5489 54.7263 44.5505 54.7229 44.5522L54.7014 44.5639C54.6979 44.5656 54.6933 44.567 54.6897 44.5688C54.6863 44.5705 54.6825 44.5729 54.679 44.5746L54.6673 44.5805C54.6638 44.5822 54.66 44.5846 54.6565 44.5863C54.6529 44.5881 54.6484 44.5894 54.6448 44.5912C54.6413 44.593 54.6376 44.5953 54.6341 44.5971L54.5169 44.6557C54.513 44.6577 54.508 44.6606 54.5042 44.6625L54.4925 44.6684C54.4885 44.6703 54.4837 44.6723 54.4798 44.6742L54.468 44.6801C54.4641 44.682 54.4593 44.684 54.4553 44.6859C54.4515 44.6879 54.4475 44.6908 54.4436 44.6928C54.4397 44.6947 54.4349 44.6967 54.4309 44.6986C54.4269 44.7007 54.4222 44.7035 54.4182 44.7055C54.4143 44.7074 54.4094 44.7094 54.4055 44.7113L54.3938 44.7172C54.3898 44.7192 54.3851 44.722 54.3811 44.724C54.3772 44.726 54.3724 44.7279 54.3684 44.7299C54.3644 44.7319 54.3597 44.7347 54.3557 44.7367C54.3516 44.7387 54.3462 44.7405 54.3421 44.7426L54.3167 44.7563C54.3127 44.7582 54.308 44.7601 54.304 44.7621C54.2999 44.7642 54.2954 44.7669 54.2913 44.769L54.2776 44.7758C54.2736 44.7778 54.2689 44.7796 54.2649 44.7816L54.2512 44.7885C54.2471 44.7906 54.2427 44.7932 54.2386 44.7953L54.2249 44.8022C54.2207 44.8042 54.2154 44.8059 54.2112 44.808C54.2071 44.8101 54.2027 44.8128 54.1985 44.8148L54.0618 44.8832C54.0573 44.8854 54.0516 44.8878 54.0471 44.89C54.0427 44.8923 54.0379 44.8956 54.0335 44.8979L54.0198 44.9047C54.0152 44.9069 54.0097 44.9093 54.0052 44.9115L53.9915 44.9184C53.9869 44.9207 53.9814 44.9239 53.9768 44.9262C53.9723 44.9284 53.9667 44.9307 53.9622 44.933L53.9485 44.9398C53.9439 44.9422 53.9385 44.9453 53.9339 44.9477L53.9046 44.9613C53.9001 44.9636 53.8954 44.9669 53.8909 44.9691C53.8863 44.9714 53.8808 44.9737 53.8762 44.976C53.8716 44.9783 53.8663 44.9815 53.8616 44.9838C53.857 44.9861 53.8515 44.9883 53.847 44.9906C53.8423 44.993 53.837 44.9961 53.8323 44.9984C53.8275 45.0008 53.8214 45.0029 53.8167 45.0053L53.7874 45.0209C53.7827 45.0232 53.7774 45.0254 53.7727 45.0277L53.7571 45.0356C53.7524 45.0379 53.7472 45.041 53.7425 45.0434C53.7378 45.0457 53.7325 45.0479 53.7278 45.0502L53.7122 45.058C53.7074 45.0604 53.7023 45.0634 53.6975 45.0658L53.6819 45.0736C53.677 45.076 53.6712 45.078 53.6663 45.0805C53.6615 45.0829 53.6564 45.0859 53.6516 45.0883L53.5891 45.1195C53.5844 45.122 53.5793 45.125 53.5745 45.1273L53.5432 45.143C53.5381 45.1455 53.5317 45.1483 53.5266 45.1508L53.4641 45.182C53.459 45.1846 53.4527 45.1873 53.4475 45.1898C53.4425 45.1924 53.437 45.1961 53.4319 45.1986L53.4163 45.2065C53.4111 45.209 53.4049 45.2117 53.3997 45.2143L53.3841 45.2221C53.3788 45.2247 53.3727 45.2273 53.3675 45.2299C53.3623 45.2325 53.357 45.2361 53.3518 45.2387L53.3186 45.2543C53.3135 45.2569 53.3082 45.2605 53.303 45.2631C53.2977 45.2657 53.2917 45.2683 53.2864 45.2709C53.2811 45.2736 53.2751 45.277 53.2698 45.2797L53.2366 45.2953C53.2314 45.2979 53.2262 45.3015 53.221 45.3041C53.2157 45.3067 53.2096 45.3093 53.2044 45.3119C53.1991 45.3146 53.1931 45.3181 53.1878 45.3207C53.1825 45.3233 53.1764 45.3259 53.1712 45.3285L53.1536 45.3373C53.1483 45.3399 53.1423 45.3425 53.137 45.3451L53.1038 45.3627C53.0985 45.3653 53.0925 45.3679 53.0872 45.3705L53.0696 45.3793C53.0642 45.382 53.0584 45.3854 53.053 45.3881C53.0477 45.3907 53.0417 45.3932 53.0364 45.3959L53.0188 45.4047C53.0134 45.4074 53.0077 45.4108 53.0022 45.4135L52.9846 45.4223C52.9791 45.425 52.9726 45.4273 52.9671 45.4301C52.9616 45.4328 52.9559 45.4362 52.9505 45.4389L52.9329 45.4477C52.9275 45.4504 52.9217 45.4537 52.9163 45.4565L52.8636 45.4828C52.858 45.4855 52.8515 45.4879 52.846 45.4906L52.8284 45.4994C52.823 45.5022 52.8172 45.5055 52.8118 45.5082L52.7591 45.5346C52.7533 45.5374 52.7462 45.5405 52.7405 45.5434L52.7229 45.5522C52.7172 45.5551 52.7111 45.559 52.7053 45.5619L52.6702 45.5795C52.6644 45.5824 52.6574 45.5854 52.6516 45.5883L52.6165 45.6059C52.6106 45.6088 52.6038 45.6117 52.5979 45.6147C52.5921 45.6176 52.5862 45.6215 52.5803 45.6244C52.5745 45.6273 52.5676 45.6303 52.5618 45.6332L52.5442 45.642C52.5383 45.6449 52.5315 45.6478 52.5257 45.6508C52.5199 45.6537 52.5139 45.6576 52.5081 45.6606L52.471 45.6781C52.4652 45.6811 52.4592 45.685 52.4534 45.6879L52.4163 45.7055C52.4103 45.7085 52.4037 45.7123 52.3977 45.7152L52.3802 45.724C52.3742 45.727 52.3676 45.7308 52.3616 45.7338C52.3557 45.7367 52.349 45.7396 52.343 45.7426C52.337 45.7456 52.3305 45.7493 52.3245 45.7523C52.3185 45.7553 52.3119 45.7582 52.3059 45.7611C52.2999 45.7642 52.2934 45.7679 52.2874 45.7709C52.2814 45.7739 52.2748 45.7767 52.2688 45.7797C52.2628 45.7827 52.2563 45.7864 52.2503 45.7895C52.2443 45.7924 52.2377 45.7953 52.2317 45.7982C52.2257 45.8013 52.2191 45.805 52.2132 45.808C52.207 45.811 52.1997 45.8138 52.1936 45.8168L52.1565 45.8363C52.1506 45.8393 52.1439 45.8421 52.138 45.8451L52.1184 45.8549C52.1124 45.8579 52.106 45.8616 52.0999 45.8647C52.0939 45.8676 52.0873 45.8705 52.0813 45.8734L52.0618 45.8832C52.0557 45.8863 52.0493 45.8899 52.0432 45.893L52.0237 45.9027C52.0177 45.9057 52.0111 45.9085 52.0052 45.9115L51.9856 45.9213C51.9795 45.9244 51.9732 45.928 51.9671 45.9311L51.9475 45.9408C51.9413 45.9439 51.9342 45.9465 51.928 45.9496C51.9219 45.9527 51.9155 45.9563 51.9095 45.9594L51.8509 45.9887C51.8448 45.9917 51.8384 45.9954 51.8323 45.9984L51.5979 46.1156C51.5915 46.1188 51.5838 46.1222 51.5774 46.1254L51.5188 46.1547C51.5124 46.1579 51.5048 46.1612 51.4983 46.1645C51.4919 46.1677 51.4852 46.172 51.4788 46.1752L51.4593 46.185C51.4528 46.1882 51.4452 46.1915 51.4387 46.1947L51.4192 46.2045C51.4127 46.2077 51.4052 46.211 51.3987 46.2143C51.3923 46.2175 51.3856 46.2218 51.3792 46.225L51.3596 46.2348L51.3186 46.2543C51.3122 46.2576 51.3056 46.2618 51.2991 46.265C51.2926 46.2683 51.2851 46.2716 51.2786 46.2748L51.2591 46.2846C51.2525 46.2879 51.2451 46.292 51.2386 46.2953C51.232 46.2986 51.2245 46.3018 51.218 46.3051L51.1985 46.3148C51.1919 46.3182 51.1846 46.3223 51.178 46.3256L51.137 46.3451C51.1305 46.3484 51.1239 46.3526 51.1175 46.3559C51.1109 46.3591 51.1035 46.3624 51.097 46.3656C51.0903 46.369 51.0831 46.3731 51.0764 46.3764L51.0354 46.3959C51.0288 46.3992 51.0216 46.4033 51.0149 46.4066C51.0083 46.4099 51.001 46.4131 50.9944 46.4164C50.9878 46.4197 50.9805 46.4238 50.9739 46.4272C50.9673 46.4304 50.9599 46.4336 50.9534 46.4369C50.9468 46.4403 50.9395 46.4444 50.9329 46.4477C50.9263 46.4509 50.9189 46.4541 50.9124 46.4574C50.9057 46.4608 50.8985 46.4648 50.8919 46.4682C50.8853 46.4714 50.878 46.4746 50.8714 46.4779L50.8303 46.4994C50.8237 46.5027 50.8165 46.5059 50.8098 46.5092C50.8031 46.5126 50.796 46.5166 50.7893 46.5199C50.7827 46.5232 50.7754 46.5264 50.7688 46.5297L50.7473 46.5404C50.7407 46.5438 50.7335 46.5479 50.7268 46.5512C50.7202 46.5545 50.7129 46.5576 50.7063 46.5609C50.6996 46.5643 50.6925 46.5683 50.6858 46.5717C50.679 46.575 50.6711 46.5781 50.6643 46.5815L50.6233 46.6029C50.6165 46.6063 50.6086 46.6093 50.6018 46.6127L50.5608 46.6342L50.5393 46.6449C50.5327 46.6482 50.5254 46.6514 50.5188 46.6547L50.4973 46.6654C50.4906 46.6688 50.4836 46.6728 50.4768 46.6762C50.47 46.6796 50.4622 46.6825 50.4553 46.6859C50.4486 46.6893 50.4416 46.6933 50.4348 46.6967L50.4134 46.7074C50.4066 46.7108 50.3996 46.7148 50.3928 46.7182L50.3714 46.7289C50.3647 46.7322 50.3575 46.7354 50.3509 46.7387L50.3079 46.7602C50.3012 46.7635 50.2941 46.7675 50.2874 46.7709L50.2659 46.7816C50.259 46.785 50.2512 46.788 50.2444 46.7914C50.2377 46.7948 50.2306 46.7988 50.2239 46.8022L50.1809 46.8236C50.1742 46.827 50.1672 46.831 50.1604 46.8344L50.096 46.8666C50.0891 46.87 50.0813 46.873 50.0745 46.8764C50.0678 46.8798 50.0607 46.8837 50.054 46.8871L49.8821 46.9731C49.8754 46.9764 49.8683 46.9804 49.8616 46.9838L49.7542 47.0375C49.7471 47.041 49.7387 47.0447 49.7317 47.0482L49.5384 47.1449C49.5313 47.1484 49.5229 47.1521 49.5159 47.1557L49.4944 47.1664C49.4874 47.17 49.48 47.1746 49.4729 47.1781L49.43 47.1996C49.4229 47.2031 49.4146 47.2068 49.4075 47.2104L49.343 47.2426C49.3359 47.2461 49.3277 47.2498 49.3206 47.2533C49.3136 47.2569 49.3061 47.2615 49.2991 47.265L49.2561 47.2865C49.249 47.2901 49.2408 47.2937 49.2337 47.2973L49.1907 47.3188C49.1836 47.3223 49.1753 47.3259 49.1682 47.3295C49.1612 47.3331 49.1538 47.3377 49.1468 47.3412L49.1253 47.352C49.1181 47.3555 49.1099 47.3591 49.1028 47.3627L49.0598 47.3842C49.0527 47.3877 49.0445 47.3914 49.0374 47.3949C49.0303 47.3985 49.023 47.4031 49.0159 47.4066L48.9944 47.4174C48.9873 47.4209 48.9791 47.4246 48.972 47.4281L48.9505 47.4389C48.9433 47.4424 48.9351 47.446 48.928 47.4496C48.9209 47.4532 48.9136 47.4578 48.9065 47.4613L48.885 47.4721C48.8779 47.4756 48.8697 47.4792 48.8626 47.4828L48.8411 47.4936C48.8339 47.4972 48.8258 47.5017 48.8186 47.5053L48.7971 47.516C48.79 47.5196 48.7818 47.5232 48.7747 47.5268L48.7532 47.5375C48.746 47.5411 48.7379 47.5447 48.7307 47.5482C48.7237 47.5518 48.7163 47.5564 48.7093 47.56C48.7021 47.5635 48.6939 47.5672 48.6868 47.5707L48.6438 47.5922C48.6366 47.5958 48.6285 47.6003 48.6214 47.6039L48.5999 47.6147C48.5927 47.6182 48.5846 47.6218 48.5774 47.6254L48.5559 47.6361C48.5488 47.6398 48.5406 47.6443 48.5335 47.6479L48.512 47.6586C48.5048 47.6622 48.4967 47.6658 48.4895 47.6693L48.468 47.6801C48.4609 47.6837 48.4527 47.6882 48.4456 47.6918L48.4241 47.7025L48.3792 47.724C48.3721 47.7276 48.3648 47.7322 48.3577 47.7357C48.3505 47.7393 48.3424 47.7429 48.3352 47.7465L48.3137 47.7572C48.3066 47.7608 48.2985 47.7644 48.2913 47.768C48.2842 47.7716 48.2769 47.7761 48.2698 47.7797C48.2626 47.7833 48.2545 47.7868 48.2473 47.7904L48.2259 47.8012C48.2187 47.8048 48.2106 47.8093 48.2034 47.8129L48.1819 47.8236C48.1747 47.8272 48.1666 47.8308 48.1595 47.8344L48.138 47.8451C48.1308 47.8487 48.1227 47.8533 48.1155 47.8568L48.094 47.8676C48.0868 47.8712 48.0787 47.8747 48.0716 47.8783C47.1347 48.3467 40.7577 51.5381 40.5657 51.6313C40.2394 51.7897 39.8861 52.0565 39.5374 52.3637C39.1792 52.6793 38.7872 53.0718 38.3811 53.515C37.5683 54.4024 36.6723 55.5224 35.8382 56.7055C35.0047 57.8876 34.2216 59.1495 33.6399 60.3217C33.0715 61.4673 32.6458 62.6238 32.6302 63.5639C32.6233 63.9777 32.9537 64.3192 33.3675 64.3266C33.7816 64.3335 34.1232 64.0024 34.1302 63.5883C34.1401 63.0017 34.4324 62.0996 34.9837 60.9887C35.5218 59.9041 36.2613 58.7093 37.0647 57.5697C37.8675 56.4312 38.7237 55.3626 39.4876 54.5287C39.8694 54.1119 40.2221 53.7597 40.5286 53.4897C40.8444 53.2115 41.0779 53.0504 41.221 52.9809L48.7639 49.2094C48.7711 49.2058 48.7792 49.2013 48.7864 49.1977C48.7935 49.1941 48.8017 49.1905 48.8089 49.1869L48.8303 49.1762C48.8375 49.1726 48.8456 49.169 48.8528 49.1654C48.8599 49.1619 48.8672 49.1573 48.8743 49.1537C48.8815 49.1501 48.8896 49.1465 48.8968 49.143L48.9182 49.1322C48.9254 49.1286 48.9335 49.1251 48.9407 49.1215C48.9478 49.1179 48.9551 49.1134 48.9622 49.1098C48.9694 49.1062 48.9775 49.1026 48.9846 49.099L49.0061 49.0883C49.0133 49.0847 49.0214 49.0802 49.0286 49.0766L49.0501 49.0658C49.0572 49.0622 49.0653 49.0587 49.0725 49.0551L49.094 49.0443C49.1012 49.0408 49.1093 49.0362 49.1165 49.0326L49.138 49.0219C49.1451 49.0183 49.1532 49.0147 49.1604 49.0111L49.1819 49.0004C49.1891 48.9968 49.1972 48.9923 49.2044 48.9887L49.2259 48.9779C49.233 48.9744 49.2411 48.9708 49.2483 48.9672L49.2698 48.9565C49.277 48.9529 49.2851 48.9483 49.2923 48.9447L49.3137 48.934C49.3209 48.9304 49.329 48.9268 49.3362 48.9232L49.3577 48.9125C49.3648 48.9089 49.373 48.9044 49.3802 48.9008L49.4016 48.89C49.4088 48.8865 49.4169 48.8829 49.4241 48.8793L49.4456 48.8686C49.4527 48.865 49.4609 48.8614 49.468 48.8578C49.4752 48.8543 49.4824 48.8497 49.4895 48.8461C49.4967 48.8425 49.5048 48.8389 49.512 48.8354L49.555 48.8139C49.5621 48.8103 49.5703 48.8058 49.5774 48.8022L49.5989 48.7914C49.606 48.7878 49.6142 48.7842 49.6214 48.7807L49.6643 48.7592C49.6715 48.7556 49.6796 48.7511 49.6868 48.7475L49.7083 48.7367C49.7154 48.7332 49.7236 48.7295 49.7307 48.726L49.7737 48.7045C49.7808 48.7009 49.789 48.6973 49.7962 48.6938C49.8032 48.6902 49.8106 48.6856 49.8177 48.682L49.8391 48.6713C49.8462 48.6677 49.8545 48.6641 49.8616 48.6606L49.9046 48.6391C49.9117 48.6355 49.9199 48.6319 49.927 48.6283C49.9341 48.6248 49.9415 48.6202 49.9485 48.6166L49.9915 48.5951C49.9986 48.5916 50.0068 48.5879 50.0139 48.5844L50.0784 48.5522C50.0855 48.5486 50.0938 48.5449 50.1009 48.5414L50.1223 48.5307C50.1294 48.5271 50.1368 48.5225 50.1438 48.519L50.2083 48.4867C50.2153 48.4832 50.2237 48.4795 50.2307 48.476L50.7034 48.2397C50.7101 48.2363 50.7172 48.2323 50.7239 48.2289L50.7884 48.1967C50.7952 48.1933 50.803 48.1903 50.8098 48.1869C50.8166 48.1835 50.8236 48.1796 50.8303 48.1762L50.8948 48.144C50.9015 48.1406 50.9086 48.1366 50.9153 48.1332L50.9368 48.1225C50.9436 48.1191 50.9514 48.1161 50.9583 48.1127C50.965 48.1093 50.9721 48.1053 50.9788 48.102L51.0003 48.0912C51.007 48.0878 51.0141 48.0839 51.0208 48.0805L51.0423 48.0697C51.0491 48.0663 51.0569 48.0633 51.0637 48.06C51.0705 48.0566 51.0775 48.0526 51.0843 48.0492L51.1057 48.0385C51.1125 48.0351 51.1195 48.0311 51.1262 48.0277C51.1331 48.0243 51.1409 48.0214 51.1477 48.018C51.1545 48.0146 51.1615 48.0106 51.1682 48.0072L51.1897 47.9965C51.1964 47.9931 51.2035 47.9891 51.2102 47.9857C51.2168 47.9824 51.2241 47.9793 51.2307 47.976L51.2522 47.9652C51.259 47.9619 51.266 47.9579 51.2727 47.9545C51.2795 47.9511 51.2874 47.9481 51.2942 47.9447L51.3352 47.9232C51.342 47.9199 51.3499 47.9168 51.3567 47.9135L51.3977 47.892C51.4043 47.8887 51.4116 47.8855 51.4182 47.8822C51.4249 47.8789 51.4321 47.8748 51.4387 47.8715C51.4455 47.8681 51.4535 47.8651 51.4602 47.8617L51.5012 47.8402C51.5079 47.8369 51.5151 47.8338 51.5218 47.8305C51.5285 47.8271 51.5356 47.8231 51.5423 47.8197C51.5489 47.8164 51.5562 47.8132 51.5628 47.81C51.5694 47.8066 51.5766 47.8026 51.5833 47.7992C51.5898 47.7959 51.5972 47.7927 51.6038 47.7895C51.6104 47.7862 51.6177 47.782 51.6243 47.7787C51.6308 47.7754 51.6382 47.7722 51.6448 47.769C51.6514 47.7656 51.6587 47.7615 51.6653 47.7582C51.6719 47.7549 51.6792 47.7517 51.6858 47.7484C51.6925 47.7451 51.6997 47.741 51.7063 47.7377C51.7129 47.7344 51.7202 47.7312 51.7268 47.7279C51.7335 47.7246 51.7407 47.7205 51.7473 47.7172L51.7884 47.6977C51.7948 47.6944 51.8014 47.6902 51.8079 47.6869C51.8144 47.6836 51.8218 47.6804 51.8284 47.6772C51.835 47.6739 51.8423 47.6697 51.8489 47.6664C51.8554 47.6632 51.8629 47.6599 51.8694 47.6566L51.8889 47.6469C51.8955 47.6436 51.9029 47.6395 51.9095 47.6361C51.916 47.6329 51.9234 47.6296 51.93 47.6264L51.9495 47.6166C51.956 47.6133 51.9634 47.6092 51.97 47.6059L51.9895 47.5961C51.9961 47.5928 52.0035 47.5896 52.01 47.5863L52.0296 47.5766C52.0361 47.5733 52.0435 47.5691 52.0501 47.5658L52.0696 47.5561C52.0761 47.5528 52.0836 47.5495 52.0901 47.5463L52.1096 47.5365C52.1161 47.5333 52.1237 47.53 52.1302 47.5268C52.1366 47.5236 52.1433 47.5193 52.1497 47.516L52.1692 47.5063C52.1757 47.503 52.1832 47.4997 52.1897 47.4965L52.2483 47.4672C52.2547 47.464 52.2624 47.4606 52.2688 47.4574L52.3079 47.4379C52.3143 47.4347 52.321 47.4304 52.3274 47.4272L52.4446 47.3686C52.4508 47.3654 52.4579 47.3628 52.4641 47.3598L52.4837 47.35C52.4898 47.347 52.4961 47.3433 52.5022 47.3402L52.5608 47.3109C52.5669 47.3079 52.5733 47.3042 52.5794 47.3012L52.5989 47.2914C52.6051 47.2883 52.6122 47.2857 52.6184 47.2826C52.6245 47.2796 52.6309 47.2759 52.637 47.2729L52.6761 47.2533C52.6821 47.2503 52.6886 47.2466 52.6946 47.2436C52.7008 47.2405 52.708 47.2378 52.7141 47.2348L52.7512 47.2152C52.7574 47.2122 52.7646 47.2095 52.7708 47.2065L52.8079 47.1869C52.814 47.1839 52.8213 47.1812 52.8274 47.1781L52.8645 47.1586C52.8705 47.1556 52.8771 47.1528 52.8831 47.1498L52.9026 47.14C52.9086 47.1371 52.9152 47.1342 52.9212 47.1313L52.9583 47.1117C52.9642 47.1088 52.9709 47.1059 52.9768 47.1029C52.9828 47.0999 52.9894 47.0962 52.9954 47.0932L53.0325 47.0756C53.0385 47.0726 53.0451 47.0688 53.0511 47.0658L53.0686 47.057C53.0746 47.0541 53.0812 47.0503 53.0872 47.0473L53.1243 47.0297C53.1301 47.0268 53.1361 47.0229 53.1419 47.0199L53.179 47.0023C53.1848 46.9994 53.1908 46.9955 53.1966 46.9926C53.2024 46.9896 53.2092 46.9867 53.2151 46.9838L53.2327 46.975C53.2385 46.9721 53.2454 46.9691 53.2512 46.9662C53.2571 46.9633 53.263 46.9594 53.2688 46.9565C53.2747 46.9535 53.2815 46.9506 53.2874 46.9477L53.3225 46.9301C53.3283 46.9272 53.3353 46.9242 53.3411 46.9213L53.3587 46.9125C53.3644 46.9096 53.3705 46.9057 53.3762 46.9027L53.552 46.8148C53.5576 46.8121 53.564 46.8098 53.5696 46.807C53.575 46.8043 53.5808 46.801 53.5862 46.7982L53.6214 46.7807C53.6268 46.7779 53.6325 46.7746 53.638 46.7719L53.6555 46.7631C53.661 46.7603 53.6676 46.758 53.6731 46.7553L53.7063 46.7377C53.7118 46.735 53.7184 46.7326 53.7239 46.7299C53.7293 46.7272 53.7351 46.7238 53.7405 46.7211L53.7581 46.7123C53.7634 46.7097 53.7694 46.7071 53.7747 46.7045L53.8079 46.6869C53.8132 46.6843 53.8192 46.6817 53.8245 46.6791C53.8298 46.6764 53.8358 46.673 53.8411 46.6703C53.8465 46.6676 53.8532 46.6652 53.8587 46.6625C53.864 46.6599 53.87 46.6564 53.8753 46.6537L53.8909 46.6459C53.8962 46.6433 53.9022 46.6398 53.9075 46.6371C53.9127 46.6345 53.9189 46.6319 53.9241 46.6293C53.9294 46.6266 53.9354 46.6232 53.9407 46.6205L53.9739 46.6049C53.9791 46.6023 53.9844 46.5987 53.9895 46.5961L54.0227 46.5805C54.0279 46.5779 54.0332 46.5743 54.0384 46.5717C54.0436 46.5691 54.0497 46.5665 54.055 46.5639L54.0706 46.5561C54.0758 46.5535 54.082 46.5508 54.0872 46.5482C54.0923 46.5457 54.0977 46.5421 54.1028 46.5395L54.1184 46.5316C54.1236 46.5291 54.1299 46.5264 54.135 46.5238L54.3225 46.4301C54.3273 46.4277 54.3324 46.4247 54.3372 46.4223L54.3528 46.4145C54.3575 46.4121 54.3628 46.4099 54.3675 46.4076L54.3831 46.3998C54.3879 46.3974 54.393 46.3944 54.3977 46.392L54.4134 46.3842C54.418 46.3819 54.4233 46.3796 54.428 46.3773L54.4436 46.3695C54.4483 46.3672 54.4536 46.3641 54.4583 46.3617C54.4629 46.3594 54.4683 46.3572 54.4729 46.3549C54.4777 46.3525 54.4829 46.3495 54.4876 46.3471C54.4922 46.3448 54.4976 46.3425 54.5022 46.3402L54.5178 46.3324C54.5224 46.3301 54.5279 46.3279 54.5325 46.3256C54.5372 46.3233 54.5425 46.3201 54.5471 46.3178L54.5608 46.3109C54.5654 46.3086 54.5708 46.3055 54.5755 46.3031C54.5801 46.3008 54.5855 46.2986 54.5901 46.2963C54.5948 46.294 54.6001 46.2908 54.6048 46.2885C54.6093 46.2862 54.6148 46.2839 54.6194 46.2816L54.6331 46.2748C54.6377 46.2725 54.6431 46.2693 54.6477 46.267C54.6523 46.2647 54.6578 46.2624 54.6624 46.2602L54.6761 46.2533C54.6806 46.251 54.6861 46.2487 54.6907 46.2465C54.6952 46.2443 54.6999 46.241 54.7044 46.2387L54.718 46.2318C54.7225 46.2296 54.7282 46.2272 54.7327 46.225L54.8694 46.1566C54.8736 46.1546 54.878 46.1519 54.8821 46.1498L54.8958 46.143C54.9 46.1409 54.9052 46.1392 54.9095 46.1371C54.9136 46.135 54.918 46.1324 54.9221 46.1303L54.9358 46.1234C54.9399 46.1214 54.9444 46.1187 54.9485 46.1166C54.9525 46.1146 54.9572 46.1127 54.9612 46.1107L54.9749 46.1039C54.979 46.1019 54.9835 46.0992 54.9876 46.0971C54.9916 46.0951 54.9963 46.0932 55.0003 46.0912C55.0043 46.0892 55.0089 46.0864 55.013 46.0844C55.0171 46.0823 55.0225 46.0805 55.0266 46.0785C55.0306 46.0765 55.0353 46.0737 55.0393 46.0717C55.0433 46.0697 55.0481 46.0678 55.052 46.0658C55.0559 46.0639 55.0599 46.061 55.0637 46.059C55.0677 46.057 55.0725 46.0551 55.0764 46.0531C55.0805 46.0511 55.0851 46.0483 55.0891 46.0463L55.1145 46.0346C55.1184 46.0326 55.1224 46.0297 55.1262 46.0277C55.1302 46.0258 55.135 46.0238 55.1389 46.0219L55.1507 46.016C55.1546 46.0141 55.1594 46.0121 55.1634 46.0102C55.1672 46.0082 55.1713 46.0053 55.1751 46.0033L55.1868 45.9975C55.1906 45.9955 55.1956 45.9935 55.1995 45.9916L55.2932 45.9447C55.2967 45.943 55.3005 45.9406 55.304 45.9389L55.3157 45.933C55.3193 45.9312 55.3238 45.9299 55.3274 45.9281C55.3309 45.9264 55.3347 45.924 55.3382 45.9223L55.3499 45.9164C55.3534 45.9147 55.3572 45.9123 55.3606 45.9106C55.3642 45.9088 55.3688 45.9074 55.3723 45.9057L55.3938 45.894C55.3972 45.8923 55.4012 45.8907 55.4046 45.8891C55.4079 45.8874 55.4119 45.8849 55.4153 45.8832C55.4188 45.8815 55.4235 45.88 55.427 45.8783C55.4304 45.8767 55.4344 45.8742 55.4378 45.8725L55.4475 45.8676C55.4509 45.8659 55.4549 45.8634 55.4583 45.8617L55.4798 45.852C55.4831 45.8503 55.4872 45.8478 55.4905 45.8461L55.5003 45.8412C55.5035 45.8396 55.5077 45.8379 55.511 45.8363C55.5142 45.8347 55.5176 45.8321 55.5208 45.8305C55.524 45.8289 55.5283 45.8272 55.5315 45.8256L55.5608 45.8109C55.564 45.8094 55.5683 45.8076 55.5716 45.8061L55.6106 45.7865C55.6135 45.7851 55.6166 45.7831 55.6194 45.7816L55.6389 45.7719C55.6418 45.7705 55.6449 45.7685 55.6477 45.767L55.6575 45.7621C55.6604 45.7607 55.6643 45.7596 55.6673 45.7582L55.6848 45.7484C55.6877 45.747 55.6917 45.7459 55.6946 45.7445L55.7122 45.7348C55.7149 45.7334 55.7183 45.7322 55.721 45.7309C55.7238 45.7295 55.727 45.7274 55.7298 45.726C55.7325 45.7246 55.7358 45.7234 55.7386 45.7221C55.7413 45.7207 55.7446 45.7186 55.7473 45.7172L55.7649 45.7094C55.7675 45.7081 55.7702 45.7059 55.7727 45.7045C55.7754 45.7032 55.7788 45.7019 55.7815 45.7006L55.7893 45.6967C55.7919 45.6954 55.7955 45.694 55.7981 45.6928C55.8007 45.6915 55.8034 45.6893 55.8059 45.6879C55.8085 45.6866 55.8121 45.6852 55.8147 45.684L55.8772 45.6527C55.8794 45.6516 55.8819 45.65 55.8841 45.6488L55.8919 45.6449C55.8941 45.6438 55.8974 45.643 55.8997 45.642L55.9134 45.6342C55.9156 45.6331 55.9189 45.6323 55.9212 45.6313L55.9348 45.6234C55.9369 45.6224 55.9396 45.6215 55.9417 45.6205C55.9437 45.6195 55.9464 45.6177 55.9485 45.6166C55.9505 45.6156 55.9533 45.6146 55.9553 45.6137C55.9574 45.6126 55.9601 45.6109 55.9622 45.6098C55.9642 45.6088 55.967 45.6078 55.969 45.6068C55.9711 45.6058 55.9738 45.604 55.9759 45.6029C55.9778 45.602 55.9807 45.6009 55.9827 45.6L55.9886 45.5971C55.9905 45.5961 55.9934 45.5951 55.9954 45.5941C55.9973 45.5932 55.9994 45.5913 56.0012 45.5902L56.0071 45.5873C56.009 45.5864 56.012 45.5853 56.0139 45.5844L56.0608 45.5609C56.0624 45.5602 56.0642 45.5588 56.0657 45.558C56.0674 45.5572 56.0699 45.5568 56.0716 45.5561C56.0731 45.5553 56.0749 45.554 56.0764 45.5531L56.0823 45.5502C56.0838 45.5495 56.0857 45.5481 56.0872 45.5473C56.0886 45.5466 56.0906 45.546 56.0921 45.5453C56.0935 45.5446 56.0955 45.5432 56.097 45.5424C56.0983 45.5417 56.1004 45.5411 56.1018 45.5404C56.1032 45.5397 56.1053 45.5383 56.1067 45.5375C56.108 45.5368 56.1102 45.5362 56.1116 45.5356C56.113 45.5348 56.115 45.5334 56.1165 45.5326L56.1262 45.5287C56.1275 45.5281 56.1289 45.5266 56.1302 45.5258C56.1315 45.5251 56.1336 45.5244 56.135 45.5238L56.1389 45.5219C56.1402 45.5212 56.1424 45.5205 56.1438 45.5199C56.1451 45.5193 56.1465 45.5178 56.1477 45.517L56.1751 45.5033C56.176 45.5028 56.1779 45.5027 56.179 45.5023C56.1799 45.5019 56.1811 45.5009 56.1819 45.5004L56.1858 45.4984C56.1867 45.498 56.1879 45.497 56.1887 45.4965L56.1917 45.4955L56.1956 45.4936L56.1985 45.4916L56.2014 45.4906L56.2044 45.4887L56.2102 45.4867L56.2132 45.4848L56.2151 45.4838L56.218 45.4818L56.22 45.4809L56.2229 45.4799L56.2268 45.4779L56.2298 45.477L56.2376 45.4731L56.2386 45.4721L56.2425 45.4701L56.2434 45.4691H56.2454L56.2473 45.4672H56.2483L56.2493 45.4662H56.2503L56.2512 45.4652L56.2532 45.4643H56.2552V45.4633H56.2561L56.2776 45.4516H56.2796C56.2802 45.4512 56.2815 45.4502 56.2825 45.4496C56.2849 45.4483 56.289 45.4461 56.2932 45.4438C56.3025 45.4387 56.3161 45.4307 56.3333 45.4213C56.3683 45.4021 56.4201 45.3743 56.4846 45.3383C56.6141 45.2661 56.799 45.1612 57.0218 45.0326C57.4673 44.7754 58.0696 44.4175 58.6878 44.019C59.3028 43.6224 59.9499 43.1756 60.4798 42.7397C60.7443 42.5219 60.992 42.2962 61.1956 42.0727C61.3902 41.8588 61.5883 41.5992 61.6966 41.3119C61.7508 41.1682 61.8566 40.9623 62.0159 40.6654C62.166 40.3857 62.3522 40.0441 62.5286 39.682C62.8744 38.972 63.2405 38.0663 63.2405 37.1488C63.2405 35.608 63.1914 35.4146 63.2395 34.517C63.2616 34.1035 62.944 33.7502 62.5305 33.7279Z" fill="#4B3C25"/>
</g>
<defs>
<filter id="filter0_n_322_2220" x="18.3527" y="18.4954" width="60.5924" height="60.8578" filterUnits="userSpaceOnUse" color-interpolation-filters="sRGB">
<feFlood flood-opacity="0" result="BackgroundImageFix"/>
<feBlend mode="normal" in="SourceGraphic" in2="BackgroundImageFix" result="shape"/>
<feTurbulence type="fractalNoise" baseFrequency="2 2" stitchTiles="stitch" numOctaves="3" result="noise" seed="7750" />
<feColorMatrix in="noise" type="luminanceToAlpha" result="alphaNoise" />
<feComponentTransfer in="alphaNoise" result="coloredNoise1">
<feFuncA type="discrete" tableValues="1 1 1 1 1 1 1 1 1 1 1 1 1 1 1 1 1 1 1 1 1 1 1 1 1 1 1 1 1 1 1 1 1 1 1 1 1 1 1 1 1 1 1 1 1 1 1 1 1 1 1 0 0 0 0 0 0 0 0 0 0 0 0 0 0 0 0 0 0 0 0 0 0 0 0 0 0 0 0 0 0 0 0 0 0 0 0 0 0 0 0 0 0 0 0 0 0 0 0 0 "/>
</feComponentTransfer>
<feComposite operator="in" in2="shape" in="coloredNoise1" result="noise1Clipped" />
<feFlood flood-color="rgba(0, 0, 0, 0.25)" result="color1Flood" />
<feComposite operator="in" in2="noise1Clipped" in="color1Flood" result="color1" />
<feMerge result="effect1_noise_322_2220">
<feMergeNode in="shape" />
<feMergeNode in="color1" />
</feMerge>
</filter>
</defs>
</svg>
