<svg width="500" height="390" viewBox="0 0 500 390" fill="none" xmlns="http://www.w3.org/2000/svg">
<rect y="25.0189" width="500" height="345.849" rx="6" fill="#FCF7E5"/>
<path d="M127.435 300.694C126.646 300.694 125.995 300.651 125.483 300.566C124.982 300.481 124.587 300.326 124.299 300.102C124.011 299.878 123.803 299.558 123.675 299.142C123.547 298.715 123.462 298.171 123.419 297.51C123.387 296.849 123.371 296.033 123.371 295.062C123.371 294.091 123.387 293.275 123.419 292.614C123.462 291.953 123.547 291.414 123.675 290.998C123.803 290.571 124.011 290.246 124.299 290.022C124.587 289.798 124.982 289.643 125.483 289.558C125.995 289.473 126.646 289.43 127.435 289.43C128.235 289.43 128.886 289.473 129.387 289.558C129.899 289.643 130.299 289.798 130.587 290.022C130.875 290.246 131.083 290.571 131.211 290.998C131.339 291.414 131.419 291.953 131.451 292.614C131.494 293.275 131.515 294.091 131.515 295.062C131.515 296.033 131.494 296.849 131.451 297.51C131.419 298.171 131.339 298.715 131.211 299.142C131.083 299.558 130.875 299.878 130.587 300.102C130.299 300.326 129.899 300.481 129.387 300.566C128.886 300.651 128.235 300.694 127.435 300.694ZM127.435 299.782C128.032 299.782 128.518 299.766 128.891 299.734C129.275 299.691 129.574 299.595 129.787 299.446C130 299.297 130.155 299.057 130.251 298.726C130.358 298.385 130.422 297.921 130.443 297.334C130.475 296.737 130.491 295.979 130.491 295.062C130.491 294.145 130.475 293.393 130.443 292.806C130.422 292.209 130.358 291.745 130.251 291.414C130.155 291.073 130 290.827 129.787 290.678C129.574 290.529 129.275 290.438 128.891 290.406C128.518 290.363 128.038 290.342 127.451 290.342C126.864 290.342 126.379 290.363 125.995 290.406C125.611 290.438 125.312 290.529 125.099 290.678C124.886 290.827 124.726 291.073 124.619 291.414C124.523 291.745 124.459 292.209 124.427 292.806C124.406 293.393 124.395 294.145 124.395 295.062C124.395 295.979 124.406 296.737 124.427 297.334C124.459 297.921 124.523 298.385 124.619 298.726C124.726 299.057 124.886 299.297 125.099 299.446C125.312 299.595 125.611 299.691 125.995 299.734C126.379 299.766 126.859 299.782 127.435 299.782ZM138.28 300.694C137.395 300.694 136.675 300.63 136.12 300.502C135.566 300.374 135.139 300.182 134.84 299.926C134.552 299.659 134.355 299.339 134.248 298.966C134.142 298.582 134.088 298.134 134.088 297.622C134.088 296.982 134.163 296.491 134.312 296.15C134.462 295.798 134.686 295.537 134.984 295.366C135.283 295.195 135.651 295.067 136.088 294.982V294.918C135.427 294.79 134.942 294.529 134.632 294.134C134.334 293.729 134.184 293.126 134.184 292.326C134.184 291.825 134.243 291.393 134.36 291.03C134.488 290.667 134.702 290.369 135 290.134C135.31 289.899 135.731 289.723 136.264 289.606C136.798 289.489 137.47 289.43 138.28 289.43C139.091 289.43 139.763 289.489 140.296 289.606C140.83 289.723 141.246 289.899 141.544 290.134C141.854 290.369 142.067 290.667 142.184 291.03C142.312 291.393 142.376 291.825 142.376 292.326C142.376 293.126 142.222 293.729 141.912 294.134C141.614 294.529 141.134 294.79 140.472 294.918V294.982C140.91 295.067 141.278 295.195 141.576 295.366C141.875 295.537 142.099 295.798 142.248 296.15C142.398 296.491 142.472 296.982 142.472 297.622C142.472 298.134 142.419 298.582 142.312 298.966C142.206 299.339 142.003 299.659 141.704 299.926C141.416 300.182 140.995 300.374 140.44 300.502C139.896 300.63 139.176 300.694 138.28 300.694ZM138.28 299.782C139.091 299.782 139.726 299.734 140.184 299.638C140.643 299.531 140.963 299.323 141.144 299.014C141.336 298.705 141.432 298.251 141.432 297.654C141.432 297.174 141.384 296.79 141.288 296.502C141.203 296.214 141.043 295.995 140.808 295.846C140.584 295.686 140.264 295.579 139.848 295.526C139.443 295.473 138.92 295.446 138.28 295.446C137.64 295.446 137.112 295.473 136.696 295.526C136.291 295.579 135.971 295.686 135.736 295.846C135.512 295.995 135.352 296.214 135.256 296.502C135.171 296.79 135.128 297.174 135.128 297.654C135.128 298.251 135.219 298.705 135.4 299.014C135.592 299.323 135.918 299.531 136.376 299.638C136.835 299.734 137.47 299.782 138.28 299.782ZM138.28 294.55C139.102 294.55 139.731 294.491 140.168 294.374C140.616 294.257 140.92 294.043 141.08 293.734C141.251 293.425 141.336 292.998 141.336 292.454C141.336 291.889 141.256 291.457 141.096 291.158C140.936 290.849 140.638 290.635 140.2 290.518C139.763 290.39 139.123 290.326 138.28 290.326C137.438 290.326 136.798 290.39 136.36 290.518C135.923 290.635 135.624 290.849 135.464 291.158C135.304 291.457 135.224 291.889 135.224 292.454C135.224 292.998 135.304 293.425 135.464 293.734C135.635 294.043 135.939 294.257 136.376 294.374C136.824 294.491 137.459 294.55 138.28 294.55Z" fill="#1A1919"/>
<path d="M203.008 300.566V290.758L200.688 291.926V290.982L203.28 289.558H204.032V300.566H203.008ZM211.314 300.694C210.524 300.694 209.874 300.651 209.362 300.566C208.86 300.481 208.466 300.326 208.178 300.102C207.89 299.878 207.682 299.558 207.554 299.142C207.426 298.715 207.34 298.171 207.298 297.51C207.266 296.849 207.25 296.033 207.25 295.062C207.25 294.091 207.266 293.275 207.298 292.614C207.34 291.953 207.426 291.414 207.554 290.998C207.682 290.571 207.89 290.246 208.178 290.022C208.466 289.798 208.86 289.643 209.362 289.558C209.874 289.473 210.524 289.43 211.314 289.43C212.114 289.43 212.764 289.473 213.266 289.558C213.778 289.643 214.178 289.798 214.466 290.022C214.754 290.246 214.962 290.571 215.09 290.998C215.218 291.414 215.298 291.953 215.33 292.614C215.372 293.275 215.394 294.091 215.394 295.062C215.394 296.033 215.372 296.849 215.33 297.51C215.298 298.171 215.218 298.715 215.09 299.142C214.962 299.558 214.754 299.878 214.466 300.102C214.178 300.326 213.778 300.481 213.266 300.566C212.764 300.651 212.114 300.694 211.314 300.694ZM211.314 299.782C211.911 299.782 212.396 299.766 212.77 299.734C213.154 299.691 213.452 299.595 213.666 299.446C213.879 299.297 214.034 299.057 214.13 298.726C214.236 298.385 214.3 297.921 214.322 297.334C214.354 296.737 214.37 295.979 214.37 295.062C214.37 294.145 214.354 293.393 214.322 292.806C214.3 292.209 214.236 291.745 214.13 291.414C214.034 291.073 213.879 290.827 213.666 290.678C213.452 290.529 213.154 290.438 212.77 290.406C212.396 290.363 211.916 290.342 211.33 290.342C210.743 290.342 210.258 290.363 209.874 290.406C209.49 290.438 209.191 290.529 208.978 290.678C208.764 290.827 208.604 291.073 208.498 291.414C208.402 291.745 208.338 292.209 208.306 292.806C208.284 293.393 208.274 294.145 208.274 295.062C208.274 295.979 208.284 296.737 208.306 297.334C208.338 297.921 208.402 298.385 208.498 298.726C208.604 299.057 208.764 299.297 208.978 299.446C209.191 299.595 209.49 299.691 209.874 299.734C210.258 299.766 210.738 299.782 211.314 299.782Z" fill="#1A1919"/>
<path d="M282.42 300.566V290.758L280.1 291.926V290.982L282.692 289.558H283.444V300.566H282.42ZM286.533 300.566V299.35C286.533 298.742 286.544 298.241 286.565 297.846C286.597 297.451 286.666 297.126 286.773 296.87C286.89 296.614 287.072 296.395 287.317 296.214C287.573 296.022 287.93 295.83 288.389 295.638L291.461 294.31C291.856 294.139 292.149 293.974 292.341 293.814C292.544 293.643 292.682 293.441 292.757 293.206C292.832 292.971 292.869 292.667 292.869 292.294C292.869 291.729 292.789 291.307 292.629 291.03C292.469 290.753 292.181 290.571 291.765 290.486C291.36 290.39 290.778 290.342 290.021 290.342C289.754 290.342 289.429 290.353 289.045 290.374C288.672 290.385 288.282 290.406 287.877 290.438C287.482 290.459 287.109 290.486 286.757 290.518V289.67C287.056 289.627 287.408 289.59 287.813 289.558C288.218 289.515 288.64 289.483 289.077 289.462C289.514 289.441 289.925 289.43 290.309 289.43C290.81 289.43 291.274 289.457 291.701 289.51C292.138 289.553 292.522 289.665 292.853 289.846C293.184 290.017 293.44 290.289 293.621 290.662C293.802 291.025 293.893 291.521 293.893 292.15C293.893 292.769 293.829 293.265 293.701 293.638C293.573 294.001 293.36 294.299 293.061 294.534C292.773 294.758 292.384 294.977 291.893 295.19L288.405 296.678C288.117 296.806 287.909 296.955 287.781 297.126C287.664 297.286 287.594 297.499 287.573 297.766C287.552 298.022 287.541 298.358 287.541 298.774V299.654H293.893V300.566H286.533Z" fill="#1A1919"/>
<path d="M360.361 300.566V290.758L358.041 291.926V290.982L360.633 289.558H361.385V300.566H360.361ZM370.043 300.566V297.894H364.091V297.078L368.443 289.558H369.595L365.243 296.982H370.059L370.219 292.678H371.067V296.982H372.747V297.894H371.067V300.566H370.043Z" fill="#1A1919"/>
<path d="M70.7177 138.679V127.671H72.5737L76.3337 136.439H76.4137L80.1577 127.671H82.0137V138.679H80.6697V129.879H80.6057L76.8457 138.679H75.8377L72.0777 129.879H72.0137V138.679H70.7177ZM84.0657 138.679L88.2257 127.671H89.9537L94.0977 138.679H92.6737L91.5377 135.671H86.5937L85.4577 138.679H84.0657ZM87.0097 134.471H91.1217L89.1057 129.079H89.0257L87.0097 134.471ZM96.1552 138.679V127.671H97.5632L103.275 136.103H103.339V127.671H104.667V138.679H103.339L97.5472 130.087H97.4832V138.679H96.1552ZM107.282 138.679V137.111H108.802V138.679H107.282Z" fill="#4B3C25"/>
<path d="M69.1177 141.511H109.826V142.071H69.1177V141.511Z" fill="#4B3C25"/>
<path d="M152.673 138.679V128.599H149.089V127.671H157.281V128.599H153.697V138.679H152.673ZM159.522 138.679V127.671H160.546V138.679H159.522ZM163.96 138.679V127.671H168.952C169.645 127.671 170.189 127.757 170.584 127.927C170.978 128.098 171.272 128.338 171.464 128.647C171.656 128.946 171.778 129.293 171.832 129.687C171.885 130.071 171.912 130.482 171.912 130.919C171.912 131.325 171.874 131.741 171.8 132.167C171.736 132.583 171.581 132.957 171.336 133.287C171.09 133.607 170.696 133.842 170.152 133.991L172.056 138.679H170.936L169.064 133.943L169.4 134.103C169.325 134.125 169.229 134.141 169.112 134.151C168.994 134.162 168.829 134.167 168.616 134.167H164.984V138.679H163.96ZM164.984 133.255H168.504C169.058 133.255 169.496 133.202 169.816 133.095C170.136 132.989 170.37 132.834 170.52 132.631C170.68 132.429 170.781 132.183 170.824 131.895C170.866 131.607 170.888 131.282 170.888 130.919C170.888 130.546 170.866 130.215 170.824 129.927C170.792 129.639 170.706 129.394 170.568 129.191C170.429 128.989 170.21 128.839 169.912 128.743C169.613 128.637 169.202 128.583 168.68 128.583H164.984V133.255ZM178.482 138.807C178.087 138.807 177.66 138.797 177.202 138.775C176.743 138.765 176.295 138.738 175.858 138.695C175.42 138.663 175.026 138.631 174.674 138.599V137.703C175.047 137.735 175.447 137.767 175.874 137.799C176.3 137.831 176.716 137.858 177.122 137.879C177.527 137.89 177.879 137.895 178.178 137.895C178.732 137.895 179.186 137.874 179.538 137.831C179.9 137.789 180.215 137.693 180.482 137.543C180.674 137.437 180.812 137.293 180.898 137.111C180.983 136.919 181.036 136.706 181.058 136.471C181.079 136.226 181.09 135.965 181.09 135.687C181.09 135.271 181.079 134.935 181.058 134.679C181.036 134.423 180.972 134.231 180.866 134.103C180.759 133.965 180.588 133.863 180.354 133.799C180.119 133.735 179.794 133.682 179.378 133.639L176.562 133.335C176.05 133.282 175.644 133.181 175.346 133.031C175.047 132.882 174.823 132.69 174.674 132.455C174.535 132.221 174.444 131.943 174.402 131.623C174.37 131.303 174.354 130.941 174.354 130.535C174.354 129.895 174.434 129.378 174.594 128.983C174.764 128.589 175.01 128.29 175.33 128.087C175.66 127.874 176.066 127.73 176.546 127.655C177.036 127.581 177.602 127.543 178.242 127.543C178.647 127.543 179.058 127.554 179.474 127.575C179.9 127.597 180.295 127.623 180.658 127.655C181.031 127.687 181.335 127.73 181.57 127.783V128.647C181.282 128.605 180.951 128.573 180.578 128.551C180.215 128.519 179.842 128.498 179.458 128.487C179.084 128.466 178.732 128.455 178.402 128.455C177.772 128.455 177.26 128.487 176.866 128.551C176.482 128.605 176.178 128.711 175.954 128.871C175.698 129.021 175.538 129.239 175.474 129.527C175.41 129.815 175.378 130.151 175.378 130.535C175.378 130.994 175.41 131.351 175.474 131.607C175.538 131.853 175.671 132.029 175.874 132.135C176.087 132.242 176.407 132.317 176.834 132.359L179.554 132.663C179.97 132.695 180.338 132.749 180.658 132.823C180.978 132.887 181.244 132.999 181.458 133.159C181.671 133.309 181.831 133.543 181.938 133.863C181.991 134.002 182.028 134.157 182.05 134.327C182.082 134.498 182.103 134.69 182.114 134.903C182.124 135.117 182.13 135.351 182.13 135.607C182.13 136.205 182.071 136.701 181.954 137.095C181.847 137.49 181.687 137.805 181.474 138.039C181.26 138.263 180.999 138.434 180.69 138.551C180.391 138.658 180.055 138.727 179.682 138.759C179.319 138.791 178.919 138.807 178.482 138.807ZM184.319 138.679V137.351H185.503V138.679H184.319Z" fill="#948974"/>
<path d="M229.289 138.807C228.447 138.807 227.748 138.765 227.193 138.679C226.649 138.594 226.217 138.439 225.897 138.215C225.577 137.991 225.343 137.671 225.193 137.255C225.044 136.829 224.948 136.285 224.905 135.623C224.863 134.962 224.841 134.146 224.841 133.175C224.841 132.205 224.863 131.389 224.905 130.727C224.948 130.066 225.044 129.527 225.193 129.111C225.343 128.685 225.577 128.359 225.897 128.135C226.217 127.911 226.649 127.757 227.193 127.671C227.748 127.586 228.447 127.543 229.289 127.543C230.132 127.543 230.825 127.586 231.369 127.671C231.924 127.757 232.361 127.911 232.681 128.135C233.001 128.359 233.236 128.685 233.385 129.111C233.535 129.527 233.631 130.066 233.673 130.727C233.716 131.389 233.737 132.205 233.737 133.175C233.737 134.146 233.716 134.962 233.673 135.623C233.631 136.285 233.535 136.829 233.385 137.255C233.236 137.671 233.001 137.991 232.681 138.215C232.361 138.439 231.924 138.594 231.369 138.679C230.825 138.765 230.132 138.807 229.289 138.807ZM229.289 137.895C229.929 137.895 230.457 137.879 230.873 137.847C231.289 137.815 231.62 137.725 231.865 137.575C232.111 137.426 232.297 137.186 232.425 136.855C232.553 136.514 232.633 136.05 232.665 135.463C232.697 134.866 232.713 134.103 232.713 133.175C232.713 132.247 232.697 131.49 232.665 130.903C232.633 130.306 232.553 129.842 232.425 129.511C232.297 129.17 232.111 128.925 231.865 128.775C231.62 128.626 231.289 128.535 230.873 128.503C230.457 128.471 229.929 128.455 229.289 128.455C228.66 128.455 228.137 128.471 227.721 128.503C227.305 128.535 226.969 128.626 226.713 128.775C226.468 128.925 226.281 129.17 226.153 129.511C226.036 129.842 225.956 130.306 225.913 130.903C225.881 131.49 225.865 132.247 225.865 133.175C225.865 134.103 225.881 134.866 225.913 135.463C225.956 136.05 226.036 136.514 226.153 136.855C226.281 137.186 226.468 137.426 226.713 137.575C226.969 137.725 227.305 137.815 227.721 137.847C228.137 137.879 228.66 137.895 229.289 137.895ZM236.757 138.679V127.671H237.797L244.053 136.775H244.117V127.671H245.109V138.679H244.117L237.813 129.479H237.749V138.679H236.757ZM252.107 138.807C251.712 138.807 251.285 138.797 250.827 138.775C250.368 138.765 249.92 138.738 249.483 138.695C249.045 138.663 248.651 138.631 248.299 138.599V137.703C248.672 137.735 249.072 137.767 249.499 137.799C249.925 137.831 250.341 137.858 250.747 137.879C251.152 137.89 251.504 137.895 251.803 137.895C252.357 137.895 252.811 137.874 253.163 137.831C253.525 137.789 253.84 137.693 254.107 137.543C254.299 137.437 254.437 137.293 254.523 137.111C254.608 136.919 254.661 136.706 254.683 136.471C254.704 136.226 254.715 135.965 254.715 135.687C254.715 135.271 254.704 134.935 254.683 134.679C254.661 134.423 254.597 134.231 254.491 134.103C254.384 133.965 254.213 133.863 253.979 133.799C253.744 133.735 253.419 133.682 253.003 133.639L250.187 133.335C249.675 133.282 249.269 133.181 248.971 133.031C248.672 132.882 248.448 132.69 248.299 132.455C248.16 132.221 248.069 131.943 248.027 131.623C247.995 131.303 247.979 130.941 247.979 130.535C247.979 129.895 248.059 129.378 248.219 128.983C248.389 128.589 248.635 128.29 248.955 128.087C249.285 127.874 249.691 127.73 250.171 127.655C250.661 127.581 251.227 127.543 251.867 127.543C252.272 127.543 252.683 127.554 253.099 127.575C253.525 127.597 253.92 127.623 254.283 127.655C254.656 127.687 254.96 127.73 255.195 127.783V128.647C254.907 128.605 254.576 128.573 254.203 128.551C253.84 128.519 253.467 128.498 253.083 128.487C252.709 128.466 252.357 128.455 252.027 128.455C251.397 128.455 250.885 128.487 250.491 128.551C250.107 128.605 249.803 128.711 249.579 128.871C249.323 129.021 249.163 129.239 249.099 129.527C249.035 129.815 249.003 130.151 249.003 130.535C249.003 130.994 249.035 131.351 249.099 131.607C249.163 131.853 249.296 132.029 249.499 132.135C249.712 132.242 250.032 132.317 250.459 132.359L253.179 132.663C253.595 132.695 253.963 132.749 254.283 132.823C254.603 132.887 254.869 132.999 255.083 133.159C255.296 133.309 255.456 133.543 255.563 133.863C255.616 134.002 255.653 134.157 255.675 134.327C255.707 134.498 255.728 134.69 255.739 134.903C255.749 135.117 255.755 135.351 255.755 135.607C255.755 136.205 255.696 136.701 255.579 137.095C255.472 137.49 255.312 137.805 255.099 138.039C254.885 138.263 254.624 138.434 254.315 138.551C254.016 138.658 253.68 138.727 253.307 138.759C252.944 138.791 252.544 138.807 252.107 138.807ZM257.944 138.679V137.351H259.128V138.679H257.944Z" fill="#948974"/>
<path d="M301.203 138.679V128.599H297.619V127.671H305.811V128.599H302.227V138.679H301.203ZM312.115 138.807C311.273 138.807 310.574 138.765 310.019 138.679C309.475 138.594 309.043 138.439 308.723 138.215C308.403 137.991 308.169 137.671 308.019 137.255C307.87 136.829 307.774 136.285 307.731 135.623C307.689 134.962 307.667 134.146 307.667 133.175C307.667 132.205 307.689 131.389 307.731 130.727C307.774 130.066 307.87 129.527 308.019 129.111C308.169 128.685 308.403 128.359 308.723 128.135C309.043 127.911 309.475 127.757 310.019 127.671C310.574 127.586 311.273 127.543 312.115 127.543C312.958 127.543 313.651 127.586 314.195 127.671C314.75 127.757 315.187 127.911 315.507 128.135C315.827 128.359 316.062 128.685 316.211 129.111C316.361 129.527 316.457 130.066 316.499 130.727C316.542 131.389 316.563 132.205 316.563 133.175C316.563 134.146 316.542 134.962 316.499 135.623C316.457 136.285 316.361 136.829 316.211 137.255C316.062 137.671 315.827 137.991 315.507 138.215C315.187 138.439 314.75 138.594 314.195 138.679C313.651 138.765 312.958 138.807 312.115 138.807ZM312.115 137.895C312.755 137.895 313.283 137.879 313.699 137.847C314.115 137.815 314.446 137.725 314.691 137.575C314.937 137.426 315.123 137.186 315.251 136.855C315.379 136.514 315.459 136.05 315.491 135.463C315.523 134.866 315.539 134.103 315.539 133.175C315.539 132.247 315.523 131.49 315.491 130.903C315.459 130.306 315.379 129.842 315.251 129.511C315.123 129.17 314.937 128.925 314.691 128.775C314.446 128.626 314.115 128.535 313.699 128.503C313.283 128.471 312.755 128.455 312.115 128.455C311.486 128.455 310.963 128.471 310.547 128.503C310.131 128.535 309.795 128.626 309.539 128.775C309.294 128.925 309.107 129.17 308.979 129.511C308.862 129.842 308.782 130.306 308.739 130.903C308.707 131.49 308.691 132.247 308.691 133.175C308.691 134.103 308.707 134.866 308.739 135.463C308.782 136.05 308.862 136.514 308.979 136.855C309.107 137.186 309.294 137.426 309.539 137.575C309.795 137.725 310.131 137.815 310.547 137.847C310.963 137.879 311.486 137.895 312.115 137.895ZM319.583 138.679V127.671H324.575C325.268 127.671 325.812 127.757 326.207 127.927C326.601 128.098 326.895 128.338 327.087 128.647C327.279 128.946 327.401 129.293 327.455 129.687C327.508 130.071 327.535 130.482 327.535 130.919C327.535 131.325 327.497 131.741 327.423 132.167C327.359 132.583 327.204 132.957 326.959 133.287C326.713 133.607 326.319 133.842 325.775 133.991L327.679 138.679H326.559L324.687 133.943L325.023 134.103C324.948 134.125 324.852 134.141 324.735 134.151C324.617 134.162 324.452 134.167 324.239 134.167H320.607V138.679H319.583ZM320.607 133.255H324.127C324.681 133.255 325.119 133.202 325.439 133.095C325.759 132.989 325.993 132.834 326.143 132.631C326.303 132.429 326.404 132.183 326.447 131.895C326.489 131.607 326.511 131.282 326.511 130.919C326.511 130.546 326.489 130.215 326.447 129.927C326.415 129.639 326.329 129.394 326.191 129.191C326.052 128.989 325.833 128.839 325.535 128.743C325.236 128.637 324.825 128.583 324.303 128.583H320.607V133.255ZM334.105 138.807C333.71 138.807 333.283 138.797 332.825 138.775C332.366 138.765 331.918 138.738 331.481 138.695C331.043 138.663 330.649 138.631 330.297 138.599V137.703C330.67 137.735 331.07 137.767 331.497 137.799C331.923 137.831 332.339 137.858 332.745 137.879C333.15 137.89 333.502 137.895 333.801 137.895C334.355 137.895 334.809 137.874 335.161 137.831C335.523 137.789 335.838 137.693 336.105 137.543C336.297 137.437 336.435 137.293 336.521 137.111C336.606 136.919 336.659 136.706 336.681 136.471C336.702 136.226 336.713 135.965 336.713 135.687C336.713 135.271 336.702 134.935 336.681 134.679C336.659 134.423 336.595 134.231 336.489 134.103C336.382 133.965 336.211 133.863 335.977 133.799C335.742 133.735 335.417 133.682 335.001 133.639L332.185 133.335C331.673 133.282 331.267 133.181 330.969 133.031C330.67 132.882 330.446 132.69 330.297 132.455C330.158 132.221 330.067 131.943 330.025 131.623C329.993 131.303 329.977 130.941 329.977 130.535C329.977 129.895 330.057 129.378 330.217 128.983C330.387 128.589 330.633 128.29 330.953 128.087C331.283 127.874 331.689 127.73 332.169 127.655C332.659 127.581 333.225 127.543 333.865 127.543C334.27 127.543 334.681 127.554 335.097 127.575C335.523 127.597 335.918 127.623 336.281 127.655C336.654 127.687 336.958 127.73 337.193 127.783V128.647C336.905 128.605 336.574 128.573 336.201 128.551C335.838 128.519 335.465 128.498 335.081 128.487C334.707 128.466 334.355 128.455 334.025 128.455C333.395 128.455 332.883 128.487 332.489 128.551C332.105 128.605 331.801 128.711 331.577 128.871C331.321 129.021 331.161 129.239 331.097 129.527C331.033 129.815 331.001 130.151 331.001 130.535C331.001 130.994 331.033 131.351 331.097 131.607C331.161 131.853 331.294 132.029 331.497 132.135C331.71 132.242 332.03 132.317 332.457 132.359L335.177 132.663C335.593 132.695 335.961 132.749 336.281 132.823C336.601 132.887 336.867 132.999 337.081 133.159C337.294 133.309 337.454 133.543 337.561 133.863C337.614 134.002 337.651 134.157 337.673 134.327C337.705 134.498 337.726 134.69 337.737 134.903C337.747 135.117 337.753 135.351 337.753 135.607C337.753 136.205 337.694 136.701 337.577 137.095C337.47 137.49 337.31 137.805 337.097 138.039C336.883 138.263 336.622 138.434 336.313 138.551C336.014 138.658 335.678 138.727 335.305 138.759C334.942 138.791 334.542 138.807 334.105 138.807ZM339.942 138.679V137.351H341.126V138.679H339.942Z" fill="#948974"/>
<path d="M385.52 138.679V127.671H392.208V128.583H386.544V132.903H391.616V133.799H386.544V138.679H385.52ZM394.535 138.679V127.671H399.527C400.221 127.671 400.765 127.757 401.159 127.927C401.554 128.098 401.847 128.338 402.039 128.647C402.231 128.946 402.354 129.293 402.407 129.687C402.461 130.071 402.487 130.482 402.487 130.919C402.487 131.325 402.45 131.741 402.375 132.167C402.311 132.583 402.157 132.957 401.911 133.287C401.666 133.607 401.271 133.842 400.727 133.991L402.631 138.679H401.511L399.639 133.943L399.975 134.103C399.901 134.125 399.805 134.141 399.687 134.151C399.57 134.162 399.405 134.167 399.191 134.167H395.559V138.679H394.535ZM395.559 133.255H399.079C399.634 133.255 400.071 133.202 400.391 133.095C400.711 132.989 400.946 132.834 401.095 132.631C401.255 132.429 401.357 132.183 401.399 131.895C401.442 131.607 401.463 131.282 401.463 130.919C401.463 130.546 401.442 130.215 401.399 129.927C401.367 129.639 401.282 129.394 401.143 129.191C401.005 128.989 400.786 128.839 400.487 128.743C400.189 128.637 399.778 128.583 399.255 128.583H395.559V133.255ZM405.457 138.679V127.671H412.465V128.583H406.481V132.663H411.713V133.575H406.481V137.767H412.465V138.679H405.457ZM414.395 138.679V137.351H415.579V138.679H414.395Z" fill="#948974"/>
<line x1="133.323" y1="283.538" x2="133.323" y2="274.236" stroke="#1A1919" stroke-linecap="round"/>
<line x1="211.265" y1="283.538" x2="211.265" y2="274.236" stroke="#1A1919" stroke-linecap="round"/>
<line x1="290.676" y1="283.538" x2="290.676" y2="274.236" stroke="#1A1919" stroke-linecap="round"/>
<line x1="368.618" y1="283.538" x2="368.618" y2="274.236" stroke="#1A1919" stroke-linecap="round"/>
<line x1="76.9707" y1="274.708" x2="424.5" y2="274.708" stroke="#1A1919" stroke-linecap="round"/>
<line x1="76.9707" y1="246.745" x2="424.5" y2="246.745" stroke="#707070" stroke-linecap="round"/>
<line x1="76.9707" y1="217.311" x2="424.5" y2="217.311" stroke="#707070" stroke-linecap="round"/>
<line x1="76.9707" y1="187.877" x2="424.5" y2="187.877" stroke="#707070" stroke-linecap="round"/>
<path d="M65.3529 76.3396V66.7076H66.2489V75.5276H70.9249V76.3396H65.3529ZM72.6344 67.0156V65.9376H73.5864V67.0156H72.6344ZM72.6764 76.3396V69.1996H73.5304V76.3396H72.6764ZM78.0117 76.3396L75.2537 69.1996H76.1637L78.4737 75.3736H78.5717L80.8817 69.1996H81.7637L79.0197 76.3396H78.0117ZM86.1682 76.4516C85.6082 76.4516 85.1415 76.4143 84.7682 76.3396C84.3948 76.2743 84.0915 76.1576 83.8582 75.9896C83.6248 75.8216 83.4475 75.5976 83.3262 75.3176C83.2142 75.0283 83.1348 74.6783 83.0882 74.2676C83.0508 73.8476 83.0322 73.3529 83.0322 72.7836C83.0322 72.1023 83.0602 71.5283 83.1162 71.0616C83.1722 70.5856 83.2935 70.2029 83.4802 69.9136C83.6762 69.6243 83.9842 69.4143 84.4042 69.2836C84.8335 69.1529 85.4168 69.0876 86.1542 69.0876C86.6862 69.0876 87.1202 69.1296 87.4562 69.2136C87.8015 69.2883 88.0722 69.4143 88.2682 69.5916C88.4735 69.7596 88.6228 69.9883 88.7162 70.2776C88.8095 70.5669 88.8702 70.9169 88.8982 71.3276C88.9262 71.7383 88.9402 72.2189 88.9402 72.7696V73.0636H83.8862C83.8862 73.6049 83.9095 74.0483 83.9562 74.3936C84.0122 74.7389 84.1148 75.0096 84.2642 75.2056C84.4228 75.4016 84.6655 75.5369 84.9922 75.6116C85.3282 75.6863 85.7762 75.7236 86.3362 75.7236C86.5695 75.7236 86.8262 75.7143 87.1062 75.6956C87.3862 75.6769 87.6615 75.6583 87.9322 75.6396C88.2028 75.6116 88.4455 75.5789 88.6602 75.5416V76.2556C88.4735 76.2929 88.2402 76.3256 87.9602 76.3536C87.6802 76.3909 87.3862 76.4143 87.0782 76.4236C86.7702 76.4423 86.4668 76.4516 86.1682 76.4516ZM88.1142 72.6576V72.1956C88.1142 71.6636 88.0815 71.2389 88.0162 70.9216C87.9508 70.6043 87.8435 70.3663 87.6942 70.2076C87.5448 70.0489 87.3395 69.9463 87.0782 69.8996C86.8262 69.8436 86.5042 69.8156 86.1122 69.8156C85.6175 69.8156 85.2208 69.8483 84.9222 69.9136C84.6235 69.9789 84.3995 70.1049 84.2502 70.2916C84.1008 70.4689 84.0028 70.7256 83.9562 71.0616C83.9095 71.3976 83.8862 71.8456 83.8862 72.4056H88.3802L88.1142 72.6576ZM90.7961 70.3616V69.1996H91.8321V70.3616H90.7961ZM90.7961 76.3396V75.1776H91.8321V76.3396H90.7961ZM97.4408 76.3396V66.7076H98.6448L102.299 74.9116H102.369L106.023 66.7076H107.199V76.3396H106.331V68.2196H106.275L102.649 76.3396H101.963L98.3508 68.2196H98.2948V76.3396H97.4408ZM112.801 76.4516C112.241 76.4516 111.774 76.4143 111.401 76.3396C111.028 76.2743 110.724 76.1576 110.491 75.9896C110.258 75.8216 110.08 75.5976 109.959 75.3176C109.847 75.0283 109.768 74.6783 109.721 74.2676C109.684 73.8476 109.665 73.3529 109.665 72.7836C109.665 72.1023 109.693 71.5283 109.749 71.0616C109.805 70.5856 109.926 70.2029 110.113 69.9136C110.309 69.6243 110.617 69.4143 111.037 69.2836C111.466 69.1529 112.05 69.0876 112.787 69.0876C113.319 69.0876 113.753 69.1296 114.089 69.2136C114.434 69.2883 114.705 69.4143 114.901 69.5916C115.106 69.7596 115.256 69.9883 115.349 70.2776C115.442 70.5669 115.503 70.9169 115.531 71.3276C115.559 71.7383 115.573 72.2189 115.573 72.7696V73.0636H110.519C110.519 73.6049 110.542 74.0483 110.589 74.3936C110.645 74.7389 110.748 75.0096 110.897 75.2056C111.056 75.4016 111.298 75.5369 111.625 75.6116C111.961 75.6863 112.409 75.7236 112.969 75.7236C113.202 75.7236 113.459 75.7143 113.739 75.6956C114.019 75.6769 114.294 75.6583 114.565 75.6396C114.836 75.6116 115.078 75.5789 115.293 75.5416V76.2556C115.106 76.2929 114.873 76.3256 114.593 76.3536C114.313 76.3909 114.019 76.4143 113.711 76.4236C113.403 76.4423 113.1 76.4516 112.801 76.4516ZM114.747 72.6576V72.1956C114.747 71.6636 114.714 71.2389 114.649 70.9216C114.584 70.6043 114.476 70.3663 114.327 70.2076C114.178 70.0489 113.972 69.9463 113.711 69.8996C113.459 69.8436 113.137 69.8156 112.745 69.8156C112.25 69.8156 111.854 69.8483 111.555 69.9136C111.256 69.9789 111.032 70.1049 110.883 70.2916C110.734 70.4689 110.636 70.7256 110.589 71.0616C110.542 71.3976 110.519 71.8456 110.519 72.4056H115.013L114.747 72.6576ZM117.821 76.3396V69.1996H118.563L118.619 70.6416H118.689C118.801 70.2216 118.974 69.8996 119.207 69.6756C119.44 69.4423 119.716 69.2883 120.033 69.2136C120.36 69.1296 120.719 69.0876 121.111 69.0876V69.9416C120.448 69.9416 119.94 70.0536 119.585 70.2776C119.24 70.4923 119.002 70.8236 118.871 71.2716C118.74 71.7196 118.675 72.2703 118.675 72.9236V76.3396H117.821ZM125.543 76.4516C124.983 76.4516 124.516 76.4143 124.143 76.3396C123.77 76.2743 123.466 76.1576 123.233 75.9896C123 75.8216 122.822 75.5976 122.701 75.3176C122.589 75.0283 122.51 74.6783 122.463 74.2676C122.426 73.8476 122.407 73.3529 122.407 72.7836C122.407 72.1023 122.435 71.5283 122.491 71.0616C122.547 70.5856 122.668 70.2029 122.855 69.9136C123.051 69.6243 123.359 69.4143 123.779 69.2836C124.208 69.1529 124.792 69.0876 125.529 69.0876C126.061 69.0876 126.495 69.1296 126.831 69.2136C127.176 69.2883 127.447 69.4143 127.643 69.5916C127.848 69.7596 127.998 69.9883 128.091 70.2776C128.184 70.5669 128.245 70.9169 128.273 71.3276C128.301 71.7383 128.315 72.2189 128.315 72.7696V73.0636H123.261C123.261 73.6049 123.284 74.0483 123.331 74.3936C123.387 74.7389 123.49 75.0096 123.639 75.2056C123.798 75.4016 124.04 75.5369 124.367 75.6116C124.703 75.6863 125.151 75.7236 125.711 75.7236C125.944 75.7236 126.201 75.7143 126.481 75.6956C126.761 75.6769 127.036 75.6583 127.307 75.6396C127.578 75.6116 127.82 75.5789 128.035 75.5416V76.2556C127.848 76.2929 127.615 76.3256 127.335 76.3536C127.055 76.3909 126.761 76.4143 126.453 76.4236C126.145 76.4423 125.842 76.4516 125.543 76.4516ZM127.489 72.6576V72.1956C127.489 71.6636 127.456 71.2389 127.391 70.9216C127.326 70.6043 127.218 70.3663 127.069 70.2076C126.92 70.0489 126.714 69.9463 126.453 69.8996C126.201 69.8436 125.879 69.8156 125.487 69.8156C124.992 69.8156 124.596 69.8483 124.297 69.9136C123.998 69.9789 123.774 70.1049 123.625 70.2916C123.476 70.4689 123.378 70.7256 123.331 71.0616C123.284 71.3976 123.261 71.8456 123.261 72.4056H127.755L127.489 72.6576ZM134.364 76.3396V69.9416H132.894V69.1996H134.364V67.1276H135.218V69.1996H136.954V69.9416H135.218V76.3396H134.364ZM138.616 76.3396V69.1996H139.358L139.414 70.6416H139.484C139.596 70.2216 139.769 69.8996 140.002 69.6756C140.235 69.4423 140.511 69.2883 140.828 69.2136C141.155 69.1296 141.514 69.0876 141.906 69.0876V69.9416C141.243 69.9416 140.735 70.0536 140.38 70.2776C140.035 70.4923 139.797 70.8236 139.666 71.2716C139.535 71.7196 139.47 72.2703 139.47 72.9236V76.3396H138.616ZM145.444 76.4516C144.893 76.4516 144.436 76.3956 144.072 76.2836C143.708 76.1716 143.437 75.9663 143.26 75.6676C143.092 75.3689 143.008 74.9443 143.008 74.3936C143.008 73.8616 143.068 73.4463 143.19 73.1476C143.311 72.8396 143.526 72.6203 143.834 72.4896C144.151 72.3589 144.59 72.2936 145.15 72.2936C145.252 72.2936 145.411 72.2983 145.626 72.3076C145.84 72.3076 146.088 72.3123 146.368 72.3216C146.648 72.3309 146.928 72.3403 147.208 72.3496C147.497 72.3496 147.768 72.3543 148.02 72.3636V71.8316C148.02 71.3649 147.992 71.0009 147.936 70.7396C147.88 70.4689 147.768 70.2683 147.6 70.1376C147.441 69.9976 147.208 69.9136 146.9 69.8856C146.592 69.8483 146.195 69.8296 145.71 69.8296C145.495 69.8296 145.248 69.8389 144.968 69.8576C144.688 69.8669 144.412 69.8856 144.142 69.9136C143.88 69.9323 143.661 69.9556 143.484 69.9836V69.2696C143.81 69.2136 144.193 69.1716 144.632 69.1436C145.07 69.1063 145.532 69.0876 146.018 69.0876C146.503 69.0876 146.914 69.1156 147.25 69.1716C147.586 69.2276 147.861 69.3163 148.076 69.4376C148.29 69.5589 148.454 69.7223 148.566 69.9276C148.678 70.1329 148.757 70.3896 148.804 70.6976C148.85 71.0056 148.874 71.3696 148.874 71.7896V76.3396H148.118L148.076 75.2616H148.006C147.866 75.6163 147.651 75.8823 147.362 76.0596C147.082 76.2276 146.769 76.3349 146.424 76.3816C146.088 76.4283 145.761 76.4516 145.444 76.4516ZM145.682 75.7236C145.971 75.7236 146.251 75.7096 146.522 75.6816C146.792 75.6536 147.03 75.5883 147.236 75.4856C147.441 75.3736 147.6 75.2103 147.712 74.9956C147.824 74.7623 147.903 74.5196 147.95 74.2676C147.996 74.0156 148.02 73.7309 148.02 73.4136V72.9516H145.374C144.963 72.9516 144.646 72.9843 144.422 73.0496C144.198 73.1149 144.044 73.2456 143.96 73.4416C143.876 73.6376 143.834 73.9363 143.834 74.3376C143.834 74.7203 143.88 75.0143 143.974 75.2196C144.076 75.4156 144.258 75.5509 144.52 75.6256C144.79 75.6909 145.178 75.7236 145.682 75.7236ZM153.207 76.3396L150.449 69.1996H151.359L153.669 75.3736H153.767L156.077 69.1996H156.959L154.215 76.3396H153.207ZM158.686 76.3396V65.9376H159.54V76.3396H158.686ZM162.706 76.3396V69.9416H161.236V69.1996H162.706V67.1276H163.56V69.1996H165.296V69.9416H163.56V76.3396H162.706ZM172.998 76.4516C172.438 76.4516 171.972 76.4143 171.598 76.3396C171.225 76.2743 170.922 76.1576 170.688 75.9896C170.455 75.8216 170.278 75.5976 170.156 75.3176C170.044 75.0283 169.965 74.6783 169.918 74.2676C169.881 73.8476 169.862 73.3529 169.862 72.7836C169.862 72.1023 169.89 71.5283 169.946 71.0616C170.002 70.5856 170.124 70.2029 170.31 69.9136C170.506 69.6243 170.814 69.4143 171.234 69.2836C171.664 69.1529 172.247 69.0876 172.984 69.0876C173.516 69.0876 173.95 69.1296 174.286 69.2136C174.632 69.2883 174.902 69.4143 175.098 69.5916C175.304 69.7596 175.453 69.9883 175.546 70.2776C175.64 70.5669 175.7 70.9169 175.728 71.3276C175.756 71.7383 175.77 72.2189 175.77 72.7696V73.0636H170.716C170.716 73.6049 170.74 74.0483 170.786 74.3936C170.842 74.7389 170.945 75.0096 171.094 75.2056C171.253 75.4016 171.496 75.5369 171.822 75.6116C172.158 75.6863 172.606 75.7236 173.166 75.7236C173.4 75.7236 173.656 75.7143 173.936 75.6956C174.216 75.6769 174.492 75.6583 174.762 75.6396C175.033 75.6116 175.276 75.5789 175.49 75.5416V76.2556C175.304 76.2929 175.07 76.3256 174.79 76.3536C174.51 76.3909 174.216 76.4143 173.908 76.4236C173.6 76.4423 173.297 76.4516 172.998 76.4516ZM174.944 72.6576V72.1956C174.944 71.6636 174.912 71.2389 174.846 70.9216C174.781 70.6043 174.674 70.3663 174.524 70.2076C174.375 70.0489 174.17 69.9463 173.908 69.8996C173.656 69.8436 173.334 69.8156 172.942 69.8156C172.448 69.8156 172.051 69.8483 171.752 69.9136C171.454 69.9789 171.23 70.1049 171.08 70.2916C170.931 70.4689 170.833 70.7256 170.786 71.0616C170.74 71.3976 170.716 71.8456 170.716 72.4056H175.21L174.944 72.6576ZM178.018 76.3396V69.1996H178.774L178.816 70.2916H178.886C178.98 70.0583 179.11 69.8529 179.278 69.6756C179.456 69.4983 179.708 69.3583 180.034 69.2556C180.37 69.1436 180.804 69.0876 181.336 69.0876C181.878 69.0876 182.312 69.1436 182.638 69.2556C182.974 69.3583 183.231 69.5216 183.408 69.7456C183.586 69.9603 183.702 70.2449 183.758 70.5996C183.824 70.9543 183.856 71.3743 183.856 71.8596V76.3396H183.002V72.1256C183.002 71.6216 182.979 71.2203 182.932 70.9216C182.886 70.6229 182.792 70.3989 182.652 70.2496C182.512 70.0909 182.312 69.9883 182.05 69.9416C181.789 69.8856 181.448 69.8576 181.028 69.8576C180.506 69.8576 180.095 69.9276 179.796 70.0676C179.507 70.1983 179.297 70.3896 179.166 70.6416C179.036 70.8843 178.952 71.1783 178.914 71.5236C178.886 71.8596 178.872 72.2329 178.872 72.6436V76.3396H178.018ZM188.82 76.4516C188.27 76.4516 187.817 76.3956 187.462 76.2836C187.108 76.1716 186.832 75.9803 186.636 75.7096C186.44 75.4389 186.3 75.0656 186.216 74.5896C186.142 74.1136 186.104 73.5069 186.104 72.7696C186.104 72.0416 186.142 71.4396 186.216 70.9636C186.3 70.4783 186.44 70.1003 186.636 69.8296C186.832 69.5589 187.103 69.3676 187.448 69.2556C187.803 69.1436 188.256 69.0876 188.806 69.0876C189.217 69.0876 189.581 69.1203 189.898 69.1856C190.216 69.2509 190.486 69.3629 190.71 69.5216C190.934 69.6803 191.102 69.8949 191.214 70.1656H191.284V65.9376H192.138V76.3396H191.396L191.354 75.2616H191.284C191.144 75.6069 190.948 75.8636 190.696 76.0316C190.444 76.1996 190.155 76.3116 189.828 76.3676C189.502 76.4236 189.166 76.4516 188.82 76.4516ZM189.128 75.6816C189.67 75.6816 190.099 75.6116 190.416 75.4716C190.743 75.3223 190.962 75.0889 191.074 74.7716C191.177 74.4729 191.238 74.1603 191.256 73.8336C191.275 73.4976 191.284 73.0963 191.284 72.6296C191.284 72.2936 191.275 71.9763 191.256 71.6776C191.238 71.3789 191.186 71.1129 191.102 70.8796C190.972 70.5063 190.743 70.2449 190.416 70.0956C190.099 69.9369 189.656 69.8576 189.086 69.8576C188.629 69.8576 188.256 69.8903 187.966 69.9556C187.686 70.0209 187.472 70.1516 187.322 70.3476C187.182 70.5436 187.084 70.8376 187.028 71.2296C186.982 71.6123 186.958 72.1256 186.958 72.7696C186.958 73.4136 186.986 73.9316 187.042 74.3236C187.098 74.7063 187.196 74.9956 187.336 75.1916C187.486 75.3876 187.705 75.5183 187.994 75.5836C188.284 75.6489 188.662 75.6816 189.128 75.6816ZM197.952 76.3396V69.1996H198.708L198.75 70.2916H198.82C198.913 70.0583 199.044 69.8529 199.212 69.6756C199.389 69.4983 199.641 69.3583 199.968 69.2556C200.304 69.1436 200.738 69.0876 201.27 69.0876C201.811 69.0876 202.245 69.1436 202.572 69.2556C202.908 69.3583 203.164 69.5216 203.342 69.7456C203.519 69.9603 203.636 70.2449 203.692 70.5996C203.757 70.9543 203.79 71.3743 203.79 71.8596V76.3396H202.936V72.1256C202.936 71.6216 202.912 71.2203 202.866 70.9216C202.819 70.6229 202.726 70.3989 202.586 70.2496C202.446 70.0909 202.245 69.9883 201.984 69.9416C201.722 69.8856 201.382 69.8576 200.962 69.8576C200.439 69.8576 200.028 69.9276 199.73 70.0676C199.44 70.1983 199.23 70.3896 199.1 70.6416C198.969 70.8843 198.885 71.1783 198.848 71.5236C198.82 71.8596 198.806 72.2329 198.806 72.6436V76.3396H197.952ZM209.118 76.4516C208.539 76.4516 208.059 76.4189 207.676 76.3536C207.303 76.2883 207.004 76.1763 206.78 76.0176C206.556 75.8589 206.393 75.6396 206.29 75.3596C206.187 75.0796 206.117 74.7296 206.08 74.3096C206.052 73.8803 206.038 73.3669 206.038 72.7696C206.038 72.1723 206.052 71.6636 206.08 71.2436C206.117 70.8143 206.187 70.4596 206.29 70.1796C206.393 69.8996 206.556 69.6803 206.78 69.5216C207.004 69.3629 207.303 69.2509 207.676 69.1856C208.059 69.1203 208.539 69.0876 209.118 69.0876C209.697 69.0876 210.173 69.1203 210.546 69.1856C210.929 69.2509 211.232 69.3629 211.456 69.5216C211.68 69.6803 211.843 69.8996 211.946 70.1796C212.058 70.4596 212.128 70.8143 212.156 71.2436C212.184 71.6636 212.198 72.1723 212.198 72.7696C212.198 73.3669 212.184 73.8803 212.156 74.3096C212.128 74.7296 212.058 75.0796 211.946 75.3596C211.843 75.6396 211.68 75.8589 211.456 76.0176C211.232 76.1763 210.929 76.2883 210.546 76.3536C210.173 76.4189 209.697 76.4516 209.118 76.4516ZM209.118 75.7096C209.678 75.7096 210.107 75.6723 210.406 75.5976C210.714 75.5229 210.933 75.3876 211.064 75.1916C211.195 74.9863 211.274 74.6923 211.302 74.3096C211.33 73.9176 211.344 73.4043 211.344 72.7696C211.344 72.1443 211.33 71.6356 211.302 71.2436C211.274 70.8516 211.195 70.5529 211.064 70.3476C210.933 70.1423 210.714 70.0069 210.406 69.9416C210.107 69.8669 209.678 69.8296 209.118 69.8296C208.567 69.8296 208.138 69.8669 207.83 69.9416C207.522 70.0069 207.303 70.1423 207.172 70.3476C207.041 70.5529 206.962 70.8516 206.934 71.2436C206.906 71.6356 206.892 72.1443 206.892 72.7696C206.892 73.4043 206.906 73.9176 206.934 74.3096C206.962 74.6923 207.041 74.9863 207.172 75.1916C207.303 75.3876 207.522 75.5229 207.83 75.5976C208.138 75.6723 208.567 75.7096 209.118 75.7096ZM214.454 76.3396V69.1996H215.196L215.252 70.6416H215.322C215.434 70.2216 215.606 69.8996 215.84 69.6756C216.073 69.4423 216.348 69.2883 216.666 69.2136C216.992 69.1296 217.352 69.0876 217.744 69.0876V69.9416C217.081 69.9416 216.572 70.0536 216.218 70.2776C215.872 70.4923 215.634 70.8236 215.504 71.2716C215.373 71.7196 215.308 72.2703 215.308 72.9236V76.3396H214.454ZM219.43 76.3396V69.1996H220.186L220.228 70.2916H220.298C220.373 70.0676 220.49 69.8669 220.648 69.6896C220.816 69.5029 221.045 69.3583 221.334 69.2556C221.633 69.1436 222.025 69.0876 222.51 69.0876C223.173 69.0876 223.663 69.1809 223.98 69.3676C224.307 69.5543 224.526 69.8623 224.638 70.2916H224.722C224.797 70.0676 224.918 69.8669 225.086 69.6896C225.264 69.5029 225.502 69.3583 225.8 69.2556C226.108 69.1436 226.505 69.0876 226.99 69.0876C227.644 69.0876 228.134 69.1856 228.46 69.3816C228.787 69.5683 229.002 69.8669 229.104 70.2776C229.207 70.6789 229.258 71.2063 229.258 71.8596V76.3396H228.404V72.1256C228.404 71.6216 228.386 71.2203 228.348 70.9216C228.311 70.6229 228.232 70.3989 228.11 70.2496C227.989 70.0909 227.812 69.9883 227.578 69.9416C227.354 69.8856 227.056 69.8576 226.682 69.8576C226.216 69.8576 225.852 69.9229 225.59 70.0536C225.329 70.1749 225.142 70.3569 225.03 70.5996C224.918 70.8329 224.848 71.1223 224.82 71.4676C224.792 71.8129 224.778 72.2049 224.778 72.6436V76.3396H223.924V72.1256C223.924 71.6216 223.901 71.2203 223.854 70.9216C223.817 70.6229 223.738 70.3989 223.616 70.2496C223.504 70.0909 223.332 69.9883 223.098 69.9416C222.874 69.8856 222.576 69.8576 222.202 69.8576C221.736 69.8576 221.372 69.9276 221.11 70.0676C220.849 70.1983 220.658 70.3896 220.536 70.6416C220.424 70.8843 220.354 71.1783 220.326 71.5236C220.298 71.8596 220.284 72.2329 220.284 72.6436V76.3396H219.43ZM233.832 76.4516C233.282 76.4516 232.824 76.3956 232.46 76.2836C232.096 76.1716 231.826 75.9663 231.648 75.6676C231.48 75.3689 231.396 74.9443 231.396 74.3936C231.396 73.8616 231.457 73.4463 231.578 73.1476C231.7 72.8396 231.914 72.6203 232.222 72.4896C232.54 72.3589 232.978 72.2936 233.538 72.2936C233.641 72.2936 233.8 72.2983 234.014 72.3076C234.229 72.3076 234.476 72.3123 234.756 72.3216C235.036 72.3309 235.316 72.3403 235.596 72.3496C235.886 72.3496 236.156 72.3543 236.408 72.3636V71.8316C236.408 71.3649 236.38 71.0009 236.324 70.7396C236.268 70.4689 236.156 70.2683 235.988 70.1376C235.83 69.9976 235.596 69.9136 235.288 69.8856C234.98 69.8483 234.584 69.8296 234.098 69.8296C233.884 69.8296 233.636 69.8389 233.356 69.8576C233.076 69.8669 232.801 69.8856 232.53 69.9136C232.269 69.9323 232.05 69.9556 231.872 69.9836V69.2696C232.199 69.2136 232.582 69.1716 233.02 69.1436C233.459 69.1063 233.921 69.0876 234.406 69.0876C234.892 69.0876 235.302 69.1156 235.638 69.1716C235.974 69.2276 236.25 69.3163 236.464 69.4376C236.679 69.5589 236.842 69.7223 236.954 69.9276C237.066 70.1329 237.146 70.3896 237.192 70.6976C237.239 71.0056 237.262 71.3696 237.262 71.7896V76.3396H236.506L236.464 75.2616H236.394C236.254 75.6163 236.04 75.8823 235.75 76.0596C235.47 76.2276 235.158 76.3349 234.812 76.3816C234.476 76.4283 234.15 76.4516 233.832 76.4516ZM234.07 75.7236C234.36 75.7236 234.64 75.7096 234.91 75.6816C235.181 75.6536 235.419 75.5883 235.624 75.4856C235.83 75.3736 235.988 75.2103 236.1 74.9956C236.212 74.7623 236.292 74.5196 236.338 74.2676C236.385 74.0156 236.408 73.7309 236.408 73.4136V72.9516H233.762C233.352 72.9516 233.034 72.9843 232.81 73.0496C232.586 73.1149 232.432 73.2456 232.348 73.4416C232.264 73.6376 232.222 73.9363 232.222 74.3376C232.222 74.7203 232.269 75.0143 232.362 75.2196C232.465 75.4156 232.647 75.5509 232.908 75.6256C233.179 75.6909 233.566 75.7236 234.07 75.7236ZM239.842 76.3396V65.9376H240.696V76.3396H239.842ZM243.862 76.3396V69.9416H242.392V69.1996H243.862V67.1276H244.716V69.1996H246.452V69.9416H244.716V76.3396H243.862Z" fill="#1A1919"/>
<circle cx="34.5" cy="70.5" r="14.5" fill="#B57442"/>
<line x1="134.735" y1="268.764" x2="134.735" y2="253.689" stroke="#1A1919" stroke-opacity="0.75" stroke-width="7" stroke-linecap="round"/>
<line x1="172.971" y1="268.764" x2="172.971" y2="243.387" stroke="#1A1919" stroke-opacity="0.75" stroke-width="7" stroke-linecap="round"/>
<line x1="256.794" y1="268.764" x2="256.794" y2="240.443" stroke="#1A1919" stroke-opacity="0.75" stroke-width="7" stroke-linecap="round"/>
<line x1="330.324" y1="268.764" x2="330.324" y2="249.274" stroke="#1A1919" stroke-opacity="0.75" stroke-width="7" stroke-linecap="round"/>
<line x1="212.676" y1="268.764" x2="212.676" y2="253.689" stroke="#1A1919" stroke-opacity="0.75" stroke-width="7" stroke-linecap="round"/>
<line x1="292.088" y1="268.764" x2="292.088" y2="215.425" stroke="#B57442" stroke-width="7" stroke-linecap="round"/>
<line x1="370.029" y1="268.764" x2="370.029" y2="259.575" stroke="#1A1919" stroke-opacity="0.75" stroke-width="7" stroke-linecap="round"/>
</svg>
