<svg width="59" height="59" viewBox="0 0 59 59" fill="none" xmlns="http://www.w3.org/2000/svg">
<g opacity="0.8">
<path d="M29.5 0C45.7924 0 59 13.2076 59 29.5C59 45.7924 45.7924 59 29.5 59C13.2076 59 0 45.7924 0 29.5C0 13.2076 13.2076 0 29.5 0ZM30.707 15.293C30.3165 14.9024 29.6835 14.9024 29.293 15.293L22.9287 21.6572C22.5385 22.0478 22.5383 22.6809 22.9287 23.0713C23.3191 23.4617 23.9522 23.4615 24.3428 23.0713L29 18.4141V43H31V18.4141L35.6572 23.0713C36.0478 23.4615 36.6809 23.4617 37.0713 23.0713C37.4617 22.6809 37.4615 22.0478 37.0713 21.6572L30.707 15.293Z" fill="#11544A"/>
</g>
</svg>
